{
.appVersion = "3221";
.formatVersion = 3;
axes = (
{
name = Weight;
tag = wght;
}
);
classes = (
{
automatic = 1;
code = "A Aacute Abreve Acircumflex Adieresis Agrave Amacron Aogonek Aring Atilde AE B C Cacute Ccaron Ccedilla D Eth Dcaron Dcroat E Eacute Ecaron Ecircumflex Edieresis Edotaccent Egrave Emacron Eogonek F G Gbreve Gcommaaccent H I Iacute Icircumflex Idieresis Idotaccent Igrave Imacron Iogonek J K Kcommaaccent L Lacute Lcaron Lcommaaccent Lslash M N Nacute Ncaron Ncommaaccent Ntilde O Oacute Ocircumflex Odieresis Ograve Ohungarumlaut Omacron Oslash Otilde OE P Thorn Q R Racute Rcaron Rcommaaccent S Sacute Scaron Scedilla Scommaaccent Germandbls T Tcaron Tcedilla Tcommaaccent U Uacute Ucircumflex Udieresis Ugrave Uhungarumlaut Umacron Uogonek Uring V W X Y Yacute Ydieresis Z Zacute Zcaron Zdotaccent";
name = Uppercase;
}
);
customParameters = (
{
name = "Use Typo Metrics";
value = 1;
},
{
name = fsType;
value = (
);
}
);
date = "2018-11-15 21:51:33 +0000";
familyName = Ribes;
featurePrefixes = (
{
automatic = 1;
code = "languagesystem DFLT dflt;

languagesystem latn dflt;
languagesystem latn AZE;
languagesystem latn CRT;
languagesystem latn KAZ;
languagesystem latn TAT;
languagesystem latn TRK;
languagesystem latn ROM;
languagesystem latn MOL;
";
name = Languagesystems;
}
);
features = (
{
automatic = 1;
code = "feature locl;
feature sups;
feature frac;
feature ordn;
";
tag = aalt;
},
{
automatic = 1;
code = "lookup locl_latn_0 {
	script latn;
	language AZE;
	sub i by idotaccent;
	language CRT;
	sub i by idotaccent;
	language KAZ;
	sub i by idotaccent;
	language TAT;
	sub i by idotaccent;
	language TRK;
	sub i by idotaccent;
} locl_latn_0;

lookup locl_latn_1 {
	script latn;
	language ROM;
	sub Scedilla by Scommaaccent;
	sub scedilla by scommaaccent;
	sub Tcedilla by Tcommaaccent;
	sub tcedilla by tcommaaccent;
	language MOL;
	sub Scedilla by Scommaaccent;
	sub scedilla by scommaaccent;
	sub Tcedilla by Tcommaaccent;
	sub tcedilla by tcommaaccent;

glyphs = (
{
glyphname = A;
kernLeft = A;
kernRight = A;
lastChange = "2022-03-28 16:56:53 +0000";
layers = (
{
anchors = (
{
name = ogonek;
pos = (632,0);
},
{
name = top;
pos = (332,700);
}
);
layerId = "73C3FB79-0E24-4863-9919-819B2F26AD09";
shapes = (
{
closed = 1;
nodes = (
(154,0,l),
(370,592,l),
(382,592,l),
(582,0,l),
(632,0,l),
(392,700,l),
(272,700,l),
(2,0,l)
);
},
{
closed = 1;
nodes = (
(544,176,l),
(544,224,l),
(196,224,l),
(196,176,l)
);
}
);
width = 632;
},
{
anchors = (
{
name = ogonek;
pos = (614,0);
},
{
name = top;
pos = (318,700);
}
);
layerId = "DF4F0C8E-2CF9-4068-955F-A12E64B8206D";
shapes = (
{
closed = 1;
nodes = (
(66,0,l),
(317,632,l),
(329,632,l),
(572,0,l),
(614,0,l),
(342,700,l),
(286,700,l),
(4,0,l)
);
},
{
closed = 1;
nodes = (
(524,181,l),
(524,219,l),
(116,219,l),
(116,181,l)
);
}
);
width = 616;
},
{
anchors = (
{
name = ogonek;
pos = (660,0);
},
{
name = top;
pos = (332,700);
}
);
associatedMasterId = "73C3FB79-0E24-4863-9919-819B2F26AD09";
layerId = "5BA4EE2D-3568-42C0-9E24-2B437A376A3E";
name = "14 feb 22, 16:42";
shapes = (
{
closed = 1;
nodes = (
(52,0,l),
(268,576,l),
(280,576,l),
(492,0,l),
(660,0,l),
(396,700,l),
(264,700,l),
(2,0,l)
);
},
{
closed = 1;
nodes = (
(444,176,l),
(444,224,l),
(104,224,l),
(104,176,l)
);
}
);
width = 660;
},
{
anchors = (
{
name = ogonek;
pos = (610,0);
},
{
name = top;
pos = (308,700);
}
);
associatedMasterId = "DF4F0C8E-2CF9-4068-955F-A12E64B8206D";
layerId = "01E214D4-5269-4EC5-8E4C-8BF0B653A67B";
name = "14 feb 22, 16:43";
shapes = (
{
closed = 1;
nodes = (
(50,0,l),
(301,628,l),
(313,628,l),
(548,0,l),
(610,0,l),
(343,700,l),
(291,700,l),
(8,0,l)
);
},
{
closed = 1;
nodes = (
(484,181,l),
(484,219,l),
(112,219,l),
(112,181,l)
);
}
);
width = 616;
}
);
metricRight = "=|A-2";
note = "   ";
unicode = 65;
},
{
glyphname = Aogonek;
kernLeft = A;
kernRight = A;
lastChange = "2022-01-10 14:45:57 +0000";
layers = (
{
layerId = "DF4F0C8E-2CF9-4068-955F-A12E64B8206D";
shapes = (
{
closed = 1;
nodes = (
(610,-160,l),
(534,-180,o),
(488,-158,o),
(488,-118,cs),
(488,-78,o),
(534,-28,o),
(610,0,c),
(558,0,l),
(558,-8,l),
(498,-32,o),
(446,-82,o),
(446,-134,cs),
(446,-194,o),
(514,-228,o),
(610,-204,c)
);
},
{
ref = A;
}
);
width = 616;
},
{
layerId = "73C3FB79-0E24-4863-9919-819B2F26AD09";
shapes = (
{
closed = 1;
nodes = (
(626,-152,l),
(550,-172,o),
(506,-157,o),
(506,-112,cs),
(506,-69,o),
(550,-28,o),
(626,0,c),
(564,0,l),
(564,-12,l),
(504,-40,o),
(460,-84,o),
(460,-136,cs),
(460,-200,o),
(526,-228,o),
(626,-204,c)
);
},
{
ref = A;
}
);
width = 628;
}
);
unicode = 260;
},
{
glyphname = AE;
kernLeft = A;
kernRight = E;
lastChange = "2022-02-19 14:16:34 +0000";
layers = (
{
layerId = "73C3FB79-0E24-4863-9919-819B2F26AD09";
shapes = (
{
closed = 1;
nodes = (
(54,0,l),
(288,524,l),
(470,524,l),
(470,700,l),
(316,700,l),
(0,0,l)
);
},
{
closed = 1;
nodes = (
(470,132,l),
(470,300,l),
(176,300,l),
(96,132,l)
);
},
{
closed = 1;
nodes = (
(846,0,l),
(846,172,l),
(470,172,l),
(470,0,l)
);
},
{
closed = 1;
nodes = (
(490,0,l),
(490,700,l),
(450,700,l),
(450,0,l)
);
},
{
closed = 1;
nodes = (
(812,324,l),
(812,372,l),
(470,372,l),
(470,324,l)
);
},
{
closed = 1;
nodes = (
(850,524,l),
(850,700,l),
(470,700,l),
(470,524,l)
);
}
);
width = 894;
},
{
associatedMasterId = "73C3FB79-0E24-4863-9919-819B2F26AD09";
layerId = "28E7EEFF-C547-4D0A-A251-45F80FF59575";
name = "Oct 6 17, 15:58";
shapes = (
{
closed = 1;
nodes = (
(478,706,l),
(478,0,l),
(438,0,l),
(438,706,l)
);
},
{
closed = 1;
nodes = (
(868,146,l),
(868,0,l),
(478,0,l),
(478,152,l)
);
},
{
closed = 1;
nodes = (
(868,706,l),
(868,554,l),
(358,554,l),
(438,706,l)
);
},
{
closed = 1;
nodes = (
(812,352,l),
(812,308,l),
(478,308,l),
(478,352,l)
);
},
{
closed = 1;
nodes = (
(478,308,l),
(204,308,l),
(204,352,l),
(478,352,l)
);
},
{
closed = 1;
nodes = (
(402,706,l),
(450,706,l),
(52,0,l),
(4,0,l)
);
}
);
width = 900;
},
{
associatedMasterId = "73C3FB79-0E24-4863-9919-819B2F26AD09";
layerId = "D5E8EC64-1AB0-45A9-8911-F3CFE4DB1E91";
name = "Nov 30 17, 23:55";
shapes = (
{
closed = 1;
nodes = (
(526,706,l),
(526,0,l),
(488,0,l),
(488,706,l)
);
},
{
closed = 1;
nodes = (
(910,146,l),
(910,0,l),
(526,0,l),
(526,152,l)
);
},
{
closed = 1;
nodes = (
(906,706,l),
(906,554,l),
(526,554,l),
(526,706,l)
);
},
{
closed = 1;
nodes = (
(854,356,l),
(854,316,l),
(526,316,l),
(526,356,l)
);
},
{
closed = 1;
nodes = (
(218,206,l),
(488,206,l),
(488,246,l),
(218,246,l)
);
},
{
closed = 1;
nodes = (
(324,706,l),
(8,0,l),
(180,0,l),
(410,554,l),
(488,554,l),
(488,706,l)
);
}
);
width = 942;
},
{
associatedMasterId = "73C3FB79-0E24-4863-9919-819B2F26AD09";
background = {
shapes = (
{
closed = 1;
nodes = (
(530,206,l),
(158,206,l),
(174,246,l),
(514,246,l)
);
},
{
closed = 1;
nodes = (
(302,706,l),
(366,706,l),
(638,0,l),
(594,0,l),
(378,574,l),
(156,0,l),
(0,0,l)
);
},
{
closed = 1;
nodes = (
(927,144,l),
(989,0,l),
(626,0,l),
(571,144,l)
);
},
{
closed = 1;
nodes = (
(714,706,l),
(770,566,l),
(408,566,l),
(354,706,l)
);
},
{
closed = 1;
nodes = (
(820,366,l),
(838,326,l),
(500,326,l),
(485,366,l)
);
}
);
};
layerId = "A6F3CA2E-BBA2-45D3-A65D-7C96DBBC305D";
name = "Jan 21 19, 00:35";
shapes = (
{
closed = 1;
nodes = (
(530,206,l),
(158,206,l),
(174,246,l),
(514,246,l)
);
},
{
closed = 1;
nodes = (
(302,706,l),
(366,706,l),
(638,0,l),
(594,0,l),
(378,574,l),
(156,0,l),
(0,0,l)
);
},
{
closed = 1;
nodes = (
(927,144,l),
(989,0,l),
(626,0,l),
(571,144,l)
);
},
{
closed = 1;
nodes = (
(714,706,l),
(770,566,l),
(408,566,l),
(354,706,l)
);
},
{
closed = 1;
nodes = (
(820,366,l),
(838,326,l),
(500,326,l),
(485,366,l)
);
}
);
width = 989;
},
{
layerId = "DF4F0C8E-2CF9-4068-955F-A12E64B8206D";
shapes = (
{
closed = 1;
nodes = (
(48,0,l),
(336,636,l),
(462,636,l),
(462,700,l),
(324,700,l),
(4,0,l)
);
},
{
closed = 1;
nodes = (
(462,188,l),
(462,252,l),
(126,252,l),
(126,188,l)
);
},
{
closed = 1;
nodes = (
(826,0,l),
(826,62,l),
(462,62,l),
(462,0,l)
);
},
{
closed = 1;
nodes = (
(482,0,l),
(482,700,l),
(442,700,l),
(442,0,l)
);
},
{
closed = 1;
nodes = (
(790,329,l),
(790,367,l),
(462,367,l),
(462,329,l)
);
},
{
closed = 1;
nodes = (
(830,636,l),
(830,700,l),
(462,700,l),
(462,636,l)
);
}
);
width = 874;
}
);
metricRight = E;
unicode = 198;
},
{
glyphname = B;
kernLeft = H;
kernRight = B;
lastChange = "2022-03-24 21:14:05 +0000";
layers = (
{
layerId = "73C3FB79-0E24-4863-9919-819B2F26AD09";
shapes = (
{
closed = 1;
nodes = (
(400,0,ls),
(512,0,o),
(584,70,o),
(584,180,cs),
(584,270,o),
(537,335,o),
(464,347,c),
(464,359,l),
(520,376,o),
(556,436,o),
(556,512,cs),
(556,626,o),
(486,700,o),
(376,700,cs),
(60,700,l),
(60,0,l)
);
},
{
closed = 1;
nodes = (
(110,524,l),
(386,524,ls),
(453,524,o),
(488,498,o),
(488,448,cs),
(488,398,o),
(454,372,o),
(390,372,cs),
(90,372,l),
(90,326,l),
(418,326,ls),
(483,326,o),
(518,300,o),
(518,250,cs),
(518,199,o),
(485,172,o),
(422,172,cs),
(110,172,l)
);
}
);
width = 612;
},
{
associatedMasterId = "73C3FB79-0E24-4863-9919-819B2F26AD09";
background = {
shapes = (
{
closed = 1;
nodes = (
(-8,0,l),
(299,0,ls),
(411,0,o),
(471,6,o),
(519,24,cs),
(597,52,o),
(646,115,o),
(646,197,cs),
(646,295,o),
(589,360,o),
(474,377,c),
(575,404,o),
(615,460,o),
(615,537,cs),
(615,599,o),
(582,654,o),
(525,680,cs),
(481,700,o),
(423,706,o),
(332,706,cs),
(-8,706,l)
);
},
{
closed = 1;
nodes = (
(96,415,l),
(96,622,l),
(336,622,ls),
(388,622,o),
(429,619,o),
(456,606,cs),
(492,590,o),
(510,559,o),
(510,522,cs),
(510,478,o),
(489,444,o),
(446,429,cs),
(420,419,o),
(385,415,o),
(335,415,cs)
);
},
{
closed = 1;
nodes = (
(96,331,l),
(346,331,ls),
(400,331,o),
(441,325,o),
(473,310,cs),
(518,289,o),
(538,249,o),
(538,203,cs),
(538,150,o),
(511,112,o),
(458,96,cs),
(433,89,o),
(392,84,o),
(333,84,cs),
(96,84,l)
);
}
);
};
layerId = "8B8D4606-073F-419C-92B7-5B022C7837C2";
name = "May 16 17, 22:49";
shapes = (
{
closed = 1;
nodes = (
(72,706,l),
(72,0,l),
(32,0,l),
(32,706,l)
);
},
{
closed = 1;
nodes = (
(392,320,l),
(489,320,o),
(562,395,o),
(562,496,cs),
(562,616,o),
(474,706,o),
(356,706,c),
(388,554,l),
(459,554,o),
(512,512,o),
(512,457,cs),
(512,404,o),
(461,364,o),
(392,364,c)
);
},
{
closed = 1;
nodes = (
(72,554,l),
(388,554,l),
(356,706,l),
(72,706,l)
);
},
{
closed = 1;
nodes = (
(72,320,l),
(392,320,l),
(392,364,l),
(72,364,l)
);
},
{
closed = 1;
nodes = (
(467,320,o),
(524,283,o),
(524,234,cs),
(524,184,o),
(466,146,o),
(388,146,c),
(356,0,l),
(485,0,o),
(582,85,o),
(582,198,cs),
(582,293,o),
(501,364,o),
(392,364,c),
(392,320,l)
);
},
{
closed = 1;
nodes = (
(356,0,l),
(388,146,l),
(72,146,l),
(72,0,l)
);
}
);
width = 606;
},
{
layerId = "DF4F0C8E-2CF9-4068-955F-A12E64B8206D";
shapes = (
{
closed = 1;
nodes = (
(400,0,ls),
(508,0,o),
(584,76,o),
(584,180,cs),
(584,260,o),
(536,320,o),
(460,344,c),
(460,356,l),
(525,377,o),
(568,436,o),
(568,516,cs),
(568,624,o),
(490,700,o),
(380,700,cs),
(80,700,l),
(80,0,l)
);
},
{
closed = 1;
nodes = (
(120,636,l),
(378,636,ls),
(466,636,o),
(522,584,o),
(522,504,cs),
(522,421,o),
(467,367,o),
(382,367,cs),
(100,367,l),
(100,329,l),
(398,329,ls),
(484,329,o),
(540,276,o),
(540,194,cs),
(540,114,o),
(485,62,o),
(400,62,cs),
(120,62,l)
);
}
);
width = 624;
},
{
associatedMasterId = "DF4F0C8E-2CF9-4068-955F-A12E64B8206D";
layerId = "DE9EC956-27E3-457F-B01B-7ACA4ED6DD7F";
name = "29 nov 21, 13:35";
shapes = (
{
closed = 1;
nodes = (
(364,0,ls),
(486,0,o),
(572,76,o),
(572,184,cs),
(572,268,o),
(516,334,o),
(424,354,c),
(424,350,l),
(500,374,o),
(546,440,o),
(546,516,cs),
(546,624,o),
(462,700,o),
(344,700,cs),
(72,700,l),
(72,0,l)
);
},
{
closed = 1;
nodes = (
(112,636,l),
(356,636,ls),
(444,636,o),
(500,584,o),
(500,502,cs),
(500,420,o),
(442,367,o),
(352,367,cs),
(92,367,l),
(92,329,l),
(376,329,ls),
(469,329,o),
(528,276,o),
(528,194,cs),
(528,114,o),
(467,62,o),
(372,62,cs),
(112,62,l)
);
}
);
width = 612;
}
);
metricLeft = H;
unicode = 66;
},
{
glyphname = C;
kernLeft = O;
kernRight = O;
lastChange = "2022-03-24 21:12:24 +0000";
layers = (
{
anchors = (
{
name = bottom;
pos = (352,0);
},
{
name = top;
pos = (348,700);
}
);
layerId = "73C3FB79-0E24-4863-9919-819B2F26AD09";
shapes = (
{
closed = 1;
nodes = (
(540,-8,o),
(656,100,o),
(656,268,c),
(624,272,l),
(604,206,o),
(510,168,o),
(368,168,cs),
(185,168,o),
(78,235,o),
(78,350,cs),
(78,462,o),
(178,528,o),
(348,528,cs),
(487,528,o),
(582,486,o),
(606,416,c),
(640,418,l),
(636,594,o),
(522,708,o),
(348,708,cs),
(158,708,o),
(36,568,o),
(36,350,cs),
(36,132,o),
(163,-8,o),
(360,-8,cs)
);
}
);
width = 688;
},
{
associatedMasterId = "73C3FB79-0E24-4863-9919-819B2F26AD09";
background = {
shapes = (
{
closed = 1;
nodes = (
(678,406,l),
(670,583,o),
(539,716,o),
(372,716,cs),
(182,716,o),
(40,561,o),
(40,355,cs),
(40,146,o),
(184,-10,o),
(376,-10,cs),
(544,-10,o),
(676,122,o),
(684,298,c),
(664,298,l),
(624,213,o),
(508,150,o),
(376,150,cs),
(202,150,o),
(72,237,o),
(72,353,cs),
(72,469,o),
(199,548,o),
(368,548,cs),
(504,548,o),
(623,487,o),
(658,406,c)
);
}
);
};
layerId = "38D11F1E-0954-48A8-B581-7E20FB044415";
name = "Oct 21 18, 18:18";
shapes = (
{
closed = 1;
nodes = (
(678,406,l),
(670,583,o),
(539,716,o),
(372,716,cs),
(182,716,o),
(40,561,o),
(40,355,cs),
(40,146,o),
(184,-10,o),
(376,-10,cs),
(544,-10,o),
(676,122,o),
(684,298,c),
(664,298,l),
(624,213,o),
(508,150,o),
(376,150,cs),
(202,150,o),
(72,241,o),
(72,357,cs),
(72,473,o),
(199,558,o),
(368,558,cs),
(504,558,o),
(623,487,o),
(658,406,c)
);
}
);
width = 720;
},
{
anchors = (
{
name = bottom;
pos = (356,0);
},
{
name = top;
pos = (348,700);
}
);
layerId = "DF4F0C8E-2CF9-4068-955F-A12E64B8206D";
shapes = (
{
closed = 1;
nodes = (
(515,-8,o),
(636,99,o),
(648,248,c),
(620,254,l),
(596,135,o),
(493,58,o),
(356,58,cs),
(192,58,o),
(86,172,o),
(86,348,cs),
(86,526,o),
(190,640,o),
(352,640,cs),
(483,640,o),
(580,562,o),
(600,440,c),
(628,444,l),
(624,600,o),
(509,708,o),
(352,708,cs),
(174,708,o),
(48,559,o),
(48,348,cs),
(48,139,o),
(176,-8,o),
(356,-8,cs)
);
}
);
width = 692;
}
);
metricLeft = O;
metricRight = "=O-4";
unicode = 67;
},
{
glyphname = Ccedilla;
kernLeft = O;
kernRight = O;
lastChange = "2022-01-27 13:17:09 +0000";
layers = (
{
layerId = "73C3FB79-0E24-4863-9919-819B2F26AD09";
shapes = (
{
ref = C;
},
{
pos = (152,0);
ref = cedillacomb;
}
);
width = 688;
},
{
associatedMasterId = "73C3FB79-0E24-4863-9919-819B2F26AD09";
background = {
shapes = (
{
closed = 1;
nodes = (
(250,-102,l),
(256,-106,l),
(280,-92,o),
(317,-86,o),
(344,-86,cs),
(391,-86,o),
(426,-100,o),
(426,-119,cs),
(426,-138,o),
(390,-152,o),
(342,-152,cs),
(316,-152,o),
(288,-149,o),
(268,-140,c),
(268,-202,l),
(287,-212,o),
(314,-216,o),
(340,-216,cs),
(403,-216,o),
(450,-175,o),
(450,-121,cs),
(450,-67,o),
(406,-26,o),
(348,-26,cs),
(327,-26,o),
(302,-31,o),
(288,-38,c),
(305,12,l),
(285,12,l)
);
},
{
closed = 1;
nodes = (
(638,406,l),
(630,583,o),
(499,716,o),
(332,716,cs),
(142,716,o),
(0,561,o),
(0,355,cs),
(0,146,o),
(144,-10,o),
(336,-10,cs),
(504,-10,o),
(636,122,o),
(644,298,c),
(624,298,l),
(584,213,o),
(468,150,o),
(336,150,cs),
(162,150,o),
(32,237,o),
(32,353,cs),
(32,469,o),
(159,548,o),
(328,548,cs),
(464,548,o),
(583,487,o),
(618,406,c)
);
}
);
};
layerId = "B888800D-84DA-41CC-9F23-FAAB0E179D56";
name = "Jan 19 19, 01:44";
shapes = (
{
closed = 1;
nodes = (
(250,-102,l),
(256,-106,l),
(280,-92,o),
(317,-86,o),
(344,-86,cs),
(391,-86,o),
(426,-100,o),
(426,-119,cs),
(426,-138,o),
(390,-152,o),
(342,-152,cs),
(316,-152,o),
(288,-149,o),
(268,-140,c),
(268,-202,l),
(287,-212,o),
(314,-216,o),
(340,-216,cs),
(403,-216,o),
(450,-175,o),
(450,-121,cs),
(450,-67,o),
(406,-26,o),
(348,-26,cs),
(327,-26,o),
(302,-31,o),
(288,-38,c),
(305,12,l),
(285,12,l)
);
},
{
closed = 1;
nodes = (
(638,406,l),
(630,583,o),
(499,716,o),
(332,716,cs),
(142,716,o),
(0,561,o),
(0,355,cs),
(0,146,o),
(144,-10,o),
(336,-10,cs),
(504,-10,o),
(636,122,o),
(644,298,c),
(624,298,l),
(584,213,o),
(468,150,o),
(336,150,cs),
(162,150,o),
(32,237,o),
(32,353,cs),
(32,469,o),
(159,548,o),
(328,548,cs),
(464,548,o),
(583,487,o),
(618,406,c)
);
}
);
width = 644;
},
{
associatedMasterId = "73C3FB79-0E24-4863-9919-819B2F26AD09";
background = {
shapes = (
{
closed = 1;
nodes = (
(250,-102,l),
(256,-106,l),
(280,-92,o),
(317,-86,o),
(344,-86,cs),
(391,-86,o),
(426,-100,o),
(426,-119,cs),
(426,-138,o),
(390,-152,o),
(342,-152,cs),
(316,-152,o),
(288,-149,o),
(268,-140,c),
(268,-202,l),
(287,-212,o),
(314,-216,o),
(340,-216,cs),
(403,-216,o),
(450,-175,o),
(450,-121,cs),
(450,-67,o),
(406,-26,o),
(348,-26,cs),
(327,-26,o),
(302,-31,o),
(288,-38,c),
(305,12,l),
(285,12,l)
);
},
{
closed = 1;
nodes = (
(638,406,l),
(630,583,o),
(499,716,o),
(332,716,cs),
(142,716,o),
(0,561,o),
(0,355,cs),
(0,146,o),
(144,-10,o),
(336,-10,cs),
(504,-10,o),
(636,122,o),
(644,298,c),
(624,298,l),
(584,213,o),
(468,150,o),
(336,150,cs),
(162,150,o),
(32,237,o),
(32,353,cs),
(32,469,o),
(159,548,o),
(328,548,cs),
(464,548,o),
(583,487,o),
(618,406,c)
);
}
);
};
layerId = "0C45225D-224E-4CD7-90F5-4EB1948E19A7";
name = "Jan 19 19, 01:50";
shapes = (
{
alignment = -1;
ref = C;
},
{
alignment = -1;
pos = (78,0);
ref = cedilla;
}
);
width = 644;
},
{
layerId = "DF4F0C8E-2CF9-4068-955F-A12E64B8206D";
shapes = (
{
ref = C;
},
{
pos = (152,0);
ref = cedillacomb;
}
);
width = 692;
}
);
unicode = 199;
},
{
glyphname = D;
kernLeft = H;
kernRight = O;
lastChange = "2022-01-27 13:17:09 +0000";
layers = (
{
anchors = (
{
name = top;
pos = (312,700);
}
);
layerId = "73C3FB79-0E24-4863-9919-819B2F26AD09";
shapes = (
{
closed = 1;
nodes = (
(324,0,ls),
(508,0,o),
(616,128,o),
(616,348,cs),
(616,570,o),
(510,700,o),
(328,700,cs),
(90,700,l),
(90,524,l),
(340,524,ls),
(492,524,o),
(574,462,o),
(574,348,cs),
(574,236,o),
(492,172,o),
(336,172,cs),
(90,172,l),
(90,0,l)
);
},
{
closed = 1;
nodes = (
(110,0,l),
(110,700,l),
(60,700,l),
(60,0,l)
);
}
);
width = 652;
},
{
anchors = (
{
name = top;
pos = (324,700);
}
);
layerId = "DF4F0C8E-2CF9-4068-955F-A12E64B8206D";
shapes = (
{
closed = 1;
nodes = (
(332,0,ls),
(506,0,o),
(624,144,o),
(624,352,cs),
(624,560,o),
(506,700,o),
(332,700,cs),
(100,700,l),
(100,636,l),
(332,636,ls),
(488,636,o),
(586,524,o),
(586,348,cs),
(586,172,o),
(488,62,o),
(332,62,cs),
(100,62,l),
(100,0,l)
);
},
{
closed = 1;
nodes = (
(120,0,l),
(120,700,l),
(80,700,l),
(80,0,l)
);
}
);
width = 672;
}
);
metricLeft = H;
metricRight = O;
unicode = 68;
},
{
glyphname = Eth;
kernLeft = Hbar;
kernRight = O;
lastChange = "2022-03-24 19:14:01 +0000";
layers = (
{
layerId = "DF4F0C8E-2CF9-4068-955F-A12E64B8206D";
shapes = (
{
closed = 1;
nodes = (
(332,316,l),
(332,380,l),
(28,380,l),
(28,316,l)
);
},
{
closed = 1;
nodes = (
(342,0,ls),
(516,0,o),
(634,144,o),
(634,352,cs),
(634,560,o),
(516,700,o),
(342,700,cs),
(110,700,l),
(110,636,l),
(342,636,ls),
(498,636,o),
(596,524,o),
(596,348,cs),
(596,172,o),
(498,62,o),
(342,62,cs),
(110,62,l),
(110,0,l)
);
},
{
closed = 1;
nodes = (
(130,0,l),
(130,700,l),
(90,700,l),
(90,0,l)
);
}
);
width = 682;
},
{
layerId = "73C3FB79-0E24-4863-9919-819B2F26AD09";
shapes = (
{
closed = 1;
nodes = (
(398,324,l),
(398,372,l),
(24,372,l),
(24,324,l)
);
},
{
closed = 1;
nodes = (
(334,0,ls),
(518,0,o),
(626,132,o),
(626,352,cs),
(626,572,o),
(518,700,o),
(338,700,cs),
(100,700,l),
(100,524,l),
(350,524,ls),
(502,524,o),
(584,462,o),
(584,348,cs),
(584,236,o),
(502,172,o),
(346,172,cs),
(100,172,l),
(100,0,l)
);
},
{
closed = 1;
nodes = (
(120,0,l),
(120,700,l),
(70,700,l),
(70,0,l)
);
}
);
width = 662;
}
);
metricRight = O;
unicode = 208;
},
{
glyphname = E;
kernLeft = H;
kernRight = E;
lastChange = "2022-02-14 15:36:25 +0000";
layers = (
{
anchors = (
{
name = ogonek;
pos = (536,0);
},
{
name = top;
pos = (312,700);
}
);
layerId = "73C3FB79-0E24-4863-9919-819B2F26AD09";
shapes = (
{
closed = 1;
nodes = (
(540,524,l),
(540,700,l),
(90,700,l),
(90,524,l)
);
},
{
closed = 1;
nodes = (
(536,0,l),
(536,172,l),
(90,172,l),
(90,0,l)
);
},
{
closed = 1;
nodes = (
(110,0,l),
(110,700,l),
(60,700,l),
(60,0,l)
);
},
{
closed = 1;
nodes = (
(508,324,l),
(508,372,l),
(90,372,l),
(90,324,l)
);
}
);
width = 584;
},
{
anchors = (
{
name = ogonek;
pos = (532,0);
},
{
name = top;
pos = (316,700);
}
);
layerId = "DF4F0C8E-2CF9-4068-955F-A12E64B8206D";
shapes = (
{
closed = 1;
nodes = (
(536,636,l),
(536,700,l),
(100,700,l),
(100,636,l)
);
},
{
closed = 1;
nodes = (
(532,0,l),
(532,62,l),
(100,62,l),
(100,0,l)
);
},
{
closed = 1;
nodes = (
(120,0,l),
(120,700,l),
(80,700,l),
(80,0,l)
);
},
{
closed = 1;
nodes = (
(488,329,l),
(488,367,l),
(100,367,l),
(100,329,l)
);
}
);
width = 580;
}
);
metricLeft = H;
unicode = 69;
},
{
glyphname = F;
kernLeft = H;
kernRight = F;
lastChange = "2022-02-15 10:53:01 +0000";
layers = (
{
layerId = "73C3FB79-0E24-4863-9919-819B2F26AD09";
shapes = (
{
closed = 1;
nodes = (
(520,516,l),
(520,700,l),
(90,700,l),
(90,516,l)
);
},
{
closed = 1;
nodes = (
(110,0,l),
(110,700,l),
(60,700,l),
(60,0,l)
);
},
{
closed = 1;
nodes = (
(492,279,l),
(492,329,l),
(90,329,l),
(90,279,l)
);
}
);
width = 544;
},
{
layerId = "DF4F0C8E-2CF9-4068-955F-A12E64B8206D";
shapes = (
{
closed = 1;
nodes = (
(520,634,l),
(520,700,l),
(100,700,l),
(100,634,l)
);
},
{
closed = 1;
nodes = (
(120,0,l),
(120,700,l),
(80,700,l),
(80,0,l)
);
},
{
closed = 1;
nodes = (
(480,308,l),
(480,348,l),
(100,348,l),
(100,308,l)
);
}
);
width = 548;
}
);
metricLeft = H;
unicode = 70;
},
{
glyphname = G;
kernLeft = O;
kernRight = G;
lastChange = "2022-03-27 20:29:01 +0000";
layers = (
{
anchors = (
{
name = bottom;
pos = (364,0);
},
{
name = top;
pos = (348,700);
}
);
layerId = "73C3FB79-0E24-4863-9919-819B2F26AD09";
shapes = (
{
closed = 1;
nodes = (
(474,-8,o),
(570,48,o),
(602,144,c),
(614,144,l),
(598,0,l),
(648,0,l),
(648,344,l),
(264,344,l),
(264,296,l),
(594,296,l),
(594,264,l),
(578,203,o),
(492,168,o),
(360,168,cs),
(182,168,o),
(78,234,o),
(78,348,cs),
(78,462,o),
(180,528,o),
(356,528,cs),
(496,528,o),
(580,488,o),
(604,424,c),
(636,428,l),
(632,596,o),
(519,708,o),
(344,708,cs),
(156,708,o),
(36,572,o),
(36,352,cs),
(36,132,o),
(158,-8,o),
(350,-8,cs)
);
}
);
width = 696;
},
{
anchors = (
{
name = bottom;
pos = (360,0);
},
{
name = top;
pos = (352,700);
}
);
layerId = "DF4F0C8E-2CF9-4068-955F-A12E64B8206D";
shapes = (
{
closed = 1;
nodes = (
(467,-8,o),
(566,45,o),
(600,120,c),
(612,120,l),
(596,0,l),
(640,0,l),
(640,336,l),
(328,336,l),
(328,298,l),
(600,298,l),
(600,192,l),
(568,112,o),
(468,58,o),
(360,58,cs),
(196,58,o),
(86,172,o),
(86,348,cs),
(86,524,o),
(192,640,o),
(352,640,cs),
(480,640,o),
(576,564,o),
(592,440,c),
(620,444,l),
(616,600,o),
(504,708,o),
(352,708,cs),
(172,708,o),
(48,559,o),
(48,348,cs),
(48,139,o),
(177,-8,o),
(360,-8,cs)
);
}
);
width = 700;
}
);
metricLeft = O;
unicode = 71;
},
{
glyphname = H;
kernLeft = H;
kernRight = H;
lastChange = "2022-03-27 14:10:46 +0000";
layers = (
{
layerId = "73C3FB79-0E24-4863-9919-819B2F26AD09";
shapes = (
{
closed = 1;
nodes = (
(110,0,l),
(110,700,l),
(60,700,l),
(60,0,l)
);
},
{
closed = 1;
nodes = (
(600,0,l),
(600,700,l),
(550,700,l),
(550,0,l)
);
},
{
closed = 1;
nodes = (
(570,253,l),
(570,443,l),
(90,443,l),
(90,253,l)
);
}
);
width = 660;
},
{
layerId = "DF4F0C8E-2CF9-4068-955F-A12E64B8206D";
shapes = (
{
closed = 1;
nodes = (
(120,0,l),
(120,700,l),
(80,700,l),
(80,0,l)
);
},
{
closed = 1;
nodes = (
(616,0,l),
(616,700,l),
(576,700,l),
(576,0,l)
);
},
{
closed = 1;
nodes = (
(596,315,l),
(596,381,l),
(100,381,l),
(100,315,l)
);
}
);
width = 696;
},
{
associatedMasterId = "73C3FB79-0E24-4863-9919-819B2F26AD09";
layerId = "BEDC3A83-DE4E-4013-A01D-2B4D88F7D4ED";
name = "6. 10. 21, 16:07";
shapes = (
{
closed = 1;
nodes = (
(594,264,l),
(594,416,l),
(94,416,l),
(94,264,l)
);
},
{
closed = 1;
nodes = (
(104,0,l),
(104,700,l),
(64,700,l),
(64,0,l)
);
},
{
closed = 1;
nodes = (
(624,0,l),
(624,700,l),
(584,700,l),
(584,0,l)
);
}
);
width = 688;
},
{
associatedMasterId = "DF4F0C8E-2CF9-4068-955F-A12E64B8206D";
layerId = "8903C57F-AA62-4FD2-BC35-85927C7218F0";
name = "6. 10. 21, 16:07";
shapes = (
{
closed = 1;
nodes = (
(612,0,l),
(612,700,l),
(572,700,l),
(572,0,l)
);
},
{
closed = 1;
nodes = (
(112,0,l),
(112,700,l),
(72,700,l),
(72,0,l)
);
},
{
closed = 1;
nodes = (
(582,312,l),
(582,368,l),
(102,368,l),
(102,312,l)
);
}
);
width = 684;
}
);
metricRight = "=|";
unicode = 72;
},
{
glyphname = Hbar;
kernLeft = Hbar;
kernRight = Hbar;
lastChange = "2022-02-19 14:10:13 +0000";
layers = (
{
layerId = "DF4F0C8E-2CF9-4068-955F-A12E64B8206D";
shapes = (
{
closed = 1;
nodes = (
(120,0,l),
(120,700,l),
(80,700,l),
(80,0,l)
);
},
{
closed = 1;
nodes = (
(616,0,l),
(616,700,l),
(576,700,l),
(576,0,l)
);
},
{
closed = 1;
nodes = (
(596,317,l),
(596,379,l),
(100,379,l),
(100,317,l)
);
},
{
closed = 1;
nodes = (
(672,576,l),
(672,640,l),
(24,640,l),
(24,576,l)
);
}
);
width = 696;
},
{
layerId = "73C3FB79-0E24-4863-9919-819B2F26AD09";
shapes = (
{
closed = 1;
nodes = (
(110,0,l),
(110,700,l),
(60,700,l),
(60,0,l)
);
},
{
closed = 1;
nodes = (
(600,0,l),
(600,700,l),
(550,700,l),
(550,0,l)
);
},
{
closed = 1;
nodes = (
(570,292,l),
(570,340,l),
(90,340,l),
(90,292,l)
);
},
{
closed = 1;
nodes = (
(648,472,l),
(648,664,l),
(12,664,l),
(12,472,l)
);
}
);
width = 660;
}
);
metricLeft = "=|";
unicode = 294;
},
{
glyphname = I;
kernLeft = H;
kernRight = H;
lastChange = "2022-01-27 13:17:09 +0000";
layers = (
{
anchors = (
{
name = ogonek;
pos = (110,0);
},
{
name = top;
pos = (85,700);
}
);
layerId = "73C3FB79-0E24-4863-9919-819B2F26AD09";
shapes = (
{
closed = 1;
nodes = (
(110,0,l),
(110,700,l),
(60,700,l),
(60,0,l)
);
}
);
width = 170;
},
{
associatedMasterId = "73C3FB79-0E24-4863-9919-819B2F26AD09";
background = {
shapes = (
{
closed = 1;
nodes = (
(230,706,l),
(230,0,l),
(192,0,l),
(192,706,l)
);
}
);
};
layerId = "20A74628-D492-4786-9F0E-7BF7AD929F95";
name = "Nov 9 18, 14:31";
shapes = (
{
closed = 1;
nodes = (
(230,706,l),
(230,0,l),
(192,0,l),
(192,706,l)
);
},
{
closed = 1;
nodes = (
(368,706,l),
(368,554,l),
(56,554,l),
(56,706,l)
);
},
{
closed = 1;
nodes = (
(376,150,l),
(376,0,l),
(64,0,l),
(64,150,l)
);
}
);
width = 432;
},
{
anchors = (
{
name = ogonek;
pos = (120,0);
},
{
name = top;
pos = (100,700);
}
);
layerId = "DF4F0C8E-2CF9-4068-955F-A12E64B8206D";
shapes = (
{
closed = 1;
nodes = (
(120,0,l),
(120,700,l),
(80,700,l),
(80,0,l)
);
}
);
width = 200;
}
);
metricLeft = H;
metricRight = H;
unicode = 73;
},
{
glyphname = Idieresis;
kernLeft = H;
kernRight = H;
lastChange = "2022-01-10 14:45:57 +0000";
layers = (
{
layerId = "73C3FB79-0E24-4863-9919-819B2F26AD09";
shapes = (
{
closed = 1;
nodes = (
(46,762,o),
(68,783,o),
(68,812,cs),
(68,841,o),
(46,862,o),
(16,862,cs),
(-14,862,o),
(-36,841,o),
(-36,812,cs),
(-36,783,o),
(-14,762,o),
(16,762,cs)
);
},
{
closed = 1;
nodes = (
(188,762,o),
(210,783,o),
(210,812,cs),
(210,841,o),
(188,862,o),
(158,862,cs),
(128,862,o),
(106,841,o),
(106,812,cs),
(106,783,o),
(128,762,o),
(158,762,cs)
);
},
{
pos = (2,0);
ref = I;
}
);
width = 174;
},
{
layerId = "DF4F0C8E-2CF9-4068-955F-A12E64B8206D";
shapes = (
{
closed = 1;
nodes = (
(56,766,o),
(76,785,o),
(76,812,cs),
(76,839,o),
(56,858,o),
(28,858,cs),
(0,858,o),
(-20,839,o),
(-20,812,cs),
(-20,785,o),
(0,766,o),
(28,766,cs)
);
},
{
closed = 1;
nodes = (
(200,766,o),
(220,785,o),
(220,812,cs),
(220,839,o),
(200,858,o),
(172,858,cs),
(144,858,o),
(124,839,o),
(124,812,cs),
(124,785,o),
(144,766,o),
(172,766,cs)
);
},
{
ref = I;
}
);
width = 200;
}
);
metricRight = "=|";
unicode = 207;
},
{
glyphname = Iogonek;
kernLeft = H;
kernRight = H;
lastChange = "2022-01-10 14:45:57 +0000";
layers = (
{
layerId = "DF4F0C8E-2CF9-4068-955F-A12E64B8206D";
shapes = (
{
closed = 1;
nodes = (
(136,-160,l),
(66,-178,o),
(16,-159,o),
(16,-112,cs),
(16,-68,o),
(60,-26,o),
(124,0,c),
(84,0,l),
(20,-32,o),
(-24,-80,o),
(-24,-132,cs),
(-24,-196,o),
(40,-228,o),
(136,-204,c)
);
},
{
pos = (2,0);
ref = I;
}
);
width = 206;
},
{
layerId = "73C3FB79-0E24-4863-9919-819B2F26AD09";
shapes = (
{
closed = 1;
nodes = (
(110,-152,l),
(34,-172,o),
(-10,-157,o),
(-10,-112,cs),
(-10,-69,o),
(34,-28,o),
(110,0,c),
(60,0,l),
(-8,-26,o),
(-54,-76,o),
(-54,-132,cs),
(-54,-200,o),
(10,-228,o),
(110,-204,c)
);
},
{
ref = I;
}
);
width = 170;
}
);
unicode = 302;
},
{
color = 3;
glyphname = J;
kernLeft = J;
kernRight = H;
lastChange = "2022-03-27 14:13:21 +0000";
layers = (
{
layerId = "73C3FB79-0E24-4863-9919-819B2F26AD09";
shapes = (
{
closed = 1;
nodes = (
(218,-136,o),
(340,-59,o),
(340,110,cs),
(340,700,l),
(290,700,l),
(290,262,ls),
(290,135,o),
(190,81,o),
(16,114,c),
(8,-102,l)
);
}
);
width = 396;
},
{
layerId = "DF4F0C8E-2CF9-4068-955F-A12E64B8206D";
shapes = (
{
closed = 1;
nodes = (
(73,-232,o),
(172,-153,o),
(172,12,cs),
(172,700,l),
(132,700,l),
(132,20,ls),
(132,-110,o),
(53,-164,o),
(-96,-136,c),
(-96,-204,l)
);
}
);
width = 252;
},
{
associatedMasterId = "73C3FB79-0E24-4863-9919-819B2F26AD09";
layerId = "D885E8F2-F7D7-4DAF-9C6D-F762C0907466";
name = "25 gen 22, 14:12";
shapes = (
{
closed = 1;
nodes = (
(36,-308,o),
(148,-228,o),
(148,-60,cs),
(148,700,l),
(98,700,l),
(98,72,ls),
(98,-52,o),
(14,-104,o),
(-154,-72,c),
(-160,-276,l)
);
}
);
width = 208;
}
);
note = "Add non-descendent ss";
unicode = 74;
},
{
glyphname = K;
kernLeft = H;
kernRight = X;
lastChange = "2022-03-24 19:14:18 +0000";
layers = (
{
anchors = (
{
name = bottom;
pos = (316,0);
}
);
layerId = "73C3FB79-0E24-4863-9919-819B2F26AD09";
shapes = (
{
closed = 1;
nodes = (
(624,700,l),
(400,700,l),
(98,332,l),
(98,100,l)
);
},
{
closed = 1;
nodes = (
(616,0,l),
(328,404,l),
(296,368,l),
(556,0,l)
);
},
{
ref = I;
}
);
width = 620;
},
{
anchors = (
{
name = bottom;
pos = (312,0);
}
);
layerId = "DF4F0C8E-2CF9-4068-955F-A12E64B8206D";
shapes = (
{
closed = 1;
nodes = (
(584,700,l),
(500,700,l),
(102,252,l),
(102,168,l)
);
},
{
closed = 1;
nodes = (
(596,0,l),
(312,420,l),
(288,388,l),
(548,0,l)
);
},
{
ref = I;
}
);
width = 596;
},
{
anchors = (
{
name = bottom;
pos = (300,0);
}
);
associatedMasterId = "73C3FB79-0E24-4863-9919-819B2F26AD09";
layerId = "F0A7C91B-1E3A-477B-B0A5-1B8FAA57F2D4";
name = "14 feb 22, 16:54";
shapes = (
{
closed = 1;
nodes = (
(576,700,l),
(510,700,l),
(98,266,l),
(98,198,l)
);
},
{
closed = 1;
nodes = (
(628,0,l),
(340,468,l),
(220,344,l),
(420,0,l)
);
},
{
ref = I;
}
);
width = 624;
},
{
anchors = (
{
name = bottom;
pos = (312,0);
}
);
associatedMasterId = "DF4F0C8E-2CF9-4068-955F-A12E64B8206D";
layerId = "7F4549D3-8C9D-4085-A195-AA44D4E0E6E7";
name = "14 feb 22, 16:58";
shapes = (
{
closed = 1;
nodes = (
(564,700,l),
(512,700,l),
(102,238,l),
(102,182,l)
);
},
{
closed = 1;
nodes = (
(596,0,l),
(292,424,l),
(252,376,l),
(520,0,l)
);
},
{
ref = I;
}
);
width = 608;
}
);
metricLeft = H;
unicode = 75;
},
{
glyphname = L;
kernLeft = H;
kernRight = L;
lastChange = "2022-03-24 22:30:22 +0000";
layers = (
{
anchors = (
{
name = bottom;
pos = (280,0);
},
{
name = top;
pos = (156,700);
},
{
name = topright;
pos = (196,520);
}
);
layerId = "73C3FB79-0E24-4863-9919-819B2F26AD09";
shapes = (
{
closed = 1;
nodes = (
(510,0,l),
(510,188,l),
(90,188,l),
(90,0,l)
);
},
{
closed = 1;
nodes = (
(110,0,l),
(110,700,l),
(60,700,l),
(60,0,l)
);
}
);
width = 520;
},
{
anchors = (
{
name = bottom;
pos = (296,0);
},
{
name = top;
pos = (168,700);
},
{
name = topright;
pos = (212,520);
}
);
layerId = "DF4F0C8E-2CF9-4068-955F-A12E64B8206D";
shapes = (
{
closed = 1;
nodes = (
(520,0,l),
(520,68,l),
(100,68,l),
(100,0,l)
);
},
{
closed = 1;
nodes = (
(120,0,l),
(120,700,l),
(80,700,l),
(80,0,l)
);
}
);
width = 544;
}
);
metricLeft = H;
unicode = 76;
},
{
glyphname = Lslash;
kernLeft = H;
kernRight = L;
lastChange = "2022-01-27 14:22:49 +0000";
layers = (
{
layerId = "DF4F0C8E-2CF9-4068-955F-A12E64B8206D";
shapes = (
{
closed = 1;
nodes = (
(320,376,l),
(316,436,l),
(28,348,l),
(32,288,l)
);
},
{
closed = 1;
nodes = (
(526,0,l),
(526,68,l),
(106,68,l),
(106,0,l)
);
},
{
closed = 1;
nodes = (
(126,0,l),
(126,700,l),
(86,700,l),
(86,0,l)
);
}
);
width = 550;
},
{
layerId = "73C3FB79-0E24-4863-9919-819B2F26AD09";
shapes = (
{
closed = 1;
nodes = (
(348,392,l),
(340,576,l),
(24,484,l),
(32,300,l)
);
},
{
closed = 1;
nodes = (
(538,0,l),
(538,172,l),
(118,172,l),
(118,0,l)
);
},
{
closed = 1;
nodes = (
(138,0,l),
(138,700,l),
(88,700,l),
(88,0,l)
);
}
);
width = 548;
}
);
metricLeft = Eth;
metricRight = L;
unicode = 321;
},
{
glyphname = M;
kernLeft = H;
kernRight = H;
lastChange = "2022-02-16 15:17:23 +0000";
layers = (
{
layerId = "73C3FB79-0E24-4863-9919-819B2F26AD09";
shapes = (
{
closed = 1;
nodes = (
(110,0,l),
(110,528,l),
(122,528,l),
(366,0,l),
(446,0,l),
(682,528,l),
(694,528,l),
(694,0,l),
(744,0,l),
(744,700,l),
(624,700,l),
(416,212,l),
(404,212,l),
(184,700,l),
(60,700,l),
(60,0,l)
);
}
);
width = 804;
},
{
associatedMasterId = "73C3FB79-0E24-4863-9919-819B2F26AD09";
background = {
shapes = (
{
closed = 1;
nodes = (
(96,0,l),
(96,476,o),
(95,548,o),
(92,631,c),
(156,485,o),
(209,374,o),
(385,0,c),
(446,0,l),
(641,414,o),
(696,537,o),
(734,631,c),
(730,542,o),
(730,425,o),
(730,0,c),
(808,0,l),
(808,706,l),
(694,706,l),
(510,309,o),
(450,178,o),
(417,98,c),
(383,182,o),
(324,309,o),
(133,706,c),
(19,706,l),
(19,0,l)
);
}
);
};
layerId = "19080888-8616-46AD-841E-AEF310373839";
name = "Mar 26 17, 20:01";
shapes = (
{
closed = 1;
nodes = (
(96,706,l),
(96,0,l),
(56,0,l),
(56,706,l)
);
},
{
closed = 1;
nodes = (
(770,706,l),
(770,0,l),
(730,0,l),
(730,706,l)
);
},
{
closed = 1;
nodes = (
(96,706,l),
(108,706,l),
(411,206,l),
(417,194,l),
(423,206,l),
(722,706,l),
(730,706,l),
(730,482,l),
(435,0,l),
(399,0,l),
(96,482,l)
);
}
);
width = 826;
},
{
associatedMasterId = "73C3FB79-0E24-4863-9919-819B2F26AD09";
background = {
shapes = (
{
closed = 1;
nodes = (
(96,0,l),
(96,476,o),
(95,548,o),
(92,631,c),
(156,485,o),
(209,374,o),
(385,0,c),
(446,0,l),
(641,414,o),
(696,537,o),
(734,631,c),
(730,542,o),
(730,425,o),
(730,0,c),
(808,0,l),
(808,706,l),
(694,706,l),
(510,309,o),
(450,178,o),
(417,98,c),
(383,182,o),
(324,309,o),
(133,706,c),
(19,706,l),
(19,0,l)
);
}
);
};
layerId = "647364EA-D746-4B8F-8D42-EEDEEC11BFDC";
name = "Mar 26 17, 20:01";
shapes = (
{
closed = 1;
nodes = (
(96,706,l),
(96,0,l),
(56,0,l),
(56,706,l)
);
},
{
closed = 1;
nodes = (
(734,706,l),
(734,0,l),
(694,0,l),
(694,706,l)
);
},
{
closed = 1;
nodes = (
(96,706,l),
(108,706,l),
(454,142,l),
(686,706,l),
(694,706,l),
(694,618,l),
(447,0,l),
(399,0,l),
(96,482,l)
);
}
);
width = 826;
},
{
associatedMasterId = "73C3FB79-0E24-4863-9919-819B2F26AD09";
background = {
shapes = (
{
closed = 1;
nodes = (
(96,0,l),
(96,476,o),
(95,548,o),
(92,631,c),
(156,485,o),
(209,374,o),
(385,0,c),
(446,0,l),
(641,414,o),
(696,537,o),
(734,631,c),
(730,542,o),
(730,425,o),
(730,0,c),
(808,0,l),
(808,706,l),
(694,706,l),
(510,309,o),
(450,178,o),
(417,98,c),
(383,182,o),
(324,309,o),
(133,706,c),
(19,706,l),
(19,0,l)
);
}
);
};
layerId = "757F245F-AFBC-4222-9070-BD83546250EF";
name = "Mar 26 17, 20:07";
shapes = (
{
closed = 1;
nodes = (
(96,706,l),
(96,0,l),
(56,0,l),
(56,706,l)
);
},
{
closed = 1;
nodes = (
(802,706,l),
(802,0,l),
(686,0,l),
(686,706,l)
);
},
{
closed = 1;
nodes = (
(96,706,l),
(108,706,l),
(445,147,l),
(678,706,l),
(686,706,l),
(686,614,l),
(435,0,l),
(399,0,l),
(96,482,l)
);
}
);
width = 890;
},
{
layerId = "DF4F0C8E-2CF9-4068-955F-A12E64B8206D";
shapes = (
{
closed = 1;
nodes = (
(120,0,l),
(120,580,l),
(132,580,l),
(388,0,l),
(436,0,l),
(684,580,l),
(696,580,l),
(696,0,l),
(736,0,l),
(736,700,l),
(680,700,l),
(419,88,l),
(407,88,l),
(136,700,l),
(80,700,l),
(80,0,l)
);
}
);
width = 816;
},
{
associatedMasterId = "DF4F0C8E-2CF9-4068-955F-A12E64B8206D";
layerId = "8FB6FD7C-5383-4F8B-84DC-46A82E87E66C";
name = "9 dic 21, 12:19";
shapes = (
{
closed = 1;
nodes = (
(120,0,l),
(120,576,l),
(132,576,l),
(388,0,l),
(436,0,l),
(684,580,l),
(696,580,l),
(696,0,l),
(736,0,l),
(736,700,l),
(674,700,l),
(420,92,l),
(408,92,l),
(144,700,l),
(80,700,l),
(80,0,l)
);
}
);
width = 816;
}
);
metricLeft = H;
metricRight = H;
note = nera;
unicode = 77;
},
{
glyphname = N;
kernLeft = H;
kernRight = H;
lastChange = "2022-02-16 15:16:55 +0000";
layers = (
{
anchors = (
{
name = bottom;
pos = (324,0);
},
{
name = top;
pos = (352,700);
}
);
layerId = "73C3FB79-0E24-4863-9919-819B2F26AD09";
shapes = (
{
closed = 1;
nodes = (
(110,0,l),
(110,524,l),
(122,524,l),
(478,0,l),
(604,0,l),
(604,700,l),
(554,700,l),
(554,176,l),
(542,176,l),
(188,700,l),
(60,700,l),
(60,0,l)
);
}
);
width = 664;
},
{
anchors = (
{
name = bottom;
pos = (352,0);
},
{
name = top;
pos = (356,700);
}
);
layerId = "DF4F0C8E-2CF9-4068-955F-A12E64B8206D";
shapes = (
{
closed = 1;
nodes = (
(120,0,l),
(120,604,l),
(132,604,l),
(580,0,l),
(624,0,l),
(624,700,l),
(584,700,l),
(584,104,l),
(572,104,l),
(132,700,l),
(80,700,l),
(80,0,l)
);
}
);
width = 704;
},
{
anchors = (
{
name = bottom;
pos = (348,0);
},
{
name = top;
pos = (356,700);
}
);
associatedMasterId = "DF4F0C8E-2CF9-4068-955F-A12E64B8206D";
layerId = "87F7FFCA-5DD2-4736-A648-A86689B5E38F";
name = "9 dic 21, 12:12";
shapes = (
{
closed = 1;
nodes = (
(120,0,l),
(120,600,l),
(132,600,l),
(570,0,l),
(624,0,l),
(624,700,l),
(584,700,l),
(584,100,l),
(572,100,l),
(136,700,l),
(80,700,l),
(80,0,l)
);
}
);
width = 704;
}
);
metricLeft = H;
metricRight = H;
unicode = 78;
},
{
glyphname = O;
kernLeft = O;
kernRight = O;
lastChange = "2022-03-27 21:11:43 +0000";
layers = (
{
anchors = (
{
name = ogonek;
pos = (644,10);
},
{
name = top;
pos = (356,700);
}
);
layerId = "73C3FB79-0E24-4863-9919-819B2F26AD09";
shapes = (
{
closed = 1;
nodes = (
(551,-8,o),
(676,132,o),
(676,350,cs),
(676,568,o),
(551,708,o),
(356,708,cs),
(161,708,o),
(36,568,o),
(36,350,cs),
(36,132,o),
(161,-8,o),
(356,-8,cs)
);
},
{
closed = 1;
nodes = (
(180,168,o),
(78,234,o),
(78,348,cs),
(78,462,o),
(180,528,o),
(356,528,cs),
(532,528,o),
(634,462,o),
(634,348,cs),
(634,234,o),
(532,168,o),
(356,168,cs)
);
}
);
width = 712;
},
{
anchors = (
{
name = ogonek;
pos = (656,10);
},
{
name = top;
pos = (368,700);
}
);
layerId = "DF4F0C8E-2CF9-4068-955F-A12E64B8206D";
shapes = (
{
closed = 1;
nodes = (
(555,-8,o),
(688,140,o),
(688,350,cs),
(688,560,o),
(555,708,o),
(368,708,cs),
(181,708,o),
(48,560,o),
(48,350,cs),
(48,140,o),
(181,-8,o),
(368,-8,cs)
);
},
{
closed = 1;
nodes = (
(196,58,o),
(86,172,o),
(86,348,cs),
(86,526,o),
(196,640,o),
(368,640,cs),
(540,640,o),
(650,526,o),
(650,348,cs),
(650,172,o),
(540,58,o),
(368,58,cs)
);
}
);
width = 736;
}
);
metricRight = "=|O";
unicode = 79;
},
{
glyphname = Oslash;
kernLeft = O;
kernRight = O;
lastChange = "2022-02-16 12:15:56 +0000";
layers = (
{
background = {
shapes = (
{
closed = 1;
nodes = (
(47,0,l),
(102,0,l),
(698,706,l),
(644,706,l)
);
},
{
ref = O;
}
);
};
layerId = "73C3FB79-0E24-4863-9919-819B2F26AD09";
shapes = (
{
closed = 1;
nodes = (
(102,0,l),
(698,706,l),
(644,706,l),
(47,0,l)
);
},
{
ref = O;
}
);
width = 728;
},
{
layerId = "DF4F0C8E-2CF9-4068-955F-A12E64B8206D";
shapes = (
{
closed = 1;
nodes = (
(124,-8,l),
(678,708,l),
(630,708,l),
(78,-8,l)
);
},
{
ref = O;
}
);
width = 740;
}
);
unicode = 216;
},
{
glyphname = OE;
kernLeft = O;
kernRight = E;
lastChange = "2022-01-10 15:41:18 +0000";
layers = (
{
background = {
shapes = (
{
closed = 1;
nodes = (
(438,0,l),
(476,0,l),
(476,706,l),
(438,706,l)
);
},
{
closed = 1;
nodes = (
(418,0,l),
(840,0,l),
(840,148,l),
(418,148,l)
);
},
{
closed = 1;
nodes = (
(418,560,l),
(832,560,l),
(832,706,l),
(418,706,l)
);
},
{
closed = 1;
nodes = (
(764,351,l),
(764,312,l),
(476,312,l),
(476,351,l)
);
},
{
closed = 1;
nodes = (
(418,706,l),
(230,706,o),
(110,563,o),
(110,353,cs),
(110,143,o),
(230,0,o),
(418,0,c)
);
},
{
closed = 1;
nodes = (
(254,148,o),
(144,230,o),
(144,354,cs),
(144,478,o),
(254,560,o),
(418,560,c),
(418,148,l)
);
}
);
};
layerId = "73C3FB79-0E24-4863-9919-819B2F26AD09";
shapes = (
{
closed = 1;
nodes = (
(432,0,l),
(432,174,l),
(408,170,o),
(378,168,o),
(350,168,cs),
(178,168,o),
(78,234,o),
(78,348,cs),
(78,462,o),
(178,528,o),
(350,528,cs),
(378,528,o),
(408,526,o),
(432,522,c),
(432,700,l),
(348,700,ls),
(151,700,o),
(36,568,o),
(36,350,cs),
(36,132,o),
(151,0,o),
(348,0,cs)
);
},
{
closed = 1;
nodes = (
(836,0,l),
(836,172,l),
(462,172,l),
(462,0,l)
);
},
{
closed = 1;
nodes = (
(482,0,l),
(482,700,l),
(432,700,l),
(432,0,l)
);
},
{
closed = 1;
nodes = (
(796,324,l),
(796,372,l),
(462,372,l),
(462,324,l)
);
},
{
closed = 1;
nodes = (
(840,524,l),
(840,700,l),
(462,700,l),
(462,524,l)
);
}
);
width = 884;
},
{
layerId = "DF4F0C8E-2CF9-4068-955F-A12E64B8206D";
shapes = (
{
closed = 1;
nodes = (
(432,0,l),
(432,62,l),
(416,60,o),
(396,58,o),
(372,58,cs),
(198,58,o),
(86,172,o),
(86,348,cs),
(86,526,o),
(198,640,o),
(372,640,cs),
(396,640,o),
(416,638,o),
(432,636,c),
(432,700,l),
(366,700,ls),
(180,700,o),
(48,555,o),
(48,350,cs),
(48,145,o),
(180,0,o),
(366,0,cs)
);
},
{
closed = 1;
nodes = (
(816,0,l),
(816,62,l),
(452,62,l),
(452,0,l)
);
},
{
closed = 1;
nodes = (
(472,0,l),
(472,700,l),
(432,700,l),
(432,0,l)
);
},
{
closed = 1;
nodes = (
(780,329,l),
(780,367,l),
(452,367,l),
(452,329,l)
);
},
{
closed = 1;
nodes = (
(820,636,l),
(820,700,l),
(452,700,l),
(452,636,l)
);
}
);
width = 864;
}
);
metricLeft = O;
metricRight = E;
unicode = 338;
},
{
glyphname = P;
kernLeft = H;
kernRight = P;
lastChange = "2022-03-24 23:14:46 +0000";
layers = (
{
layerId = "73C3FB79-0E24-4863-9919-819B2F26AD09";
shapes = (
{
closed = 1;
nodes = (
(110,0,l),
(110,510,l),
(328,510,ls),
(429,510,o),
(488,461,o),
(488,376,cs),
(488,291,o),
(431,242,o),
(332,242,cs),
(90,242,l),
(90,194,l),
(328,194,ls),
(476,194,o),
(568,292,o),
(568,446,cs),
(568,602,o),
(478,700,o),
(332,700,cs),
(60,700,l),
(60,0,l)
);
}
);
width = 576;
},
{
layerId = "DF4F0C8E-2CF9-4068-955F-A12E64B8206D";
shapes = (
{
closed = 1;
nodes = (
(120,0,l),
(120,634,l),
(344,634,ls),
(446,634,o),
(512,569,o),
(512,468,cs),
(512,366,o),
(445,300,o),
(340,300,cs),
(100,300,l),
(100,260,l),
(332,260,ls),
(466,260,o),
(560,353,o),
(560,484,cs),
(560,611,o),
(467,700,o),
(336,700,cs),
(80,700,l),
(80,0,l)
);
}
);
width = 576;
},
{
associatedMasterId = "73C3FB79-0E24-4863-9919-819B2F26AD09";
layerId = "665EF849-2E03-44D5-A5C9-CC7CA6C5665E";
name = "27 gen 22, 15:14";
shapes = (
{
closed = 1;
nodes = (
(110,0,l),
(110,512,l),
(328,512,ls),
(430,512,o),
(484,470,o),
(484,390,cs),
(484,310,o),
(431,268,o),
(332,268,cs),
(90,268,l),
(90,220,l),
(324,220,ls),
(478,220,o),
(568,308,o),
(568,460,cs),
(568,612,o),
(480,700,o),
(328,700,cs),
(60,700,l),
(60,0,l)
);
}
);
width = 576;
}
);
metricLeft = H;
unicode = 80;
},
{
glyphname = Thorn;
kernLeft = H;
kernRight = Thorn;
lastChange = "2022-03-27 11:43:08 +0000";
layers = (
{
layerId = "DF4F0C8E-2CF9-4068-955F-A12E64B8206D";
shapes = (
{
closed = 1;
nodes = (
(340,128,ls),
(474,128,o),
(568,221,o),
(568,352,cs),
(568,479,o),
(475,568,o),
(344,568,cs),
(100,568,l),
(100,502,l),
(352,502,ls),
(454,502,o),
(520,437,o),
(520,336,cs),
(520,234,o),
(453,168,o),
(348,168,cs),
(100,168,l),
(100,128,l)
);
},
{
closed = 1;
nodes = (
(120,0,l),
(120,700,l),
(80,700,l),
(80,0,l)
);
}
);
width = 600;
},
{
layerId = "73C3FB79-0E24-4863-9919-819B2F26AD09";
shapes = (
{
closed = 1;
nodes = (
(356,108,ls),
(504,108,o),
(596,202,o),
(596,352,cs),
(596,504,o),
(504,598,o),
(358,598,cs),
(90,598,l),
(90,408,l),
(356,408,ls),
(457,408,o),
(516,362,o),
(516,282,cs),
(516,202,o),
(459,156,o),
(360,156,cs),
(90,156,l),
(90,108,l)
);
},
{
closed = 1;
nodes = (
(110,0,l),
(110,700,l),
(60,700,l),
(60,0,l)
);
}
);
width = 608;
},
{
associatedMasterId = "73C3FB79-0E24-4863-9919-819B2F26AD09";
layerId = "885A2C4B-C7E6-40F5-BF45-F916A0D34CDC";
name = "27 gen 22, 15:18";
shapes = (
{
closed = 1;
nodes = (
(312,104,ls),
(466,104,o),
(556,192,o),
(556,344,cs),
(556,496,o),
(468,584,o),
(316,584,cs),
(90,584,l),
(90,396,l),
(316,396,ls),
(418,396,o),
(472,354,o),
(472,274,cs),
(472,194,o),
(419,152,o),
(320,152,cs),
(90,152,l),
(90,104,l)
);
},
{
closed = 1;
nodes = (
(110,0,l),
(110,700,l),
(60,700,l),
(60,0,l)
);
}
);
width = 576;
}
);
metricLeft = H;
unicode = 222;
},
{
glyphname = Q;
kernLeft = O;
kernRight = O;
lastChange = "2022-02-16 17:01:22 +0000";
layers = (
{
layerId = "73C3FB79-0E24-4863-9919-819B2F26AD09";
shapes = (
{
closed = 1;
nodes = (
(384,-140,l),
(388,388,l),
(336,388,l),
(344,-140,l)
);
},
{
ref = O;
}
);
width = 712;
},
{
associatedMasterId = "73C3FB79-0E24-4863-9919-819B2F26AD09";
background = {
shapes = (
{
closed = 1;
nodes = (
(799,550,o),
(691,719,o),
(428,719,cs),
(191,719,o),
(48,579,o),
(48,358,cs),
(48,140,o),
(176,-13,o),
(432,-13,cs),
(507,-13,o),
(573,2,o),
(628,32,c),
(815,-97,l),
(863,-38,l),
(691,77,l),
(760,139,o),
(799,233,o),
(799,351,cs)
);
},
{
closed = 1;
nodes = (
(717,163,o),
(604,56,o),
(432,56,cs),
(247,56,o),
(130,171,o),
(130,361,cs),
(130,539,o),
(244,649,o),
(426,649,cs),
(606,649,o),
(717,544,o),
(717,352,cs)
);
}
);
};
layerId = "A41BD7C8-BFDE-4D47-A248-048CF06B49B2";
name = "Mar 28 17, 16:41";
shapes = (
{
closed = 1;
nodes = (
(36,145,o),
(183,-11,o),
(380,-10,cs),
(441,-10,o),
(526,21,o),
(577,62,c),
(615,-12,l),
(732,49,l),
(659,166,l),
(687,213,o),
(708,294,o),
(708,354,cs),
(708,563,o),
(564,719,o),
(372,717,cs),
(180,715,o),
(36,559,o),
(36,354,cs)
);
},
{
closed = 1;
nodes = (
(78,468,o),
(204,553,o),
(372,553,cs),
(540,553,o),
(666,468,o),
(666,354,cs),
(666,322,o),
(647,274,o),
(622,242,c),
(548,371,l),
(435,315,l),
(517,173,l),
(478,156,o),
(417,150,o),
(376,150,cs),
(206,149,o),
(78,236,o),
(78,354,cs)
);
}
);
width = 744;
},
{
associatedMasterId = "73C3FB79-0E24-4863-9919-819B2F26AD09";
background = {
shapes = (
{
closed = 1;
nodes = (
(799,550,o),
(691,719,o),
(428,719,cs),
(191,719,o),
(48,579,o),
(48,358,cs),
(48,140,o),
(176,-13,o),
(432,-13,cs),
(507,-13,o),
(573,2,o),
(628,32,c),
(815,-97,l),
(863,-38,l),
(691,77,l),
(760,139,o),
(799,233,o),
(799,351,cs)
);
},
{
closed = 1;
nodes = (
(717,163,o),
(604,56,o),
(432,56,cs),
(247,56,o),
(130,171,o),
(130,361,cs),
(130,539,o),
(244,649,o),
(426,649,cs),
(606,649,o),
(717,544,o),
(717,352,cs)
);
}
);
};
layerId = "AFB1BCAF-8520-456A-AEF2-DA3CB41BDFF0";
name = "Mar 29 17, 23:40";
shapes = (
{
closed = 1;
nodes = (
(564,-9,o),
(708,147,o),
(708,354,cs),
(708,563,o),
(564,719,o),
(372,717,cs),
(180,715,o),
(36,559,o),
(36,354,cs),
(36,145,o),
(180,-11,o),
(372,-10,cs)
);
},
{
closed = 1;
nodes = (
(204,157,o),
(78,241,o),
(78,354,cs),
(78,468,o),
(204,553,o),
(372,553,cs),
(540,553,o),
(666,468,o),
(666,354,cs),
(666,243,o),
(540,159,o),
(372,158,cs)
);
},
{
closed = 1;
nodes = (
(527,-44,o),
(463,1,o),
(463,61,c),
(423,61,l),
(422,-84,o),
(503,-193,o),
(612,-193,c),
(612,-45,l)
);
}
);
width = 744;
},
{
layerId = "DF4F0C8E-2CF9-4068-955F-A12E64B8206D";
shapes = (
{
closed = 1;
nodes = (
(386,-140,l),
(392,348,l),
(348,348,l),
(358,-140,l)
);
},
{
ref = O;
}
);
width = 736;
}
);
metricLeft = O;
metricRight = O;
unicode = 81;
},
{
glyphname = R;
kernLeft = H;
kernRight = R;
lastChange = "2022-02-16 15:25:48 +0000";
layers = (
{
anchors = (
{
name = bottom;
pos = (300,0);
},
{
name = top;
pos = (300,700);
}
);
layerId = "73C3FB79-0E24-4863-9919-819B2F26AD09";
shapes = (
{
closed = 1;
nodes = (
(110,0,l),
(110,524,l),
(352,524,ls),
(449,524,o),
(500,485,o),
(500,412,cs),
(500,336,o),
(447,296,o),
(348,296,cs),
(90,296,l),
(90,252,l),
(332,252,l),
(308,272,l),
(424,0,l),
(596,0,l),
(452,300,l),
(452,276,l),
(536,304,o),
(588,386,o),
(588,484,cs),
(588,614,o),
(500,700,o),
(368,700,cs),
(60,700,l),
(60,0,l)
);
}
);
width = 624;
},
{
anchors = (
{
name = bottom;
pos = (320,0);
},
{
name = top;
pos = (300,700);
}
);
layerId = "DF4F0C8E-2CF9-4068-955F-A12E64B8206D";
shapes = (
{
closed = 1;
nodes = (
(120,0,l),
(120,634,l),
(368,634,ls),
(465,634,o),
(528,574,o),
(528,480,cs),
(528,385,o),
(464,324,o),
(364,324,cs),
(100,324,l),
(100,286,l),
(388,286,l),
(368,302,l),
(520,0,l),
(584,0,l),
(428,304,l),
(416,296,l),
(516,316,o),
(576,392,o),
(576,492,cs),
(576,612,o),
(488,700,o),
(360,700,cs),
(80,700,l),
(80,0,l)
);
}
);
width = 624;
},
{
anchors = (
{
name = bottom;
pos = (324,0);
},
{
name = top;
pos = (300,700);
}
);
associatedMasterId = "73C3FB79-0E24-4863-9919-819B2F26AD09";
layerId = "81C96623-D7ED-481E-AA6E-A5E1DC9FFB26";
name = "27 dic 21, 15:11";
shapes = (
{
closed = 1;
nodes = (
(110,0,l),
(110,524,l),
(370,524,ls),
(452,524,o),
(500,482,o),
(500,410,cs),
(500,335,o),
(451,292,o),
(366,292,cs),
(78,292,l),
(78,244,l),
(336,244,ls),
(483,244,o),
(580,333,o),
(580,472,cs),
(580,611,o),
(485,700,o),
(340,700,cs),
(60,700,l),
(60,0,l)
);
},
{
closed = 1;
nodes = (
(600,0,l),
(460,280,l),
(284,264,l),
(396,0,l)
);
}
);
width = 624;
}
);
metricLeft = H;
unicode = 82;
},
{
glyphname = S;
kernLeft = S;
kernRight = S;
lastChange = "2022-03-27 21:19:27 +0000";
layers = (
{
anchors = (
{
name = bottom;
pos = (304,0);
},
{
name = top;
pos = (292,700);
}
);
layerId = "73C3FB79-0E24-4863-9919-819B2F26AD09";
shapes = (
{
closed = 1;
nodes = (
(471,-8,o),
(568,69,o),
(568,188,cs),
(568,292,o),
(492,363,o),
(368,372,cs),
(256,380,ls),
(185,385,o),
(142,413,o),
(142,456,cs),
(142,505,o),
(203,534,o),
(304,534,cs),
(417,534,o),
(496,498,o),
(518,436,c),
(548,440,l),
(548,602,o),
(444,708,o),
(284,708,cs),
(144,708,o),
(52,632,o),
(52,516,cs),
(52,417,o),
(119,347,o),
(224,340,cs),
(340,332,ls),
(428,326,o),
(480,295,o),
(480,248,cs),
(480,195,o),
(411,164,o),
(292,164,cs),
(164,164,o),
(76,200,o),
(64,260,c),
(32,254,l),
(32,88,o),
(144,-8,o),
(320,-8,cs)
);
}
);
width = 604;
},
{
associatedMasterId = "73C3FB79-0E24-4863-9919-819B2F26AD09";
background = {
shapes = (
{
closed = 1;
nodes = (
(36,115,o),
(161,-10,o),
(324,-10,cs),
(483,-10,o),
(602,95,o),
(602,234,cs),
(602,309,o),
(520,360,o),
(380,372,c),
(280,382,l),
(162,393,o),
(92,426,o),
(92,472,cs),
(92,526,o),
(190,562,o),
(320,562,cs),
(438,562,o),
(547,516,o),
(574,454,c),
(594,454,l),
(590,605,o),
(476,718,o),
(328,718,cs),
(170,718,o),
(52,616,o),
(52,476,cs),
(52,402,o),
(130,354,o),
(261,343,c),
(368,334,l),
(490,323,o),
(562,288,o),
(562,240,cs),
(562,180,o),
(462,142,o),
(328,142,cs),
(200,142,o),
(82,202,o),
(52,282,c),
(32,282,l)
);
}
);
};
layerId = "30966B73-E497-481C-82FD-C4A85F50EE7F";
name = "Nov 11 18, 12:26";
shapes = (
{
closed = 1;
nodes = (
(44,106,o),
(168,-10,o),
(332,-10,cs),
(484,-10,o),
(586,96,o),
(586,220,c),
(586,228,l),
(586,304,o),
(525,357,o),
(385,369,c),
(281,379,l),
(163,390,o),
(132,430,o),
(132,470,cs),
(132,522,o),
(206,568,o),
(336,568,cs),
(444,568,o),
(538,520,o),
(566,452,c),
(582,452,l),
(582,604,o),
(486,718,o),
(338,718,cs),
(192,718,o),
(80,630,o),
(80,498,c),
(80,490,l),
(80,416,o),
(129,353,o),
(261,343,c),
(369,335,l),
(491,324,o),
(538,288,o),
(538,240,cs),
(538,180,o),
(462,142,o),
(328,142,cs),
(200,142,o),
(96,186,o),
(60,274,c),
(44,274,l)
);
}
);
width = 626;
},
{
anchors = (
{
name = bottom;
pos = (308,0);
},
{
name = top;
pos = (292,700);
}
);
layerId = "DF4F0C8E-2CF9-4068-955F-A12E64B8206D";
shapes = (
{
closed = 1;
nodes = (
(452,-8,o),
(548,70,o),
(548,178,cs),
(548,269,o),
(479,340,o),
(372,356,cs),
(268,372,ls),
(171,387,o),
(114,437,o),
(114,510,cs),
(114,590,o),
(180,642,o),
(284,642,cs),
(400,642,o),
(480,576,o),
(492,472,c),
(522,476,l),
(522,612,o),
(424,708,o),
(284,708,cs),
(157,708,o),
(68,632,o),
(68,522,cs),
(68,427,o),
(137,357,o),
(244,340,cs),
(358,322,ls),
(449,308,o),
(500,257,o),
(500,190,cs),
(500,108,o),
(426,56,o),
(310,56,cs),
(176,56,o),
(82,125,o),
(70,232,c),
(44,230,l),
(48,91,o),
(161,-8,o),
(316,-8,cs)
);
}
);
width = 592;
}
);
unicode = 83;
},
{
color = 3;
glyphname = Germandbls;
kernLeft = Germandbls;
kernRight = Germandbls;
lastChange = "2022-04-13 07:03:29 +0000";
layers = (
{
layerId = "DF4F0C8E-2CF9-4068-955F-A12E64B8206D";
shapes = (
{
closed = 1;
nodes = (
(521,-8,o),
(604,64,o),
(604,166,cs),
(604,258,o),
(538,320,o),
(438,332,cs),
(342,344,o),
(284,400,o),
(284,480,cs),
(284,565,o),
(350,620,o),
(452,620,c),
(456,680,l),
(302,756,o),
(72,676,o),
(72,444,cs),
(72,0,l),
(112,0,l),
(112,436,ls),
(112,560,o),
(212,644,o),
(340,644,c),
(340,632,l),
(280,608,o),
(244,552,o),
(244,484,cs),
(244,387,o),
(313,317,o),
(420,304,cs),
(504,294,o),
(560,246,o),
(560,176,cs),
(560,104,o),
(499,58,o),
(404,58,cs),
(297,58,o),
(220,121,o),
(208,220,c),
(180,216,l),
(180,85,o),
(273,-8,o),
(404,-8,cs)
);
}
);
width = 620;
},
{
layerId = "73C3FB79-0E24-4863-9919-819B2F26AD09";
shapes = (
{
closed = 1;
nodes = (
(503,-8,o),
(586,67,o),
(586,172,cs),
(586,260,o),
(520,324,o),
(412,344,cs),
(358,354,o),
(324,391,o),
(324,440,cs),
(324,492,o),
(366,536,o),
(442,540,c),
(446,680,l),
(292,756,o),
(52,676,o),
(52,444,cs),
(52,0,l),
(102,0,l),
(102,388,ls),
(102,485,o),
(170,548,o),
(276,548,c),
(276,536,l),
(242,522,o),
(220,484,o),
(220,444,cs),
(220,376,o),
(280,328,o),
(380,312,cs),
(445,302,o),
(500,272,o),
(500,220,cs),
(500,171,o),
(448,140,o),
(368,140,cs),
(276,140,o),
(204,172,o),
(192,228,c),
(160,224,l),
(160,88,o),
(255,-8,o),
(386,-8,cs)
);
}
);
width = 606;
}
);
metricLeft = U;
unicode = 7838;
},
{
glyphname = T;
kernLeft = T;
kernRight = T;
lastChange = "2022-03-28 16:48:48 +0000";
layers = (
{
anchors = (
{
name = bottom;
pos = (292,0);
},
{
name = top;
pos = (292,700);
}
);
layerId = "73C3FB79-0E24-4863-9919-819B2F26AD09";
shapes = (
{
closed = 1;
nodes = (
(267,508,l),
(267,0,l),
(317,0,l),
(317,508,l),
(576,508,l),
(576,700,l),
(8,700,l),
(8,508,l)
);
}
);
width = 584;
},
{
anchors = (
{
name = bottom;
pos = (294,0);
},
{
name = top;
pos = (294,700);
}
);
layerId = "DF4F0C8E-2CF9-4068-955F-A12E64B8206D";
shapes = (
{
closed = 1;
nodes = (
(274,634,l),
(274,0,l),
(314,0,l),
(314,634,l),
(574,634,l),
(574,700,l),
(14,700,l),
(14,634,l)
);
}
);
width = 588;
}
);
metricRight = "=|";
unicode = 84;
},
{
glyphname = Tcedilla;
kernLeft = T;
kernRight = T;
lastChange = "2022-01-10 14:45:57 +0000";
layers = (
{
layerId = "DF4F0C8E-2CF9-4068-955F-A12E64B8206D";
shapes = (
{
closed = 1;
nodes = (
(334,-226,o),
(406,-200,o),
(406,-136,cs),
(406,-81,o),
(359,-57,o),
(284,-76,c),
(314,0,l),
(274,0,l),
(250,-104,l),
(262,-112,l),
(338,-92,o),
(378,-106,o),
(378,-134,cs),
(378,-167,o),
(322,-184,o),
(222,-164,c),
(222,-206,l)
);
},
{
ref = T;
}
);
width = 588;
},
{
layerId = "73C3FB79-0E24-4863-9919-819B2F26AD09";
shapes = (
{
closed = 1;
nodes = (
(337,-226,o),
(409,-200,o),
(409,-136,cs),
(409,-81,o),
(362,-57,o),
(287,-76,c),
(317,0,l),
(277,0,l),
(253,-104,l),
(265,-112,l),
(341,-92,o),
(381,-106,o),
(381,-134,cs),
(381,-167,o),
(325,-184,o),
(225,-164,c),
(225,-206,l)
);
},
{
ref = T;
}
);
width = 584;
}
);
metricLeft = T;
metricRight = T;
unicode = 354;
},
{
glyphname = U;
kernLeft = U;
kernRight = U;
lastChange = "2022-03-27 18:55:04 +0000";
layers = (
{
anchors = (
{
name = ogonek;
pos = (448,0);
},
{
name = top;
pos = (321,700);
}
);
layerId = "73C3FB79-0E24-4863-9919-819B2F26AD09";
shapes = (
{
closed = 1;
nodes = (
(486,-8,o),
(592,102,o),
(592,272,cs),
(592,700,l),
(542,700,l),
(542,344,ls),
(542,243,o),
(461,184,o),
(322,184,cs),
(183,184,o),
(102,243,o),
(102,344,cs),
(102,700,l),
(52,700,l),
(52,272,ls),
(52,102,o),
(158,-8,o),
(322,-8,cs)
);
}
);
width = 644;
},
{
anchors = (
{
name = ogonek;
pos = (452,0);
},
{
name = top;
pos = (336,700);
}
);
layerId = "DF4F0C8E-2CF9-4068-955F-A12E64B8206D";
shapes = (
{
closed = 1;
nodes = (
(497,-8,o),
(600,94,o),
(600,252,cs),
(600,700,l),
(560,700,l),
(560,268,ls),
(560,137,o),
(477,60,o),
(336,60,cs),
(195,60,o),
(112,137,o),
(112,268,cs),
(112,700,l),
(72,700,l),
(72,252,ls),
(72,94,o),
(175,-8,o),
(336,-8,cs)
);
}
);
width = 672;
}
);
metricLeft = "=H-8";
metricRight = "=|";
unicode = 85;
},
{
glyphname = Uogonek;
kernLeft = U;
kernRight = U;
lastChange = "2022-01-10 15:32:04 +0000";
layers = (
{
layerId = "DF4F0C8E-2CF9-4068-955F-A12E64B8206D";
shapes = (
{
closed = 1;
nodes = (
(488,-160,l),
(413,-180,o),
(364,-161,o),
(364,-112,cs),
(364,-68,o),
(402,-16,o),
(472,28,cs),
(548,76,o),
(600,160,o),
(600,252,cs),
(600,700,l),
(560,700,l),
(560,268,ls),
(560,137,o),
(477,60,o),
(336,60,cs),
(195,60,o),
(112,137,o),
(112,268,cs),
(112,700,l),
(72,700,l),
(72,252,ls),
(72,96,o),
(177,-4,o),
(340,-4,cs),
(356,-4,o),
(378,-3,o),
(396,0,c),
(396,-12,l),
(356,-40,o),
(324,-84,o),
(324,-128,cs),
(324,-194,o),
(392,-228,o),
(488,-204,c)
);
}
);
width = 672;
},
{
layerId = "73C3FB79-0E24-4863-9919-819B2F26AD09";
shapes = (
{
closed = 1;
nodes = (
(448,-152,l),
(372,-172,o),
(328,-158,o),
(328,-115,cs),
(328,-71,o),
(376,-20,o),
(464,28,cs),
(544,72,o),
(592,161,o),
(592,272,cs),
(592,700,l),
(542,700,l),
(542,344,ls),
(542,243,o),
(461,184,o),
(322,184,cs),
(183,184,o),
(102,243,o),
(102,344,cs),
(102,700,l),
(52,700,l),
(52,272,ls),
(52,102,o),
(158,-4,o),
(322,-4,cs),
(338,-4,o),
(356,-3,o),
(372,0,c),
(372,-10,l),
(324,-42,o),
(284,-86,o),
(284,-134,cs),
(284,-200,o),
(348,-228,o),
(448,-204,c)
);
}
);
width = 644;
}
);
metricLeft = U;
metricRight = U;
unicode = 370;
},
{
glyphname = V;
kernLeft = V;
kernRight = V;
lastChange = "2022-03-28 12:04:39 +0000";
layers = (
{
layerId = "DF4F0C8E-2CF9-4068-955F-A12E64B8206D";
shapes = (
{
closed = 1;
nodes = (
(335,0,l),
(602,700,l),
(558,700,l),
(324,64,l),
(312,64,l),
(70,700,l),
(4,700,l),
(279,0,l)
);
}
);
width = 608;
},
{
layerId = "73C3FB79-0E24-4863-9919-819B2F26AD09";
shapes = (
{
closed = 1;
nodes = (
(370,0,l),
(610,700,l),
(560,700,l),
(372,140,l),
(360,140,l),
(156,700,l),
(0,700,l),
(264,0,l)
);
}
);
width = 612;
},
{
associatedMasterId = "73C3FB79-0E24-4863-9919-819B2F26AD09";
layerId = "0692D7C4-22BF-4913-A205-65F6D2A0A2C6";
name = "15 feb 22, 16:16";
shapes = (
{
closed = 1;
nodes = (
(392,0,l),
(626,700,l),
(574,700,l),
(388,136,l),
(376,136,l),
(174,700,l),
(0,700,l),
(266,0,l)
);
}
);
width = 628;
},
{
associatedMasterId = "73C3FB79-0E24-4863-9919-819B2F26AD09";
layerId = "5A348C57-C6D6-4610-8535-A9143DB8C994";
name = "Nov 24 17, 17:40";
shapes = (
{
closed = 1;
nodes = (
(168,706,l),
(387,140,l),
(610,706,l),
(654,706,l),
(379,0,l),
(304,0,l),
(12,706,l)
);
}
);
width = 666;
}
);
metricRight = "=|+2";
note = "troppo nera";
unicode = 86;
},
{
glyphname = W;
kernLeft = V;
kernRight = V;
lastChange = "2022-02-16 15:25:10 +0000";
layers = (
{
layerId = "DF4F0C8E-2CF9-4068-955F-A12E64B8206D";
shapes = (
{
closed = 1;
nodes = (
(268,0,l),
(442,636,l),
(454,636,l),
(636,0,l),
(698,0,l),
(900,700,l),
(858,700,l),
(684,72,l),
(672,72,l),
(494,700,l),
(426,700,l),
(256,72,l),
(244,72,l),
(70,700,l),
(6,700,l),
(208,0,l)
);
}
);
width = 908;
},
{
layerId = "73C3FB79-0E24-4863-9919-819B2F26AD09";
shapes = (
{
closed = 1;
nodes = (
(284,0,l),
(426,552,l),
(438,552,l),
(588,0,l),
(688,0,l),
(860,700,l),
(812,700,l),
(683,168,l),
(671,168,l),
(526,700,l),
(422,700,l),
(287,176,l),
(275,176,l),
(144,700,l),
(2,700,l),
(186,0,l)
);
}
);
width = 864;
},
{
associatedMasterId = "73C3FB79-0E24-4863-9919-819B2F26AD09";
layerId = "0ABB0023-BDF6-4E8C-998B-BF5EE3778227";
name = "15 feb 22, 16:11";
shapes = (
{
closed = 1;
nodes = (
(296,0,l),
(428,552,l),
(440,552,l),
(580,0,l),
(696,0,l),
(868,700,l),
(820,700,l),
(692,168,l),
(680,168,l),
(544,700,l),
(424,700,l),
(298,176,l),
(286,176,l),
(160,700,l),
(2,700,l),
(182,0,l)
);
}
);
width = 872;
},
{
associatedMasterId = "73C3FB79-0E24-4863-9919-819B2F26AD09";
layerId = "3CD13DDB-C447-4C63-A90F-47D27D9EE14A";
name = "10 feb 22, 16:14";
shapes = (
{
closed = 1;
nodes = (
(322,0,l),
(454,540,l),
(466,540,l),
(608,0,l),
(728,0,l),
(918,700,l),
(868,700,l),
(730,180,l),
(718,180,l),
(576,700,l),
(452,700,l),
(323,180,l),
(311,180,l),
(172,700,l),
(2,700,l),
(204,0,l)
);
}
);
width = 922;
},
{
associatedMasterId = "73C3FB79-0E24-4863-9919-819B2F26AD09";
layerId = "A8813E3E-32F5-4055-A1D7-1A5FF9CC6697";
name = "27 gen 22, 15:43";
shapes = (
{
closed = 1;
nodes = (
(340,0,l),
(466,544,l),
(478,544,l),
(608,0,l),
(748,0,l),
(918,700,l),
(866,700,l),
(742,172,l),
(730,172,l),
(598,700,l),
(454,700,l),
(334,172,l),
(322,172,l),
(194,700,l),
(2,700,l),
(204,0,l)
);
}
);
width = 922;
}
);
metricLeft = "=V+2";
metricRight = "=V+2";
note = "troppo nera";
unicode = 87;
},
{
color = 3;
glyphname = X;
kernLeft = X;
kernRight = X;
lastChange = "2022-03-28 12:05:35 +0000";
layers = (
{
layerId = "DF4F0C8E-2CF9-4068-955F-A12E64B8206D";
name = Light;
shapes = (
{
closed = 1;
nodes = (
(56,0,l),
(268,312,l),
(280,312,l),
(496,0,l),
(570,0,l),
(310,368,l),
(538,700,l),
(490,700,l),
(293,408,l),
(281,408,l),
(80,700,l),
(4,700,l),
(250,352,l),
(8,0,l)
);
}
);
width = 572;
},
{
associatedMasterId = "DF4F0C8E-2CF9-4068-955F-A12E64B8206D";
layerId = "C9317FDF-7694-4C59-B461-5A016F0EDE37";
name = "10 dic 21, 15:48";
shapes = (
{
closed = 1;
nodes = (
(56,0,l),
(540,700,l),
(490,700,l),
(8,0,l)
);
},
{
closed = 1;
nodes = (
(568,0,l),
(80,700,l),
(4,700,l),
(492,0,l)
);
}
);
width = 572;
},
{
associatedMasterId = "DF4F0C8E-2CF9-4068-955F-A12E64B8206D";
layerId = "D0C26320-B131-436F-B811-0DB6B5C49197";
name = "10 dic 21, 15:48";
shapes = (
{
closed = 1;
nodes = (
(56,0,l),
(260,308,l),
(272,308,l),
(480,0,l),
(556,0,l),
(304,368,l),
(528,700,l),
(478,700,l),
(286,408,l),
(274,408,l),
(80,700,l),
(4,700,l),
(244,352,l),
(8,0,l)
);
}
);
width = 560;
},
{
background = {
shapes = (
{
closed = 1;
nodes = (
(646,0,l),
(192,700,l),
(0,700,l),
(456,0,l)
);
}
);
};
layerId = "73C3FB79-0E24-4863-9919-819B2F26AD09";
shapes = (
{
closed = 1;
nodes = (
(92,0,l),
(268,290,l),
(280,290,l),
(460,0,l),
(646,0,l),
(400,368,l),
(590,700,l),
(534,700,l),
(374,416,l),
(364,416,l),
(188,700,l),
(0,700,l),
(244,340,l),
(36,0,l)
);
}
);
width = 644;
},
{
associatedMasterId = "73C3FB79-0E24-4863-9919-819B2F26AD09";
background = {
shapes = (
{
closed = 1;
nodes = (
(620,0,l),
(208,700,l),
(2,700,l),
(416,0,l)
);
}
);
};
layerId = "8075CFE7-9F5C-4B90-A413-DE93A4D8991B";
name = "14 feb 22, 17:29";
shapes = (
{
closed = 1;
nodes = (
(78,0,l),
(243,276,l),
(255,276,l),
(416,0,l),
(620,0,l),
(402,366,l),
(578,700,l),
(522,700,l),
(378,420,l),
(368,420,l),
(208,700,l),
(2,700,l),
(222,332,l),
(20,0,l)
);
}
);
width = 620;
},
{
associatedMasterId = "73C3FB79-0E24-4863-9919-819B2F26AD09";
background = {
shapes = (
{
closed = 1;
nodes = (
(650,0,l),
(236,700,l),
(2,700,l),
(418,0,l)
);
}
);
};
layerId = "520D25E7-1AAA-4BB4-9ED0-984B0BCFBA14";
name = "25 gen 22, 13:49";
shapes = (
{
closed = 1;
nodes = (
(648,0,l),
(428,368,l),
(236,700,l),
(2,700,l),
(224,332,l),
(416,0,l)
);
},
{
closed = 1;
nodes = (
(78,0,l),
(245,276,l),
(257,276,l),
(428,368,l),
(608,700,l),
(550,700,l),
(403,428,l),
(391,428,l),
(224,332,l),
(20,0,l)
);
}
);
width = 648;
},
{
associatedMasterId = "73C3FB79-0E24-4863-9919-819B2F26AD09";
background = {
shapes = (
{
closed = 1;
nodes = (
(650,0,l),
(236,700,l),
(2,700,l),
(418,0,l)
);
}
);
};
layerId = "F5F996E4-1A23-4F62-8C9C-9CBA50BFC7E0";
name = "27 gen 22, 15:46";
shapes = (
{
closed = 1;
nodes = (
(78,0,l),
(247,280,l),
(259,280,l),
(420,0,l),
(648,0,l),
(428,368,l),
(608,700,l),
(550,700,l),
(401,424,l),
(389,424,l),
(232,700,l),
(2,700,l),
(224,336,l),
(20,0,l)
);
}
);
width = 648;
}
);
metricRight = "=|-2";
unicode = 88;
},
{
glyphname = Y;
kernLeft = Y;
kernRight = Y;
lastChange = "2022-03-28 16:53:18 +0000";
layers = (
{
anchors = (
{
name = top;
pos = (332,700);
}
);
layerId = "73C3FB79-0E24-4863-9919-819B2F26AD09";
shapes = (
{
closed = 1;
nodes = (
(346,0,l),
(346,188,l),
(600,700,l),
(548,700,l),
(374,344,l),
(362,344,l),
(176,700,l),
(-4,700,l),
(296,172,l),
(296,0,l)
);
}
);
width = 596;
},
{
anchors = (
{
name = top;
pos = (288,700);
}
);
layerId = "DF4F0C8E-2CF9-4068-955F-A12E64B8206D";
shapes = (
{
closed = 1;
nodes = (
(316,0,l),
(316,236,l),
(552,700,l),
(508,700,l),
(311,304,l),
(299,304,l),
(70,700,l),
(0,700,l),
(276,236,l),
(276,0,l)
);
}
);
width = 552;
},
{
anchors = (
{
name = top;
pos = (288,700);
}
);
associatedMasterId = "DF4F0C8E-2CF9-4068-955F-A12E64B8206D";
layerId = "F58264D1-FD3D-4B73-9424-CFD4E8986411";
name = "13 gen 22, 17:15";
shapes = (
{
closed = 1;
nodes = (
(312,0,l),
(312,236,l),
(552,700,l),
(508,700,l),
(309,308,l),
(297,308,l),
(70,700,l),
(0,700,l),
(272,236,l),
(272,0,l)
);
}
);
width = 552;
},
{
anchors = (
{
name = top;
pos = (286,700);
}
);
associatedMasterId = "73C3FB79-0E24-4863-9919-819B2F26AD09";
layerId = "E9754D14-0476-45E6-B560-BD1698EDD538";
name = "25 gen 22, 13:58";
shapes = (
{
closed = 1;
nodes = (
(334,0,l),
(334,176,l),
(568,700,l),
(514,700,l),
(372,374,l),
(360,374,l),
(210,700,l),
(-4,700,l),
(284,176,l),
(284,0,l)
);
}
);
width = 564;
}
);
metricRight = "=|";
unicode = 89;
},
{
glyphname = Yacute;
kernLeft = Y;
kernRight = Y;
lastChange = "2022-02-16 16:03:35 +0000";
layers = (
{
layerId = "73C3FB79-0E24-4863-9919-819B2F26AD09";
shapes = (
{
ref = Y;
},
{
pos = (132,140);
ref = acutecomb.case;
}
);
width = 596;
},
{
associatedMasterId = "73C3FB79-0E24-4863-9919-819B2F26AD09";
layerId = "3890A59A-16E9-423D-93DD-E2858455551A";
name = "Dec 1 17, 00:15";
shapes = (
{
closed = 1;
nodes = (
(372,386,l),
(307,248,l),
(8,706,l),
(168,706,l)
);
},
{
closed = 1;
nodes = (
(573,710,l),
(345,248,l),
(307,248,l),
(304,254,l),
(533,710,l)
);
},
{
closed = 1;
nodes = (
(345,248,l),
(345,0,l),
(307,0,l),
(307,248,l)
);
},
{
closed = 1;
nodes = (
(505,906,l),
(453,906,l),
(293,750,l),
(329,750,l)
);
}
);
width = 581;
},
{
layerId = "DF4F0C8E-2CF9-4068-955F-A12E64B8206D";
shapes = (
{
ref = Y;
},
{
pos = (88,140);
ref = acutecomb.case;
}
);
width = 552;
}
);
unicode = 221;
},
{
glyphname = Ydieresis;
kernLeft = Y;
kernRight = Y;
lastChange = "2022-02-16 16:03:35 +0000";
layers = (
{
layerId = "73C3FB79-0E24-4863-9919-819B2F26AD09";
shapes = (
{
ref = Y;
},
{
pos = (132,140);
ref = dieresiscomb.case;
}
);
width = 596;
},
{
associatedMasterId = "73C3FB79-0E24-4863-9919-819B2F26AD09";
layerId = "2BE91223-C5D6-43C0-8808-D26BE0AAAD60";
name = "Dec 1 17, 00:15";
shapes = (
{
closed = 1;
nodes = (
(372,386,l),
(307,248,l),
(8,706,l),
(168,706,l)
);
},
{
closed = 1;
nodes = (
(573,710,l),
(345,248,l),
(307,248,l),
(304,254,l),
(533,710,l)
);
},
{
closed = 1;
nodes = (
(345,248,l),
(345,0,l),
(307,0,l),
(307,248,l)
);
},
{
closed = 1;
nodes = (
(201,795,o),
(226,770,o),
(260,770,cs),
(295,770,o),
(320,795,o),
(319,828,cs),
(318,861,o),
(294,886,o),
(260,886,cs),
(226,886,o),
(201,861,o),
(201,828,cs)
);
},
{
closed = 1;
nodes = (
(371,795,o),
(396,770,o),
(430,770,cs),
(464,770,o),
(489,796,o),
(489,828,cs),
(489,861,o),
(464,886,o),
(430,886,cs),
(396,886,o),
(371,861,o),
(371,828,cs)
);
}
);
width = 581;
},
{
layerId = "DF4F0C8E-2CF9-4068-955F-A12E64B8206D";
shapes = (
{
ref = Y;
},
{
pos = (88,140);
ref = dieresiscomb.case;
}
);
width = 552;
}
);
unicode = 376;
},
{
glyphname = Z;
kernLeft = Z;
kernRight = Z;
lastChange = "2022-03-27 21:31:42 +0000";
layers = (
{
anchors = (
{
name = top;
pos = (292,700);
}
);
layerId = "73C3FB79-0E24-4863-9919-819B2F26AD09";
shapes = (
{
closed = 1;
nodes = (
(542,0,l),
(542,170,l),
(118,170,l),
(118,180,l),
(536,518,l),
(536,700,l),
(40,700,l),
(40,528,l),
(460,528,l),
(460,518,l),
(44,180,l),
(44,0,l)
);
}
);
width = 584;
},
{
anchors = (
{
name = top;
pos = (290,700);
}
);
layerId = "DF4F0C8E-2CF9-4068-955F-A12E64B8206D";
shapes = (
{
closed = 1;
nodes = (
(528,0,l),
(528,62,l),
(102,62,l),
(102,74,l),
(528,628,l),
(528,700,l),
(46,700,l),
(46,636,l),
(474,636,l),
(474,624,l),
(50,74,l),
(50,0,l)
);
}
);
width = 576;
}
);
metricRight = "=|+2";
unicode = 90;
},
{
glyphname = a;
kernLeft = a;
kernRight = n;
lastChange = "2022-03-28 12:25:11 +0000";
layers = (
{
anchors = (
{
name = ogonek;
pos = (434,0);
},
{
name = top;
pos = (250,520);
}
);
layerId = "DF4F0C8E-2CF9-4068-955F-A12E64B8206D";
shapes = (
{
closed = 1;
nodes = (
(434,0,l),
(434,336,ls),
(434,453,o),
(364,528,o),
(256,528,cs),
(155,528,o),
(82,462,o),
(70,360,c),
(98,356,l),
(113,425,o),
(174,470,o),
(254,470,cs),
(342,470,o),
(398,416,o),
(398,332,cs),
(398,200,l),
(386,107,o),
(312,48,o),
(210,48,cs),
(130,48,o),
(78,86,o),
(78,144,cs),
(78,200,o),
(123,236,o),
(194,236,cs),
(410,236,l),
(410,268,l),
(186,268,ls),
(94,268,o),
(34,215,o),
(34,135,cs),
(34,49,o),
(104,-8,o),
(206,-8,cs),
(306,-8,o),
(378,48,o),
(398,132,c),
(410,132,l),
(394,0,l)
);
}
);
width = 500;
},
{
associatedMasterId = "DF4F0C8E-2CF9-4068-955F-A12E64B8206D";
layerId = "E490A594-E5E7-4B0E-843D-D95E7E9F80EB";
name = "17 nov 21, 15:38";
shapes = (
{
closed = 1;
nodes = (
(416,0,l),
(416,296,ls),
(416,413,o),
(349,488,o),
(244,488,cs),
(147,488,o),
(77,425,o),
(64,326,c),
(88,324,l),
(105,387,o),
(165,428,o),
(240,428,cs),
(325,428,o),
(380,378,o),
(380,300,cs),
(380,120,l),
(388,120,l),
(380,0,l)
);
},
{
closed = 1;
nodes = (
(288,-8,o),
(360,44,o),
(380,120,c),
(380,188,l),
(368,108,o),
(300,52,o),
(200,52,cs),
(122,52,o),
(72,85,o),
(72,136,cs),
(72,182,o),
(111,212,o),
(172,212,cs),
(390,212,l),
(390,244,l),
(172,244,ls),
(89,244,o),
(36,197,o),
(36,124,cs),
(36,44,o),
(99,-8,o),
(196,-8,cs)
);
}
);
width = 476;
},
{
anchors = (
{
name = ogonek;
pos = (432,0);
},
{
name = top;
pos = (244,520);
}
);
layerId = "73C3FB79-0E24-4863-9919-819B2F26AD09";
shapes = (
{
closed = 1;
nodes = (
(432,0,l),
(432,316,ls),
(432,444,o),
(360,528,o),
(244,528,cs),
(132,528,o),
(56,448,o),
(52,328,c),
(82,322,l),
(94,358,o),
(152,376,o),
(234,376,cs),
(336,376,o),
(396,348,o),
(396,304,cs),
(396,200,l),
(384,164,o),
(325,140,o),
(232,140,cs),
(146,140,o),
(96,161,o),
(96,196,cs),
(96,221,o),
(121,236,o),
(164,236,cs),
(407,236,l),
(407,274,l),
(186,274,ls),
(85,274,o),
(20,220,o),
(20,136,cs),
(20,48,o),
(89,-8,o),
(196,-8,cs),
(310,-8,o),
(388,56,o),
(396,156,c),
(408,156,l),
(388,0,l)
);
}
);
width = 480;
},
{
anchors = (
{
name = ogonek;
pos = (428,0);
},
{
name = top;
pos = (232,520);
}
);
associatedMasterId = "73C3FB79-0E24-4863-9919-819B2F26AD09";
layerId = "22BEFFDD-FE14-49B5-9461-977B958AEE7A";
name = "19 gen 22, 17:40";
shapes = (
{
closed = 1;
nodes = (
(428,0,l),
(428,308,ls),
(428,442,o),
(354,528,o),
(240,528,cs),
(129,528,o),
(52,447,o),
(44,320,c),
(74,314,l),
(90,350,o),
(150,374,o),
(234,374,cs),
(334,374,o),
(392,340,o),
(392,284,cs),
(392,232,l),
(380,172,o),
(316,140,o),
(212,140,cs),
(131,140,o),
(90,158,o),
(90,192,cs),
(90,220,o),
(118,236,o),
(166,236,cs),
(403,236,l),
(403,274,l),
(182,274,ls),
(81,274,o),
(16,220,o),
(16,136,cs),
(16,48,o),
(84,-8,o),
(190,-8,cs),
(301,-8,o),
(380,56,o),
(392,156,c),
(404,156,l),
(384,0,l)
);
}
);
width = 476;
},
{
associatedMasterId = "73C3FB79-0E24-4863-9919-819B2F26AD09";
layerId = "D4C87FD5-67FC-44EB-9E47-1A1D35D79A70";
name = "17 nov 21, 16:33";
shapes = (
{
closed = 1;
nodes = (
(416,0,l),
(416,288,ls),
(416,412,o),
(352,488,o),
(248,488,cs),
(148,488,o),
(76,416,o),
(64,308,c),
(88,300,l),
(106,337,o),
(162,360,o),
(232,360,cs),
(322,360,o),
(380,322,o),
(380,264,cs),
(380,200,l),
(364,144,o),
(300,112,o),
(212,112,cs),
(137,112,o),
(88,135,o),
(88,172,cs),
(88,201,o),
(118,220,o),
(164,220,cs),
(390,220,l),
(390,252,l),
(176,252,ls),
(86,252,o),
(28,203,o),
(28,128,cs),
(28,45,o),
(92,-8,o),
(192,-8,cs),
(284,-8,o),
(360,40,o),
(380,120,c),
(388,120,l),
(380,0,l)
);
}
);
width = 468;
}
);
metricRight = n;
unicode = 97;
},
{
glyphname = aogonek;
kernLeft = a;
kernRight = a;
lastChange = "2022-01-22 13:30:07 +0000";
layers = (
{
layerId = "DF4F0C8E-2CF9-4068-955F-A12E64B8206D";
shapes = (
{
closed = 1;
nodes = (
(442,-160,l),
(372,-178,o),
(322,-159,o),
(322,-112,cs),
(322,-68,o),
(366,-26,o),
(430,0,c),
(390,0,l),
(326,-32,o),
(282,-80,o),
(282,-132,cs),
(282,-196,o),
(346,-228,o),
(442,-204,c)
);
},
{
ref = a;
}
);
width = 496;
},
{
layerId = "73C3FB79-0E24-4863-9919-819B2F26AD09";
shapes = (
{
closed = 1;
nodes = (
(432,-152,l),
(356,-172,o),
(312,-157,o),
(312,-112,cs),
(312,-69,o),
(356,-28,o),
(432,0,c),
(388,0,l),
(320,-28,o),
(268,-76,o),
(268,-134,cs),
(268,-198,o),
(332,-228,o),
(432,-204,c)
);
},
{
ref = a;
}
);
width = 480;
}
);
metricLeft = a;
unicode = 261;
},
{
glyphname = ae;
kernLeft = a;
kernRight = o;
lastChange = "2022-01-27 14:56:26 +0000";
layers = (
{
layerId = "73C3FB79-0E24-4863-9919-819B2F26AD09";
shapes = (
{
closed = 1;
nodes = (
(295,-8,o),
(371,47,o),
(390,132,c),
(402,132,l),
(435,44,o),
(507,-8,o),
(606,-8,cs),
(723,-8,o),
(796,64,o),
(804,188,c),
(776,192,l),
(756,164,o),
(692,146,o),
(612,146,cs),
(488,146,o),
(416,189,o),
(416,262,cs),
(416,333,o),
(481,374,o),
(592,374,cs),
(698,374,o),
(758,334,o),
(762,274,c),
(410,274,l),
(410,238,l),
(796,238,l),
(808,414,o),
(733,528,o),
(594,528,cs),
(502,528,o),
(434,472,o),
(410,384,c),
(398,384,l),
(383,469,o),
(318,528,o),
(232,528,cs),
(128,528,o),
(54,448,o),
(50,328,c),
(78,322,l),
(93,356,o),
(149,376,o),
(230,376,cs),
(325,376,o),
(380,347,o),
(380,296,cs),
(380,204,l),
(370,164,o),
(312,140,o),
(224,140,cs),
(140,140,o),
(96,162,o),
(96,196,cs),
(96,223,o),
(125,238,o),
(176,238,cs),
(391,238,l),
(391,274,l),
(186,274,ls),
(84,274,o),
(20,220,o),
(20,136,cs),
(20,48,o),
(89,-8,o),
(196,-8,cs)
);
}
);
width = 840;
},
{
layerId = "DF4F0C8E-2CF9-4068-955F-A12E64B8206D";
shapes = (
{
closed = 1;
nodes = (
(300,-8,o),
(376,48,o),
(396,136,c),
(408,136,l),
(436,48,o),
(510,-8,o),
(598,-8,cs),
(698,-8,o),
(774,63,o),
(788,164,c),
(764,168,l),
(742,96,o),
(673,50,o),
(594,50,cs),
(486,50,o),
(414,134,o),
(414,264,cs),
(414,388,o),
(481,468,o),
(584,468,cs),
(683,468,o),
(748,391,o),
(750,272,c),
(394,272,l),
(394,240,l),
(780,240,l),
(796,408,o),
(718,528,o),
(590,528,cs),
(510,528,o),
(440,480,o),
(416,400,c),
(404,400,l),
(388,478,o),
(329,528,o),
(252,528,cs),
(160,528,o),
(82,460,o),
(70,360,c),
(98,356,l),
(114,425,o),
(174,470,o),
(248,470,cs),
(326,470,o),
(382,416,o),
(382,332,cs),
(382,204,l),
(374,109,o),
(305,48,o),
(206,48,cs),
(128,48,o),
(78,86,o),
(78,146,cs),
(78,203,o),
(119,240,o),
(182,240,cs),
(402,240,l),
(402,272,l),
(174,272,ls),
(92,272,o),
(34,214,o),
(34,136,cs),
(34,52,o),
(106,-8,o),
(202,-8,cs)
);
}
);
width = 832;
}
);
metricLeft = a;
metricRight = o;
unicode = 230;
},
{
glyphname = b;
kernLeft = H;
kernRight = o;
lastChange = "2022-01-22 13:30:07 +0000";
layers = (
{
layerId = "73C3FB79-0E24-4863-9919-819B2F26AD09";
shapes = (
{
closed = 1;
nodes = (
(439,-8,o),
(528,98,o),
(528,264,cs),
(528,425,o),
(442,528,o),
(308,528,cs),
(202,528,o),
(124,467,o),
(108,372,c),
(96,372,l),
(108,750,l),
(60,750,l),
(60,0,l),
(104,0,l),
(92,120,l),
(104,120,l),
(130,42,o),
(207,-8,o),
(300,-8,cs)
);
},
{
closed = 1;
nodes = (
(215,150,o),
(146,165,o),
(104,192,c),
(104,284,l),
(120,336,o),
(192,366,o),
(300,366,cs),
(422,366,o),
(494,325,o),
(494,256,cs),
(494,189,o),
(420,150,o),
(292,150,cs)
);
}
);
width = 564;
},
{
layerId = "DF4F0C8E-2CF9-4068-955F-A12E64B8206D";
shapes = (
{
closed = 1;
nodes = (
(430,-8,o),
(528,106,o),
(528,268,cs),
(528,420,o),
(437,528,o),
(308,528,cs),
(217,528,o),
(140,473,o),
(116,396,c),
(104,396,l),
(120,750,l),
(76,750,l),
(76,0,l),
(112,0,l),
(100,84,l),
(112,84,l),
(148,28,o),
(217,-8,o),
(292,-8,cs)
);
},
{
closed = 1;
nodes = (
(220,50,o),
(148,80,o),
(112,136,c),
(112,336,l),
(136,416,o),
(211,468,o),
(304,468,cs),
(420,468,o),
(494,387,o),
(494,260,cs),
(494,131,o),
(416,50,o),
(296,50,cs)
);
}
);
width = 572;
},
{
associatedMasterId = "73C3FB79-0E24-4863-9919-819B2F26AD09";
layerId = "88E3065B-80F3-4385-B772-B4FB8E24D331";
name = "19 gen 22, 18:01";
shapes = (
{
closed = 1;
nodes = (
(435,-8,o),
(524,97,o),
(524,260,cs),
(524,423,o),
(439,528,o),
(306,528,cs),
(205,528,o),
(128,467,o),
(108,372,c),
(96,372,l),
(108,750,l),
(60,750,l),
(60,0,l),
(104,0,l),
(92,108,l),
(104,108,l),
(137,35,o),
(208,-8,o),
(296,-8,cs)
);
},
{
closed = 1;
nodes = (
(222,148,o),
(149,167,o),
(104,200,c),
(104,280,l),
(136,334,o),
(212,366,o),
(310,366,cs),
(424,366,o),
(490,326,o),
(490,258,cs),
(490,189,o),
(421,148,o),
(302,148,cs)
);
}
);
width = 560;
}
);
metricLeft = l;
metricRight = o;
unicode = 98;
},
{
glyphname = c;
kernLeft = o;
kernRight = o;
lastChange = "2022-01-22 13:30:07 +0000";
layers = (
{
anchors = (
{
name = bottom;
pos = (268,0);
},
{
name = top;
pos = (268,520);
}
);
layerId = "73C3FB79-0E24-4863-9919-819B2F26AD09";
shapes = (
{
closed = 1;
nodes = (
(411,-8,o),
(496,76,o),
(498,206,c),
(468,210,l),
(448,170,o),
(381,150,o),
(282,150,cs),
(148,150,o),
(70,188,o),
(70,260,cs),
(70,331,o),
(145,368,o),
(274,368,cs),
(374,368,o),
(442,344,o),
(458,304,c),
(488,306,l),
(484,442,o),
(396,528,o),
(268,528,cs),
(127,528,o),
(36,425,o),
(36,262,cs),
(36,98,o),
(132,-8,o),
(280,-8,cs)
);
}
);
width = 532;
},
{
anchors = (
{
name = bottom;
pos = (280,0);
},
{
name = top;
pos = (268,520);
}
);
layerId = "DF4F0C8E-2CF9-4068-955F-A12E64B8206D";
shapes = (
{
closed = 1;
nodes = (
(394,-8,o),
(478,72,o),
(490,192,c),
(466,196,l),
(446,107,o),
(371,50,o),
(274,50,cs),
(155,50,o),
(78,132,o),
(78,260,cs),
(78,387,o),
(153,468,o),
(270,468,cs),
(367,468,o),
(440,409,o),
(456,318,c),
(482,320,l),
(478,444,o),
(390,528,o),
(274,528,cs),
(139,528,o),
(44,417,o),
(44,260,cs),
(44,103,o),
(140,-8,o),
(276,-8,cs)
);
}
);
width = 532;
},
{
anchors = (
{
name = bottom;
pos = (268,0);
},
{
name = top;
pos = (268,520);
}
);
associatedMasterId = "73C3FB79-0E24-4863-9919-819B2F26AD09";
layerId = "2E87BE0E-02B4-4764-9A43-67D31EA240E9";
name = "19 gen 22, 18:26";
shapes = (
{
closed = 1;
nodes = (
(408,-8,o),
(494,84,o),
(498,220,c),
(470,224,l),
(452,173,o),
(379,146,o),
(272,146,cs),
(144,146,o),
(70,187,o),
(70,258,cs),
(70,330,o),
(142,372,o),
(264,372,cs),
(370,372,o),
(442,338,o),
(458,286,c),
(488,288,l),
(484,436,o),
(398,528,o),
(266,528,cs),
(126,528,o),
(36,423,o),
(36,260,cs),
(36,97,o),
(128,-8,o),
(272,-8,cs)
);
}
);
width = 532;
}
);
metricLeft = o;
metricRight = "=o-2";
unicode = 99;
},
{
glyphname = ccedilla;
kernLeft = o;
kernRight = o;
lastChange = "2022-01-22 13:30:07 +0000";
layers = (
{
layerId = "73C3FB79-0E24-4863-9919-819B2F26AD09";
shapes = (
{
ref = c;
},
{
pos = (68,0);
ref = cedillacomb;
}
);
width = 532;
},
{
associatedMasterId = "73C3FB79-0E24-4863-9919-819B2F26AD09";
layerId = "7991E0C3-DF3C-4ECF-8592-8CBE9E913C99";
name = "Nov 19 17, 20:09";
shapes = (
{
closed = 1;
nodes = (
(469,207,l),
(452,164,o),
(361,132,o),
(267,132,cs),
(153,132,o),
(68,180,o),
(68,244,cs),
(68,304,o),
(153,349,o),
(267,349,cs),
(355,349,o),
(445,320,o),
(465,275,c),
(481,275,l),
(468,401,o),
(393,495,o),
(273,495,cs),
(138,495,o),
(36,387,o),
(36,242,cs),
(36,98,o),
(135,-10,o),
(267,-10,cs),
(387,-10,o),
(472,83,o),
(485,207,c)
);
},
{
closed = 1;
nodes = (
(249,-88,l),
(266,-88,o),
(279,-98,o),
(279,-110,cs),
(279,-126,o),
(256,-136,o),
(225,-136,c),
(205,-136,l),
(195,-216,l),
(209,-216,l),
(272,-216,o),
(319,-177,o),
(319,-124,cs),
(319,-88,o),
(297,-60,o),
(267,-58,c),
(231,-58,l),
(215,-88,l)
);
},
{
closed = 1;
nodes = (
(253,-88,l),
(297,4,l),
(259,4,l),
(215,-88,l)
);
}
);
width = 521;
},
{
layerId = "DF4F0C8E-2CF9-4068-955F-A12E64B8206D";
shapes = (
{
ref = c;
},
{
pos = (76,0);
ref = cedillacomb;
}
);
width = 532;
}
);
unicode = 231;
},
{
glyphname = d;
kernLeft = o;
kernRight = H;
lastChange = "2022-01-22 13:30:07 +0000";
layers = (
{
anchors = (
{
name = topright;
pos = (496,520);
}
);
layerId = "DF4F0C8E-2CF9-4068-955F-A12E64B8206D";
shapes = (
{
closed = 1;
nodes = (
(358,-8,o),
(432,44,o),
(456,124,c),
(468,124,l),
(456,0,l),
(496,0,l),
(496,750,l),
(452,750,l),
(472,432,l),
(460,432,l),
(432,488,o),
(358,528,o),
(278,528,cs),
(142,528,o),
(44,415,o),
(44,256,cs),
(44,101,o),
(134,-8,o),
(266,-8,cs)
);
},
{
closed = 1;
nodes = (
(156,50,o),
(78,132,o),
(78,260,cs),
(78,387,o),
(156,468,o),
(274,468,cs),
(350,468,o),
(424,434,o),
(460,382,c),
(460,180,l),
(438,100,o),
(364,50,o),
(274,50,cs)
);
}
);
width = 572;
},
{
anchors = (
{
name = topright;
pos = (504,520);
}
);
layerId = "73C3FB79-0E24-4863-9919-819B2F26AD09";
shapes = (
{
closed = 1;
nodes = (
(365,-8,o),
(440,52,o),
(456,148,c),
(468,148,l),
(460,0,l),
(504,0,l),
(504,750,l),
(456,750,l),
(472,400,l),
(460,400,l),
(434,478,o),
(357,528,o),
(264,528,cs),
(125,528,o),
(36,422,o),
(36,256,cs),
(36,92,o),
(124,-8,o),
(260,-8,cs)
);
},
{
closed = 1;
nodes = (
(142,150,o),
(70,191,o),
(70,260,cs),
(70,327,o),
(144,366,o),
(272,366,cs),
(349,366,o),
(418,351,o),
(460,324,c),
(460,232,l),
(444,180,o),
(372,150,o),
(264,150,cs)
);
}
);
width = 564;
},
{
anchors = (
{
name = topright;
pos = (500,520);
}
);
associatedMasterId = "73C3FB79-0E24-4863-9919-819B2F26AD09";
layerId = "2013088A-5910-4A29-AE85-0577F1965FD9";
name = "20 gen 22, 14:45";
shapes = (
{
closed = 1;
nodes = (
(359,-8,o),
(431,49,o),
(452,148,c),
(464,148,l),
(456,0,l),
(500,0,l),
(500,750,l),
(452,750,l),
(468,412,l),
(456,412,l),
(429,483,o),
(353,528,o),
(264,528,cs),
(124,528,o),
(36,422,o),
(36,256,cs),
(36,95,o),
(122,-8,o),
(256,-8,cs)
);
},
{
closed = 1;
nodes = (
(141,148,o),
(70,188,o),
(70,256,cs),
(70,325,o),
(141,366,o),
(262,366,cs),
(340,366,o),
(411,347,o),
(456,314,c),
(456,222,l),
(429,175,o),
(358,148,o),
(262,148,cs)
);
}
);
width = 560;
},
{
anchors = (
{
name = topright;
pos = (504,520);
}
);
associatedMasterId = "73C3FB79-0E24-4863-9919-819B2F26AD09";
layerId = "2A1D846A-15C3-4F33-8824-F185BA10EE02";
name = "20 dic 21, 15:52";
shapes = (
{
closed = 1;
nodes = (
(358,-8,o),
(441,50,o),
(464,132,c),
(476,132,l),
(464,0,l),
(504,0,l),
(504,750,l),
(468,750,l),
(480,432,l),
(468,432,l),
(429,490,o),
(353,528,o),
(272,528,cs),
(134,528,o),
(36,414,o),
(36,252,cs),
(36,100,o),
(130,-8,o),
(264,-8,cs)
);
},
{
closed = 1;
nodes = (
(142,128,o),
(68,178,o),
(68,256,cs),
(68,336,o),
(146,388,o),
(268,388,cs),
(351,388,o),
(429,363,o),
(468,324,c),
(468,248,l),
(448,175,o),
(365,128,o),
(256,128,cs)
);
}
);
width = 564;
}
);
metricLeft = o;
metricRight = l;
unicode = 100;
},
{
color = 3;
glyphname = eth;
kernLeft = o;
kernRight = eth;
lastChange = "2022-03-27 11:58:48 +0000";
layers = (
{
layerId = "DF4F0C8E-2CF9-4068-955F-A12E64B8206D";
shapes = (
{
closed = 1;
nodes = (
(402,-8,o),
(502,131,o),
(502,328,cs),
(502,442,o),
(465,546,o),
(408,624,c),
(408,636,l),
(484,654,l),
(472,706,l),
(364,676,l),
(324,720,o),
(264,748,o),
(208,760,c),
(200,720,l),
(244,712,o),
(284,698,o),
(316,678,c),
(316,666,l),
(220,642,l),
(232,590,l),
(368,628,l),
(428,558,o),
(472,456,o),
(472,340,cs),
(472,164,o),
(391,50,o),
(264,50,cs),
(151,50,o),
(78,135,o),
(78,268,cs),
(78,402,o),
(156,488,o),
(276,488,cs),
(363,488,o),
(441,441,o),
(476,368,c),
(476,404,l),
(445,477,o),
(363,528,o),
(276,528,cs),
(140,528,o),
(44,415,o),
(44,255,cs),
(44,101,o),
(133,-8,o),
(260,-8,cs)
);
}
);
width = 548;
},
{
background = {
shapes = (
{
closed = 1;
nodes = (
(444,-8,o),
(548,132,o),
(548,340,cs),
(548,528,o),
(444,688,o),
(264,760,c),
(236,708,l),
(408,642,o),
(512,511,o),
(512,368,cs),
(512,237,o),
(429,160,o),
(288,160,cs),
(171,160,o),
(102,214,o),
(102,306,cs),
(102,401,o),
(172,456,o),
(292,456,cs),
(401,456,o),
(485,404,o),
(520,316,c),
(528,368,l),
(492,444,o),
(404,492,o),
(296,492,cs),
(138,492,o),
(36,395,o),
(36,244,cs),
(36,91,o),
(130,-8,o),
(276,-8,cs)
);
},
{
closed = 1;
nodes = (
(548,564,l),
(524,732,l),
(212,676,l),
(236,508,l)
);
}
);
};
layerId = "73C3FB79-0E24-4863-9919-819B2F26AD09";
shapes = (
{
closed = 1;
nodes = (
(444,-8,o),
(548,128,o),
(548,336,cs),
(548,408,o),
(532,482,o),
(500,546,c),
(500,558,l),
(548,564,l),
(524,732,l),
(367,704,l),
(336,726,o),
(302,745,o),
(264,760,c),
(236,708,l),
(247,705,o),
(258,701,o),
(268,696,c),
(268,684,l),
(212,676,l),
(236,512,l),
(453,547,l),
(497,483,o),
(512,424,o),
(512,368,cs),
(512,237,o),
(429,160,o),
(288,160,cs),
(171,160,o),
(102,214,o),
(102,306,cs),
(102,401,o),
(172,456,o),
(292,456,cs),
(400,456,o),
(485,404,o),
(520,316,c),
(528,368,l),
(488,444,o),
(404,492,o),
(296,492,cs),
(138,492,o),
(36,395,o),
(36,244,cs),
(36,91,o),
(130,-8,o),
(276,-8,cs)
);
}
);
width = 592;
},
{
associatedMasterId = "DF4F0C8E-2CF9-4068-955F-A12E64B8206D";
layerId = "D69D540E-C90B-4543-B076-E9AFAED95524";
name = "10 dic 21, 16:05";
shapes = (
{
closed = 1;
nodes = (
(402,-8,o),
(502,131,o),
(502,328,cs),
(502,544,o),
(381,723,o),
(210,760,c),
(202,720,l),
(366,688,o),
(472,539,o),
(472,340,cs),
(472,164,o),
(391,50,o),
(264,50,cs),
(151,50,o),
(78,135,o),
(78,268,cs),
(78,402,o),
(156,488,o),
(276,488,cs),
(363,488,o),
(441,441,o),
(476,368,c),
(476,404,l),
(445,477,o),
(363,528,o),
(276,528,cs),
(140,528,o),
(44,415,o),
(44,255,cs),
(44,101,o),
(133,-8,o),
(260,-8,cs)
);
},
{
closed = 1;
nodes = (
(488,654,l),
(476,712,l),
(216,642,l),
(228,586,l)
);
}
);
width = 548;
},
{
associatedMasterId = "73C3FB79-0E24-4863-9919-819B2F26AD09";
background = {
shapes = (
{
closed = 1;
nodes = (
(444,-8,o),
(548,132,o),
(548,340,cs),
(548,528,o),
(444,688,o),
(264,760,c),
(236,708,l),
(408,642,o),
(512,511,o),
(512,368,cs),
(512,237,o),
(429,160,o),
(288,160,cs),
(171,160,o),
(102,214,o),
(102,306,cs),
(102,401,o),
(172,456,o),
(292,456,cs),
(401,456,o),
(485,404,o),
(520,316,c),
(528,368,l),
(492,444,o),
(404,492,o),
(296,492,cs),
(138,492,o),
(36,395,o),
(36,244,cs),
(36,91,o),
(130,-8,o),
(276,-8,cs)
);
},
{
closed = 1;
nodes = (
(548,564,l),
(524,732,l),
(212,676,l),
(236,508,l)
);
}
);
};
layerId = "554BDEBB-62B0-4AA7-B921-12A5E77319D1";
name = "16 feb 22, 14:38";
shapes = (
{
closed = 1;
nodes = (
(444,-8,o),
(548,132,o),
(548,340,cs),
(548,528,o),
(444,688,o),
(264,760,c),
(236,708,l),
(408,642,o),
(512,511,o),
(512,368,cs),
(512,237,o),
(429,160,o),
(288,160,cs),
(171,160,o),
(102,214,o),
(102,306,cs),
(102,401,o),
(172,456,o),
(292,456,cs),
(401,456,o),
(485,404,o),
(520,316,c),
(528,368,l),
(492,444,o),
(404,492,o),
(296,492,cs),
(138,492,o),
(36,395,o),
(36,244,cs),
(36,91,o),
(130,-8,o),
(276,-8,cs)
);
},
{
closed = 1;
nodes = (
(548,564,l),
(524,732,l),
(212,676,l),
(236,508,l)
);
}
);
width = 592;
}
);
metricLeft = o;
unicode = 240;
},
{
color = 3;
glyphname = dcroat;
kernLeft = o;
kernRight = Hbar;
lastChange = "2022-02-19 14:10:00 +0000";
layers = (
{
layerId = "DF4F0C8E-2CF9-4068-955F-A12E64B8206D";
shapes = (
{
closed = 1;
nodes = (
(364,-8,o),
(436,40,o),
(460,124,c),
(472,124,l),
(460,0,l),
(500,0,l),
(500,750,l),
(460,750,l),
(464,180,l),
(442,101,o),
(369,50,o),
(278,50,cs),
(160,50,o),
(84,134,o),
(84,264,cs),
(84,403,o),
(164,492,o),
(288,492,cs),
(371,492,o),
(447,450,o),
(482,384,c),
(482,424,l),
(454,486,o),
(376,528,o),
(288,528,cs),
(145,528,o),
(44,415,o),
(44,256,cs),
(44,101,o),
(136,-8,o),
(272,-8,cs)
);
},
{
closed = 1;
nodes = (
(556,636,l),
(556,690,l),
(284,690,l),
(284,636,l)
);
}
);
width = 580;
},
{
layerId = "73C3FB79-0E24-4863-9919-819B2F26AD09";
shapes = (
{
closed = 1;
nodes = (
(380,-8,o),
(458,40,o),
(476,120,c),
(488,120,l),
(480,0,l),
(524,0,l),
(524,750,l),
(476,750,l),
(480,240,l),
(465,187,o),
(402,156,o),
(308,156,cs),
(184,156,o),
(112,211,o),
(112,304,cs),
(112,397,o),
(181,452,o),
(300,452,cs),
(401,452,o),
(475,411,o),
(500,340,c),
(500,392,l),
(476,453,o),
(396,492,o),
(296,492,cs),
(138,492,o),
(36,393,o),
(36,240,cs),
(36,89,o),
(130,-8,o),
(276,-8,cs)
);
},
{
closed = 1;
nodes = (
(580,550,l),
(580,714,l),
(232,714,l),
(232,550,l)
);
}
);
width = 592;
},
{
associatedMasterId = "DF4F0C8E-2CF9-4068-955F-A12E64B8206D";
layerId = "F5BD2A96-EA64-4932-BD00-A2BBA464D92D";
name = "21 gen 22, 11:19";
shapes = (
{
closed = 1;
nodes = (
(358,-8,o),
(432,44,o),
(456,124,c),
(468,124,l),
(456,0,l),
(496,0,l),
(496,750,l),
(452,750,l),
(472,432,l),
(460,432,l),
(432,488,o),
(358,528,o),
(278,528,cs),
(142,528,o),
(44,415,o),
(44,256,cs),
(44,101,o),
(134,-8,o),
(266,-8,cs)
);
},
{
closed = 1;
nodes = (
(156,50,o),
(78,132,o),
(78,260,cs),
(78,387,o),
(156,468,o),
(274,468,cs),
(350,468,o),
(424,434,o),
(460,382,c),
(460,180,l),
(438,100,o),
(364,50,o),
(274,50,cs)
);
},
{
closed = 1;
nodes = (
(554,636,l),
(554,690,l),
(282,690,l),
(282,636,l)
);
}
);
width = 576;
}
);
metricLeft = o;
metricRight = Hbar;
unicode = 273;
},
{
glyphname = e;
kernLeft = o;
kernRight = o;
lastChange = "2022-03-28 12:22:05 +0000";
layers = (
{
anchors = (
{
name = ogonek;
pos = (392,0);
},
{
name = top;
pos = (264,520);
}
);
layerId = "DF4F0C8E-2CF9-4068-955F-A12E64B8206D";
shapes = (
{
closed = 1;
nodes = (
(384,-8,o),
(470,63,o),
(484,164,c),
(460,168,l),
(437,95,o),
(365,48,o),
(276,48,cs),
(156,48,o),
(78,131,o),
(78,260,cs),
(78,388,o),
(151,470,o),
(264,470,cs),
(373,470,o),
(444,392,o),
(446,272,c),
(58,272,l),
(58,240,l),
(476,240,l),
(492,408,o),
(405,528,o),
(266,528,cs),
(134,528,o),
(44,418,o),
(44,262,cs),
(44,104,o),
(140,-8,o),
(276,-8,cs)
);
}
);
width = 528;
},
{
anchors = (
{
name = ogonek;
pos = (412,0);
},
{
name = top;
pos = (266,520);
}
);
layerId = "73C3FB79-0E24-4863-9919-819B2F26AD09";
shapes = (
{
closed = 1;
nodes = (
(403,-8,o),
(488,72,o),
(492,196,c),
(462,200,l),
(442,165,o),
(377,144,o),
(284,144,cs),
(149,144,o),
(70,187,o),
(70,260,cs),
(70,331,o),
(140,372,o),
(260,372,cs),
(372,372,o),
(444,334,o),
(448,274,c),
(50,274,l),
(50,238,l),
(484,238,l),
(492,414,o),
(410,528,o),
(266,528,cs),
(126,528,o),
(36,423,o),
(36,260,cs),
(36,97,o),
(130,-8,o),
(276,-8,cs)
);
}
);
width = 528;
},
{
anchors = (
{
name = ogonek;
pos = (376,0);
},
{
name = top;
pos = (266,520);
}
);
associatedMasterId = "73C3FB79-0E24-4863-9919-819B2F26AD09";
layerId = "D58DFA6E-7BA6-471A-8E53-8F4509D98772";
name = "20 gen 22, 16:54";
shapes = (
{
closed = 1;
nodes = (
(399,-8,o),
(484,72,o),
(492,196,c),
(464,204,l),
(444,168,o),
(376,144,o),
(276,144,cs),
(146,144,o),
(70,187,o),
(70,260,cs),
(70,332,o),
(140,374,o),
(260,374,cs),
(364,374,o),
(434,340,o),
(450,276,c),
(50,276,l),
(50,238,l),
(484,238,l),
(496,414,o),
(411,528,o),
(266,528,cs),
(126,528,o),
(36,423,o),
(36,260,cs),
(36,97,o),
(129,-8,o),
(274,-8,cs)
);
}
);
width = 528;
},
{
associatedMasterId = "73C3FB79-0E24-4863-9919-819B2F26AD09";
background = {
shapes = (
{
closed = 1;
nodes = (
(495,157,l),
(476,96,o),
(412,64,o),
(335,64,cs),
(229,64,o),
(141,111,o),
(140,228,c),
(592,228,l),
(591,400,o),
(500,505,o),
(322,505,cs),
(151,505,o),
(41,408,o),
(41,251,cs),
(41,87,o),
(141,-13,o),
(333,-13,cs),
(458,-13,o),
(552,42,o),
(588,131,c)
);
},
{
closed = 1;
nodes = (
(142,298,l),
(152,386,o),
(219,432,o),
(323,432,cs),
(433,432,o),
(482,374,o),
(488,298,c)
);
}
);
};
layerId = "D04C1795-C1E2-4191-B3EB-DA2F7ACE92BA";
name = "Apr 27 17, 21:39";
shapes = (
{
closed = 1;
nodes = (
(66,228,l),
(483,228,l),
(483,268,l),
(66,268,l)
);
},
{
closed = 1;
nodes = (
(508,228,l),
(508,233,o),
(508,245,o),
(508,250,cs),
(508,392,o),
(416,497,o),
(293,496,cs),
(150,495,o),
(42,384,o),
(42,236,cs),
(42,94,o),
(150,-12,o),
(293,-11,cs),
(391,-10,o),
(484,69,o),
(510,174,c),
(474,174,l),
(430,147,o),
(349,126,o),
(285,125,cs),
(169,126,o),
(82,175,o),
(82,240,cs),
(82,313,o),
(169,368,o),
(285,368,cs),
(394,368,o),
(474,308,o),
(470,228,c)
);
}
);
width = 552;
},
{
associatedMasterId = "73C3FB79-0E24-4863-9919-819B2F26AD09";
background = {
shapes = (
{
closed = 1;
nodes = (
(464,203,l),
(449,154,o),
(365,118,o),
(268,118,cs),
(155,118,o),
(70,172,o),
(70,244,cs),
(70,312,o),
(153,363,o),
(264,363,cs),
(355,363,o),
(437,319,o),
(454,261,c),
(454,225,l),
(480,225,l),
(481,234,o),
(482,248,o),
(482,257,cs),
(482,393,o),
(389,495,o),
(266,495,cs),
(136,495,o),
(38,387,o),
(38,244,cs),
(38,99,o),
(138,-10,o),
(272,-10,cs),
(388,-10,o),
(477,81,o),
(480,203,c)
);
},
{
closed = 1;
nodes = (
(68,225,l),
(454,225,l),
(454,261,l),
(68,261,l)
);
}
);
};
layerId = "4AD5347D-3690-4989-9EDC-12DAAF6F9302";
name = "Nov 2 18, 19:14";
shapes = (
{
closed = 1;
nodes = (
(464,203,l),
(449,154,o),
(365,118,o),
(268,118,cs),
(155,118,o),
(70,172,o),
(70,244,cs),
(70,312,o),
(153,363,o),
(264,363,cs),
(355,363,o),
(437,319,o),
(454,261,c),
(454,225,l),
(480,225,l),
(481,234,o),
(482,248,o),
(482,257,cs),
(482,393,o),
(389,495,o),
(266,495,cs),
(136,495,o),
(38,387,o),
(38,244,cs),
(38,99,o),
(138,-10,o),
(272,-10,cs),
(388,-10,o),
(477,81,o),
(480,203,c)
);
},
{
closed = 1;
nodes = (
(68,225,l),
(454,225,l),
(454,261,l),
(68,261,l)
);
}
);
width = 520;
}
);
metricLeft = o;
metricRight = o;
unicode = 101;
},
{
color = 3;
glyphname = eogonek;
kernLeft = o;
kernRight = o;
lastChange = "2022-02-16 14:38:20 +0000";
layers = (
{
background = {
shapes = (
{
closed = 1;
nodes = (
(412,-160,l),
(337,-180,o),
(288,-161,o),
(288,-112,cs),
(288,-68,o),
(328,-18,o),
(396,28,cs),
(444,60,o),
(476,106,o),
(484,164,c),
(460,168,l),
(437,95,o),
(365,48,o),
(276,48,cs),
(156,48,o),
(78,131,o),
(78,260,cs),
(78,388,o),
(151,470,o),
(264,470,cs),
(373,470,o),
(444,392,o),
(446,272,c),
(58,272,l),
(58,240,l),
(476,240,l),
(492,408,o),
(405,528,o),
(266,528,cs),
(134,528,o),
(44,418,o),
(44,262,cs),
(44,89,o),
(156,-24,o),
(320,0,c),
(320,-12,l),
(280,-40,o),
(248,-84,o),
(248,-128,cs),
(248,-194,o),
(316,-228,o),
(412,-204,c)
);
}
);
};
layerId = "DF4F0C8E-2CF9-4068-955F-A12E64B8206D";
shapes = (
{
closed = 1;
nodes = (
(412,-160,l),
(337,-180,o),
(288,-161,o),
(288,-112,cs),
(288,4,o),
(468,16,o),
(484,164,c),
(460,168,l),
(437,95,o),
(365,48,o),
(276,48,cs),
(156,48,o),
(78,131,o),
(78,260,cs),
(78,388,o),
(151,470,o),
(264,470,cs),
(373,470,o),
(444,392,o),
(446,272,c),
(58,272,l),
(58,240,l),
(476,240,l),
(492,408,o),
(405,528,o),
(266,528,cs),
(134,528,o),
(44,418,o),
(44,262,cs),
(44,89,o),
(156,-24,o),
(320,0,c),
(320,-12,l),
(280,-40,o),
(248,-84,o),
(248,-128,cs),
(248,-194,o),
(316,-228,o),
(412,-204,c)
);
}
);
width = 528;
},
{
layerId = "73C3FB79-0E24-4863-9919-819B2F26AD09";
shapes = (
{
closed = 1;
nodes = (
(412,-152,l),
(336,-172,o),
(284,-153,o),
(284,-108,cs),
(284,16,o),
(488,4,o),
(492,196,c),
(462,200,l),
(442,165,o),
(377,144,o),
(284,144,cs),
(149,144,o),
(70,187,o),
(70,260,cs),
(70,331,o),
(140,372,o),
(260,372,cs),
(372,372,o),
(444,334,o),
(448,274,c),
(50,274,l),
(50,238,l),
(484,238,l),
(492,414,o),
(410,528,o),
(266,528,cs),
(126,528,o),
(36,423,o),
(36,260,cs),
(36,38,o),
(205,-16,o),
(305,-4,c),
(305,-14,l),
(265,-46,o),
(240,-84,o),
(240,-128,cs),
(240,-200,o),
(312,-228,o),
(412,-204,c)
);
}
);
width = 528;
}
);
metricLeft = o;
metricRight = o;
unicode = 281;
},
{
glyphname = f;
kernLeft = Hbar;
kernRight = f;
lastChange = "2022-03-28 12:35:02 +0000";
layers = (
{
layerId = "73C3FB79-0E24-4863-9919-819B2F26AD09";
shapes = (
{
closed = 1;
nodes = (
(130,0,l),
(130,364,l),
(304,364,l),
(304,520,l),
(118,520,l),
(118,524,ls),
(118,590,o),
(188,612,o),
(304,584,c),
(312,752,l),
(172,776,o),
(86,720,o),
(86,600,cs),
(86,520,l),
(12,520,l),
(12,364,l),
(86,364,l),
(86,0,l)
);
}
);
width = 320;
},
{
associatedMasterId = "73C3FB79-0E24-4863-9919-819B2F26AD09";
background = {
shapes = (
{
closed = 1;
nodes = (
(178,0,l),
(178,422,l),
(297,422,l),
(297,492,l),
(178,492,l),
(178,566,ls),
(178,596,o),
(184,612,o),
(195,623,cs),
(206,634,o),
(224,639,o),
(248,639,cs),
(268,639,o),
(288,636,o),
(309,629,c),
(309,704,l),
(283,711,o),
(262,714,o),
(231,714,cs),
(182,714,o),
(140,703,o),
(114,676,cs),
(92,654,o),
(82,622,o),
(82,576,cs),
(82,492,l),
(-14,492,l),
(-14,422,l),
(82,422,l),
(82,0,l)
);
}
);
};
layerId = "69F58792-2765-4C23-AEF6-3E5E33652F0B";
name = "Jul 30 17, 16:48";
shapes = (
{
closed = 1;
nodes = (
(88,542,l),
(126,534,l),
(126,0,l),
(88,0,l)
);
},
{
closed = 1;
nodes = (
(32,465,l),
(328,465,l),
(328,325,l),
(32,325,l)
);
},
{
closed = 1;
nodes = (
(88,542,l),
(93,679,o),
(157,760,o),
(259,760,cs),
(300,760,o),
(334,750,o),
(352,732,c),
(352,598,l),
(328,613,o),
(289,622,o),
(247,622,cs),
(171,622,o),
(126,589,o),
(126,534,c)
);
}
);
width = 368;
},
{
associatedMasterId = "73C3FB79-0E24-4863-9919-819B2F26AD09";
background = {
shapes = (
{
closed = 1;
nodes = (
(88,542,l),
(126,534,l),
(126,0,l),
(88,0,l)
);
},
{
closed = 1;
nodes = (
(32,465,l),
(328,465,l),
(328,325,l),
(32,325,l)
);
},
{
closed = 1;
nodes = (
(88,542,l),
(93,679,o),
(155,760,o),
(255,760,cs),
(290,760,o),
(330,750,o),
(348,732,c),
(344,598,l),
(320,613,o),
(282,622,o),
(243,622,cs),
(169,622,o),
(126,589,o),
(126,534,c)
);
}
);
};
layerId = "C0344261-9E83-4F46-AC54-3A1B6444B6C4";
name = "Nov 15 18, 00:24";
shapes = (
{
closed = 1;
nodes = (
(88,542,l),
(126,534,l),
(126,0,l),
(88,0,l)
);
},
{
closed = 1;
nodes = (
(32,465,l),
(328,465,l),
(328,325,l),
(32,325,l)
);
},
{
closed = 1;
nodes = (
(88,542,l),
(93,679,o),
(155,760,o),
(255,760,cs),
(290,760,o),
(330,750,o),
(348,732,c),
(344,598,l),
(320,613,o),
(282,622,o),
(243,622,cs),
(169,622,o),
(126,589,o),
(126,534,c)
);
}
);
width = 364;
},
{
layerId = "DF4F0C8E-2CF9-4068-955F-A12E64B8206D";
shapes = (
{
closed = 1;
nodes = (
(130,0,l),
(130,464,l),
(296,464,l),
(296,520,l),
(120,520,l),
(120,588,ls),
(120,669,o),
(176,702,o),
(300,678,c),
(300,750,l),
(162,777,o),
(94,717,o),
(94,598,cs),
(94,520,l),
(12,520,l),
(12,464,l),
(94,464,l),
(94,0,l)
);
}
);
width = 308;
}
);
unicode = 102;
},
{
glyphname = g;
kernLeft = g;
kernRight = g;
lastChange = "2022-03-28 16:53:23 +0000";
layers = (
{
anchors = (
{
name = top;
pos = (288,520);
}
);
layerId = "73C3FB79-0E24-4863-9919-819B2F26AD09";
shapes = (
{
closed = 1;
nodes = (
(420,72,o),
(512,161,o),
(512,300,cs),
(512,439,o),
(420,528,o),
(276,528,cs),
(132,528,o),
(40,439,o),
(40,300,cs),
(40,161,o),
(132,72,o),
(276,72,cs)
);
},
{
closed = 1;
nodes = (
(524,-200,l),
(524,-44,l),
(192,-44,ls),
(144,-44,o),
(116,-18,o),
(116,24,cs),
(116,60,o),
(137,89,o),
(177,101,c),
(164,120,l),
(84,104,o),
(32,40,o),
(32,-44,cs),
(32,-139,o),
(96,-200,o),
(196,-200,cs)
);
},
{
closed = 1;
nodes = (
(167,110,o),
(104,157,o),
(104,237,cs),
(104,317,o),
(167,364,o),
(276,364,cs),
(385,364,o),
(448,317,o),
(448,237,cs),
(448,157,o),
(385,110,o),
(276,110,cs)
);
},
{
closed = 1;
nodes = (
(524,569,l),
(476,592,l),
(415,485,l),
(440,467,l)
);
}
);
width = 552;
},
{
anchors = (
{
name = top;
pos = (274,520);
}
);
associatedMasterId = "73C3FB79-0E24-4863-9919-819B2F26AD09";
layerId = "5CD2D32B-3F82-451B-9C9A-E6970E60BBAE";
name = "21 gen 22, 10:46";
shapes = (
{
closed = 1;
nodes = (
(403,-252,o),
(492,-156,o),
(492,-8,cs),
(492,520,l),
(448,520,l),
(460,412,l),
(448,412,l),
(422,484,o),
(348,528,o),
(256,528,cs),
(124,528,o),
(36,432,o),
(36,288,cs),
(36,142,o),
(127,48,o),
(268,48,cs),
(346,48,o),
(415,79,o),
(444,128,c),
(456,128,l),
(456,44,ls),
(456,-47,o),
(384,-100,o),
(260,-100,cs),
(162,-100,o),
(90,-63,o),
(64,0,c),
(32,-8,l),
(32,-156,o),
(123,-252,o),
(264,-252,cs)
);
},
{
closed = 1;
nodes = (
(176,88,o),
(112,140,o),
(112,224,cs),
(112,312,o),
(177,364,o),
(288,364,cs),
(347,364,o),
(406,349,o),
(448,324,c),
(448,172,l),
(422,120,o),
(360,88,o),
(280,88,cs)
);
}
);
width = 548;
},
{
anchors = (
{
name = top;
pos = (274,520);
}
);
associatedMasterId = "73C3FB79-0E24-4863-9919-819B2F26AD09";
layerId = "8F47C0C6-BD1D-4C52-9BAD-46B0A5FE530B";
name = "10 gen 22, 15:51";
shapes = (
{
closed = 1;
nodes = (
(404,-212,o),
(492,-118,o),
(492,28,cs),
(492,520,l),
(448,520,l),
(460,412,l),
(448,412,l),
(421,483,o),
(345,528,o),
(256,528,cs),
(122,528,o),
(36,432,o),
(36,284,cs),
(36,136,o),
(128,40,o),
(272,40,cs),
(352,40,o),
(415,68,o),
(444,116,c),
(456,116,l),
(454,68,ls),
(451,-13,o),
(380,-60,o),
(260,-60,cs),
(160,-60,o),
(88,-29,o),
(64,24,c),
(36,20,l),
(36,-121,o),
(127,-212,o),
(268,-212,cs)
);
},
{
closed = 1;
nodes = (
(183,84,o),
(124,134,o),
(124,220,cs),
(124,311,o),
(186,364,o),
(292,364,cs),
(354,364,o),
(411,346,o),
(448,314,c),
(448,160,l),
(421,112,o),
(361,84,o),
(284,84,cs)
);
}
);
width = 548;
},
{
anchors = (
{
name = bottom;
pos = (278,-200);
},
{
name = top;
pos = (278,520);
}
);
associatedMasterId = "73C3FB79-0E24-4863-9919-819B2F26AD09";
layerId = "7AF88640-81B5-418F-ACBF-F3F469607E46";
name = "4 gen 22, 11:43";
shapes = (
{
closed = 1;
nodes = (
(407,-212,o),
(500,-101,o),
(500,56,cs),
(500,520,l),
(464,520,l),
(476,432,l),
(464,432,l),
(434,488,o),
(358,528,o),
(276,528,cs),
(135,528,o),
(36,425,o),
(36,280,cs),
(36,139,o),
(132,40,o),
(268,40,cs),
(355,40,o),
(434,81,o),
(460,140,c),
(472,140,l),
(468,56,ls),
(464,-24,o),
(386,-76,o),
(268,-76,cs),
(180,-76,o),
(105,-40,o),
(76,16,c),
(52,8,l),
(60,-121,o),
(153,-212,o),
(276,-212,cs)
);
},
{
closed = 1;
nodes = (
(168,80,o),
(96,141,o),
(96,236,cs),
(96,329,o),
(170,388,o),
(284,388,cs),
(355,388,o),
(425,363,o),
(464,324,c),
(464,196,l),
(445,125,o),
(373,80,o),
(280,80,cs)
);
}
);
width = 556;
},
{
anchors = (
{
name = top;
pos = (296,520);
}
);
layerId = "DF4F0C8E-2CF9-4068-955F-A12E64B8206D";
shapes = (
{
closed = 1;
nodes = (
(424,56,o),
(520,154,o),
(520,292,cs),
(520,430,o),
(424,528,o),
(288,528,cs),
(152,528,o),
(56,430,o),
(56,292,cs),
(56,154,o),
(152,56,o),
(288,56,cs)
);
},
{
closed = 1;
nodes = (
(524,-200,l),
(524,-144,l),
(220,-144,ls),
(140,-144,o),
(88,-100,o),
(88,-32,cs),
(88,27,o),
(129,72,o),
(192,84,c),
(180,100,l),
(103,88,o),
(48,25,o),
(48,-52,cs),
(48,-139,o),
(123,-200,o),
(228,-200,cs)
);
},
{
closed = 1;
nodes = (
(174,90,o),
(100,164,o),
(100,279,cs),
(100,394,o),
(174,468,o),
(288,468,cs),
(402,468,o),
(476,394,o),
(476,279,cs),
(476,164,o),
(402,90,o),
(288,90,cs)
);
},
{
closed = 1;
nodes = (
(524,566,l),
(488,588,l),
(424,484,l),
(448,468,l)
);
}
);
width = 564;
},
{
anchors = (
{
name = top;
pos = (282,520);
}
);
associatedMasterId = "DF4F0C8E-2CF9-4068-955F-A12E64B8206D";
layerId = "75AA9651-6A04-481A-960E-E5C89E9F26C6";
name = "21 gen 22, 10:47";
shapes = (
{
closed = 1;
nodes = (
(397,-212,o),
(490,-114,o),
(490,24,cs),
(490,520,l),
(454,520,l),
(466,432,l),
(454,432,l),
(426,490,o),
(352,528,o),
(272,528,cs),
(140,528,o),
(46,427,o),
(46,284,cs),
(46,143,o),
(140,44,o),
(272,44,cs),
(351,44,o),
(421,82,o),
(450,140,c),
(462,140,l),
(458,28,ls),
(454,-83,o),
(379,-154,o),
(266,-154,cs),
(165,-154,o),
(86,-97,o),
(66,-8,c),
(42,-12,l),
(50,-128,o),
(146,-212,o),
(266,-212,cs)
);
},
{
closed = 1;
nodes = (
(164,76,o),
(90,153,o),
(90,272,cs),
(90,391,o),
(162,468,o),
(274,468,cs),
(347,468,o),
(418,434,o),
(454,382,c),
(454,200,l),
(434,125,o),
(365,76,o),
(278,76,cs)
);
}
);
width = 564;
},
{
associatedMasterId = "DF4F0C8E-2CF9-4068-955F-A12E64B8206D";
background = {
shapes = (
{
closed = 1;
nodes = (
(496,-200,l),
(496,520,l),
(460,520,l),
(472,444,l),
(464,444,l),
(428,500,o),
(356,536,o),
(280,536,cs),
(144,536,o),
(48,426,o),
(48,264,cs),
(48,109,o),
(138,0,o),
(266,0,cs),
(356,0,o),
(436,55,o),
(460,132,c),
(468,132,l),
(456,-200,l)
);
},
{
closed = 1;
nodes = (
(156,58,o),
(82,140,o),
(82,268,cs),
(82,395,o),
(158,476,o),
(276,476,cs),
(352,476,o),
(424,442,o),
(460,390,c),
(460,190,l),
(436,110,o),
(362,58,o),
(272,58,cs)
);
}
);
};
layerId = "3B0A68D9-4230-40FB-A769-F9FEADF4A91A";
name = "28 nov 21, 16:25";
shapes = (
{
closed = 1;
nodes = (
(402,-212,o),
(496,-106,o),
(496,44,cs),
(496,520,l),
(460,520,l),
(472,432,l),
(460,432,l),
(432,488,o),
(356,528,o),
(272,528,cs),
(136,528,o),
(40,425,o),
(40,280,cs),
(40,139,o),
(134,40,o),
(268,40,cs),
(352,40,o),
(430,81,o),
(456,140,c),
(468,140,l),
(464,48,ls),
(459,-75,o),
(381,-154,o),
(264,-154,cs),
(166,-154,o),
(90,-97,o),
(70,-8,c),
(46,-12,l),
(56,-129,o),
(148,-212,o),
(268,-212,cs)
);
},
{
closed = 1;
nodes = (
(163,76,o),
(88,153,o),
(88,272,cs),
(88,391,o),
(163,468,o),
(280,468,cs),
(353,468,o),
(424,434,o),
(460,382,c),
(460,196,l),
(440,123,o),
(370,76,o),
(280,76,cs)
);
}
);
width = 564;
}
);
note = "Aggiustare coda";
unicode = 103;
},
{
glyphname = h;
kernLeft = H;
kernRight = n;
lastChange = "2022-01-22 13:30:10 +0000";
layers = (
{
layerId = "73C3FB79-0E24-4863-9919-819B2F26AD09";
shapes = (
{
closed = 1;
nodes = (
(104,0,l),
(104,276,l),
(116,312,o),
(180,336,o),
(276,336,cs),
(380,336,o),
(444,308,o),
(444,260,cs),
(444,0,l),
(488,0,l),
(488,328,ls),
(488,448,o),
(412,528,o),
(292,528,cs),
(192,528,o),
(116,472,o),
(104,376,c),
(92,376,l),
(112,750,l),
(60,750,l),
(60,0,l)
);
}
);
width = 536;
},
{
layerId = "DF4F0C8E-2CF9-4068-955F-A12E64B8206D";
shapes = (
{
closed = 1;
nodes = (
(112,0,l),
(112,340,l),
(128,416,o),
(198,464,o),
(288,464,cs),
(385,464,o),
(448,406,o),
(448,316,cs),
(448,0,l),
(484,0,l),
(484,320,ls),
(484,447,o),
(412,528,o),
(300,528,cs),
(212,528,o),
(140,476,o),
(116,396,c),
(104,396,l),
(120,750,l),
(76,750,l),
(76,0,l)
);
}
);
width = 550;
}
);
metricLeft = l;
metricRight = n;
unicode = 104;
},
{
glyphname = hbar;
kernLeft = Hbar;
kernRight = n;
lastChange = "2022-02-19 14:10:46 +0000";
layers = (
{
layerId = "DF4F0C8E-2CF9-4068-955F-A12E64B8206D";
shapes = (
{
closed = 1;
nodes = (
(114,0,l),
(114,340,l),
(130,416,o),
(200,464,o),
(290,464,cs),
(387,464,o),
(450,406,o),
(450,316,cs),
(450,0,l),
(486,0,l),
(486,320,ls),
(486,447,o),
(414,528,o),
(302,528,cs),
(214,528,o),
(142,476,o),
(118,396,c),
(106,396,l),
(122,750,l),
(78,750,l),
(78,0,l)
);
},
{
closed = 1;
nodes = (
(296,636,l),
(296,690,l),
(24,690,l),
(24,636,l)
);
}
);
width = 552;
},
{
layerId = "73C3FB79-0E24-4863-9919-819B2F26AD09";
shapes = (
{
closed = 1;
nodes = (
(112,0,l),
(112,262,l),
(126,304,o),
(189,328,o),
(284,328,cs),
(390,328,o),
(452,298,o),
(452,246,cs),
(452,0,l),
(496,0,l),
(496,292,ls),
(496,412,o),
(420,492,o),
(300,492,cs),
(200,492,o),
(124,436,o),
(112,340,c),
(100,340,l),
(120,750,l),
(68,750,l),
(68,0,l)
);
},
{
closed = 1;
nodes = (
(336,554,l),
(336,714,l),
(12,714,l),
(12,554,l)
);
}
);
width = 544;
}
);
metricLeft = Hbar;
unicode = 295;
},
{
glyphname = idotless;
kernLeft = idotless;
kernRight = idotless;
lastChange = "2022-03-27 20:32:45 +0000";
layers = (
{
anchors = (
{
name = bottom;
pos = (78,0);
},
{
name = ogonek;
pos = (100,0);
},
{
name = top;
pos = (78,520);
}
);
layerId = "73C3FB79-0E24-4863-9919-819B2F26AD09";
shapes = (
{
closed = 1;
nodes = (
(100,0,l),
(100,520,l),
(56,520,l),
(56,0,l)
);
}
);
width = 156;
},
{
anchors = (
{
name = bottom;
pos = (92,0);
},
{
name = ogonek;
pos = (110,0);
},
{
name = top;
pos = (92,520);
}
);
layerId = "DF4F0C8E-2CF9-4068-955F-A12E64B8206D";
shapes = (
{
closed = 1;
nodes = (
(110,0,l),
(110,520,l),
(74,520,l),
(74,0,l)
);
}
);
width = 184;
}
);
metricRight = "=|";
unicode = 305;
},
{
glyphname = iacute;
kernLeft = i;
kernRight = idieresis;
lastChange = "2022-03-27 14:18:30 +0000";
layers = (
{
layerId = "73C3FB79-0E24-4863-9919-819B2F26AD09";
shapes = (
{
closed = 1;
nodes = (
(172,704,l),
(146,740,l),
(-4,618,l),
(12,596,l)
);
},
{
ref = idotless;
}
);
width = 156;
},
{
layerId = "DF4F0C8E-2CF9-4068-955F-A12E64B8206D";
shapes = (
{
closed = 1;
nodes = (
(196,700,l),
(168,740,l),
(12,620,l),
(28,596,l)
);
},
{
pos = (8,0);
ref = idotless;
}
);
width = 192;
}
);
unicode = 237;
},
{
glyphname = idieresis;
kernLeft = idieresis;
kernRight = idieresis;
lastChange = "2022-03-27 21:21:11 +0000";
layers = (
{
layerId = "73C3FB79-0E24-4863-9919-819B2F26AD09";
shapes = (
{
closed = 1;
nodes = (
(44,624,o),
(68,647,o),
(68,680,cs),
(68,713,o),
(44,736,o),
(10,736,cs),
(-24,736,o),
(-48,713,o),
(-48,680,cs),
(-48,647,o),
(-24,624,o),
(10,624,cs)
);
},
{
closed = 1;
nodes = (
(196,624,o),
(220,647,o),
(220,680,cs),
(220,713,o),
(196,736,o),
(162,736,cs),
(128,736,o),
(104,713,o),
(104,680,cs),
(104,647,o),
(128,624,o),
(162,624,cs)
);
},
{
pos = (12,0);
ref = idotless;
}
);
width = 172;
},
{
associatedMasterId = "73C3FB79-0E24-4863-9919-819B2F26AD09";
background = {
shapes = (
{
closed = 1;
nodes = (
(94,485,l),
(94,0,l),
(56,0,l),
(56,485,l)
);
},
{
closed = 1;
nodes = (
(-69,615,o),
(-44,590,o),
(-10,590,cs),
(25,590,o),
(50,615,o),
(49,648,cs),
(48,681,o),
(24,706,o),
(-10,706,cs),
(-44,706,o),
(-69,681,o),
(-69,648,cs)
);
},
{
closed = 1;
nodes = (
(101,615,o),
(126,590,o),
(160,590,cs),
(194,590,o),
(219,615,o),
(219,648,cs),
(219,681,o),
(194,706,o),
(160,706,cs),
(126,706,o),
(101,681,o),
(101,648,cs)
);
}
);
};
layerId = "5B253AF8-B38B-43F5-AC7C-0BC1C4A407C6";
name = "Jan 22 19, 23:23";
shapes = (
{
closed = 1;
nodes = (
(104,485,l),
(104,0,l),
(64,0,l),
(64,485,l)
);
},
{
closed = 1;
nodes = (
(35,685,o),
(56,664,o),
(84,664,cs),
(112,664,o),
(133,685,o),
(133,712,cs),
(133,739,o),
(112,760,o),
(84,760,cs),
(56,760,o),
(35,739,o),
(35,712,cs)
);
},
{
closed = 1;
nodes = (
(35,565,o),
(56,544,o),
(84,544,cs),
(112,544,o),
(133,565,o),
(133,592,cs),
(133,619,o),
(112,640,o),
(84,640,cs),
(56,640,o),
(35,619,o),
(35,592,cs)
);
}
);
width = 168;
},
{
layerId = "DF4F0C8E-2CF9-4068-955F-A12E64B8206D";
shapes = (
{
closed = 1;
nodes = (
(56,644,o),
(76,663,o),
(76,690,cs),
(76,717,o),
(56,736,o),
(28,736,cs),
(0,736,o),
(-20,717,o),
(-20,690,cs),
(-20,663,o),
(0,644,o),
(28,644,cs)
);
},
{
closed = 1;
nodes = (
(196,644,o),
(216,663,o),
(216,690,cs),
(216,717,o),
(196,736,o),
(168,736,cs),
(140,736,o),
(120,717,o),
(120,690,cs),
(120,663,o),
(140,644,o),
(168,644,cs)
);
},
{
pos = (2,0);
ref = idotless;
}
);
width = 196;
}
);
metricRight = "=|";
unicode = 239;
},
{
glyphname = igrave;
kernLeft = idieresis;
kernRight = i;
lastChange = "2022-03-27 14:18:53 +0000";
layers = (
{
layerId = "73C3FB79-0E24-4863-9919-819B2F26AD09";
shapes = (
{
closed = 1;
nodes = (
(164,620,l),
(18,742,l),
(-8,704,l),
(148,598,l)
);
},
{
pos = (8,0);
ref = idotless;
}
);
width = 156;
},
{
layerId = "DF4F0C8E-2CF9-4068-955F-A12E64B8206D";
shapes = (
{
closed = 1;
nodes = (
(176,622,l),
(28,742,l),
(0,700,l),
(160,598,l)
);
},
{
ref = idotless;
}
);
width = 192;
}
);
unicode = 236;
},
{
glyphname = iogonek;
kernLeft = iogonek;
kernRight = i;
lastChange = "2022-01-22 13:30:10 +0000";
layers = (
{
layerId = "DF4F0C8E-2CF9-4068-955F-A12E64B8206D";
shapes = (
{
closed = 1;
nodes = (
(128,-160,l),
(58,-178,o),
(8,-158,o),
(8,-114,cs),
(8,-74,o),
(48,-28,o),
(112,0,c),
(76,0,l),
(12,-32,o),
(-32,-80,o),
(-32,-132,cs),
(-32,-196,o),
(32,-228,o),
(128,-204,c)
);
},
{
pos = (2,0);
ref = idotless;
},
{
pos = (-106,0);
ref = dotaccentcomb;
}
);
width = 186;
},
{
layerId = "73C3FB79-0E24-4863-9919-819B2F26AD09";
shapes = (
{
closed = 1;
nodes = (
(112,-160,l),
(42,-178,o),
(-4,-160,o),
(-4,-112,cs),
(-4,-68,o),
(36,-28,o),
(104,0,c),
(60,0,l),
(-4,-32,o),
(-48,-80,o),
(-48,-132,cs),
(-48,-196,o),
(16,-228,o),
(112,-204,c)
);
},
{
pos = (4,0);
ref = idotless;
},
{
pos = (-122,0);
ref = dotaccentcomb;
}
);
width = 152;
}
);
unicode = 303;
},
{
glyphname = j;
kernLeft = j;
kernRight = idotless;
lastChange = "2022-03-24 19:19:58 +0000";
layers = (
{
layerId = "73C3FB79-0E24-4863-9919-819B2F26AD09";
shapes = (
{
ref = jdotless;
},
{
pos = (-90,0);
ref = dotaccentcomb;
}
);
width = 188;
},
{
associatedMasterId = "73C3FB79-0E24-4863-9919-819B2F26AD09";
background = {
shapes = (
{
closed = 1;
nodes = (
(-81,-209,l),
(-60,-213,o),
(-34,-215,o),
(-18,-215,cs),
(59,-215,o),
(102,-189,o),
(123,-138,cs),
(134,-111,o),
(137,-75,o),
(137,-33,cs),
(137,489,l),
(63,489,l),
(63,-28,ls),
(63,-64,o),
(62,-93,o),
(54,-113,cs),
(42,-141,o),
(18,-155,o),
(-28,-155,cs),
(-45,-155,o),
(-64,-152,o),
(-81,-147,c)
);
},
{
closed = 1;
nodes = (
(140,620,l),
(140,706,l),
(60,706,l),
(60,620,l)
);
}
);
};
layerId = "6D5DB3C1-6654-47D5-8296-6EC4F513D517";
name = "Mar 22 17, 16:45";
shapes = (
{
closed = 1;
nodes = (
(270,0,l),
(226,0,l),
(226,485,l),
(270,485,l)
);
},
{
closed = 1;
nodes = (
(64,-81,o),
(97,-93,o),
(130,-93,c),
(185,-93,o),
(226,-53,o),
(226,0,c),
(270,0,l),
(270,-124,o),
(215,-217,o),
(142,-217,c),
(68,-217,o),
(12,-151,o),
(12,-64,c),
(52,-64,l)
);
},
{
closed = 1;
nodes = (
(275,606,o),
(295,627,o),
(295,656,cs),
(295,686,o),
(275,707,o),
(248,706,cs),
(221,705,o),
(201,684,o),
(201,656,cs),
(201,627,o),
(221,606,o),
(248,606,cs)
);
}
);
width = 326;
},
{
associatedMasterId = "73C3FB79-0E24-4863-9919-819B2F26AD09";
background = {
shapes = (
{
closed = 1;
nodes = (
(-226,-209,l),
(-205,-213,o),
(-179,-215,o),
(-163,-215,cs),
(-86,-215,o),
(-43,-189,o),
(-22,-138,cs),
(-11,-111,o),
(-8,-75,o),
(-8,-33,cs),
(-8,489,l),
(-82,489,l),
(-82,-28,ls),
(-82,-64,o),
(-83,-93,o),
(-91,-113,cs),
(-103,-141,o),
(-127,-155,o),
(-173,-155,cs),
(-190,-155,o),
(-209,-152,o),
(-226,-147,c)
);
},
{
closed = 1;
nodes = (
(-5,620,l),
(-5,706,l),
(-85,706,l),
(-85,620,l)
);
}
);
};
layerId = "8CDA16E8-22AB-4345-AE10-06D4C81B5D07";
name = "Mar 22 17, 16:45";
shapes = (
{
closed = 1;
nodes = (
(125,-206,l),
(81,-206,l),
(81,485,l),
(125,485,l)
);
},
{
closed = 1;
nodes = (
(130,606,o),
(150,627,o),
(150,656,cs),
(150,686,o),
(130,707,o),
(103,706,cs),
(76,705,o),
(56,684,o),
(56,656,cs),
(56,627,o),
(76,606,o),
(103,606,cs)
);
}
);
width = 206;
},
{
layerId = "DF4F0C8E-2CF9-4068-955F-A12E64B8206D";
shapes = (
{
ref = jdotless;
},
{
pos = (-92,0);
ref = dotaccentcomb;
}
);
width = 200;
}
);
metricRight = i;
unicode = 106;
},
{
glyphname = jdotless;
kernLeft = j;
kernRight = idotless;
lastChange = "2022-03-28 12:27:18 +0000";
layers = (
{
anchors = (
{
name = top;
pos = (108,520);
}
);
layerId = "DF4F0C8E-2CF9-4068-955F-A12E64B8206D";
shapes = (
{
closed = 1;
nodes = (
(56,-224,o),
(126,-159,o),
(126,-42,cs),
(126,520,l),
(90,520,l),
(90,-48,ls),
(90,-122,o),
(38,-159,o),
(-52,-148,c),
(-52,-208,l)
);
}
);
width = 200;
},
{
anchors = (
{
name = top;
pos = (110,520);
}
);
layerId = "73C3FB79-0E24-4863-9919-819B2F26AD09";
shapes = (
{
closed = 1;
nodes = (
(36,-296,o),
(132,-232,o),
(132,-106,cs),
(132,520,l),
(88,520,l),
(88,0,ls),
(88,-77,o),
(17,-105,o),
(-104,-76,c),
(-112,-270,l)
);
}
);
width = 188;
},
{
anchors = (
{
name = top;
pos = (114,520);
}
);
associatedMasterId = "73C3FB79-0E24-4863-9919-819B2F26AD09";
layerId = "A9E6D189-E89B-4801-B20E-BD18D37EFD2E";
name = "20 gen 22, 17:08";
shapes = (
{
closed = 1;
nodes = (
(48,-302,o),
(136,-230,o),
(136,-80,cs),
(136,520,l),
(92,520,l),
(92,20,ls),
(92,-74,o),
(27,-111,o),
(-96,-88,c),
(-104,-276,l)
);
}
);
width = 192;
}
);
metricRight = idotless;
unicode = 567;
},
{
glyphname = k;
kernLeft = H;
kernRight = x;
lastChange = "2022-02-16 16:41:22 +0000";
layers = (
{
anchors = (
{
name = bottom;
pos = (268,0);
}
);
layerId = "73C3FB79-0E24-4863-9919-819B2F26AD09";
shapes = (
{
closed = 1;
nodes = (
(524,520,l),
(304,520,l),
(84,264,l),
(84,52,l)
);
},
{
closed = 1;
nodes = (
(504,0,l),
(292,316,l),
(264,284,l),
(450,0,l)
);
},
{
ref = l;
}
);
width = 512;
},
{
anchors = (
{
name = bottom;
pos = (266,0);
}
);
layerId = "DF4F0C8E-2CF9-4068-955F-A12E64B8206D";
shapes = (
{
closed = 1;
nodes = (
(484,520,l),
(406,520,l),
(92,192,l),
(92,116,l)
);
},
{
closed = 1;
nodes = (
(500,0,l),
(268,320,l),
(242,292,l),
(452,0,l)
);
},
{
ref = l;
}
);
width = 504;
},
{
anchors = (
{
name = bottom;
pos = (266,0);
}
);
associatedMasterId = "DF4F0C8E-2CF9-4068-955F-A12E64B8206D";
layerId = "79A774B1-65A8-43FC-84CD-737CBEFCF796";
name = "14 feb 22, 17:32";
shapes = (
{
closed = 1;
nodes = (
(480,520,l),
(428,520,l),
(92,176,l),
(92,124,l)
);
},
{
closed = 1;
nodes = (
(500,0,l),
(272,328,l),
(234,288,l),
(430,0,l)
);
},
{
ref = l;
}
);
width = 508;
},
{
anchors = (
{
name = bottom;
pos = (248,0);
}
);
associatedMasterId = "73C3FB79-0E24-4863-9919-819B2F26AD09";
layerId = "F6743901-D284-4FED-BB8B-DC638F35D3F9";
name = "14 feb 22, 17:32";
shapes = (
{
closed = 1;
nodes = (
(476,520,l),
(410,520,l),
(84,208,l),
(84,148,l)
);
},
{
closed = 1;
nodes = (
(528,0,l),
(304,372,l),
(184,260,l),
(328,0,l)
);
},
{
ref = l;
}
);
width = 524;
}
);
metricLeft = l;
unicode = 107;
},
{
glyphname = l;
kernLeft = H;
kernRight = H;
lastChange = "2022-01-22 13:30:10 +0000";
layers = (
{
anchors = (
{
name = bottom;
pos = (82,0);
},
{
name = top;
pos = (82,750);
},
{
name = topright;
pos = (104,520);
}
);
layerId = "73C3FB79-0E24-4863-9919-819B2F26AD09";
shapes = (
{
closed = 1;
nodes = (
(104,0,l),
(104,750,l),
(60,750,l),
(60,0,l)
);
}
);
width = 164;
},
{
anchors = (
{
name = bottom;
pos = (94,0);
},
{
name = top;
pos = (94,750);
},
{
name = topright;
pos = (112,520);
}
);
layerId = "DF4F0C8E-2CF9-4068-955F-A12E64B8206D";
shapes = (
{
closed = 1;
nodes = (
(112,0,l),
(112,750,l),
(76,750,l),
(76,0,l)
);
}
);
width = 188;
}
);
metricRight = "=|l";
unicode = 108;
},
{
glyphname = lslash;
kernLeft = lslash;
kernRight = lslash;
lastChange = "2022-01-27 14:21:31 +0000";
layers = (
{
layerId = "DF4F0C8E-2CF9-4068-955F-A12E64B8206D";
shapes = (
{
closed = 1;
nodes = (
(212,370,l),
(208,432,l),
(16,374,l),
(20,312,l)
);
},
{
pos = (20,0);
ref = l;
}
);
width = 228;
},
{
layerId = "73C3FB79-0E24-4863-9919-819B2F26AD09";
shapes = (
{
closed = 1;
nodes = (
(228,304,l),
(220,520,l),
(12,440,l),
(20,224,l)
);
},
{
pos = (36,0);
ref = l;
}
);
width = 240;
}
);
metricRight = "=|";
unicode = 322;
},
{
glyphname = m;
kernLeft = idotless;
kernRight = n;
lastChange = "2022-03-27 17:28:04 +0000";
layers = (
{
layerId = "73C3FB79-0E24-4863-9919-819B2F26AD09";
shapes = (
{
closed = 1;
nodes = (
(100,0,l),
(100,280,l),
(112,315,o),
(169,336,o),
(254,336,cs),
(351,336,o),
(408,309,o),
(408,264,cs),
(408,0,l),
(452,0,l),
(452,280,l),
(464,315,o),
(521,336,o),
(606,336,cs),
(703,336,o),
(760,309,o),
(760,264,cs),
(760,0,l),
(804,0,l),
(804,324,ls),
(804,448,o),
(735,528,o),
(628,528,cs),
(539,528,o),
(472,469,o),
(456,376,c),
(444,376,l),
(432,469,o),
(366,528,o),
(276,528,cs),
(181,528,o),
(112,469,o),
(100,376,c),
(88,376,l),
(104,520,l),
(56,520,l),
(56,0,l)
);
}
);
width = 852;
},
{
layerId = "DF4F0C8E-2CF9-4068-955F-A12E64B8206D";
shapes = (
{
closed = 1;
nodes = (
(110,0,l),
(110,348,l),
(126,419,o),
(187,464,o),
(266,464,cs),
(356,464,o),
(414,409,o),
(414,324,cs),
(414,0,l),
(450,0,l),
(450,348,l),
(466,419,o),
(527,464,o),
(606,464,cs),
(696,464,o),
(754,409,o),
(754,324,cs),
(754,0,l),
(790,0,l),
(790,324,ls),
(790,448,o),
(724,528,o),
(622,528,cs),
(538,528,o),
(472,480,o),
(448,400,c),
(436,400,l),
(420,478,o),
(360,528,o),
(282,528,cs),
(198,528,o),
(134,480,o),
(110,400,c),
(98,400,l),
(114,520,l),
(74,520,l),
(74,0,l)
);
}
);
width = 856;
}
);
metricLeft = n;
metricRight = n;
unicode = 109;
},
{
glyphname = n;
kernLeft = idotless;
kernRight = n;
lastChange = "2022-03-28 16:48:42 +0000";
layers = (
{
anchors = (
{
name = bottom;
pos = (272,0);
},
{
name = top;
pos = (276,520);
}
);
layerId = "73C3FB79-0E24-4863-9919-819B2F26AD09";
shapes = (
{
closed = 1;
nodes = (
(100,0,l),
(100,276,l),
(112,312,o),
(176,336,o),
(272,336,cs),
(376,336,o),
(440,308,o),
(440,260,cs),
(440,0,l),
(484,0,l),
(484,328,ls),
(484,448,o),
(408,528,o),
(288,528,cs),
(188,528,o),
(112,472,o),
(100,376,c),
(88,376,l),
(104,520,l),
(56,520,l),
(56,0,l)
);
}
);
width = 532;
},
{
associatedMasterId = "73C3FB79-0E24-4863-9919-819B2F26AD09";
background = {
shapes = (
{
closed = 1;
nodes = (
(162,0,l),
(162,258,ls),
(162,304,o),
(170,337,o),
(205,372,cs),
(238,406,o),
(293,420,o),
(335,420,cs),
(378,420,o),
(419,411,o),
(439,390,cs),
(460,369,o),
(470,338,o),
(470,285,cs),
(470,0,l),
(566,0,l),
(566,303,ls),
(566,380,o),
(552,420,o),
(527,448,cs),
(493,485,o),
(439,502,o),
(371,502,cs),
(275,502,o),
(199,461,o),
(160,403,c),
(160,492,l),
(67,492,l),
(67,0,l)
);
}
);
};
layerId = "C6D721C1-BD6C-4C86-91B6-014FD63B39E9";
name = "Dec 3 17, 22:46";
shapes = (
{
closed = 1;
nodes = (
(464,0,l),
(426,0,l),
(426,240,l),
(464,240,l)
);
},
{
closed = 1;
nodes = (
(74,352,l),
(86,433,o),
(191,493,o),
(283,493,cs),
(397,493,o),
(464,399,o),
(464,240,c),
(426,240,l),
(426,302,o),
(356,339,o),
(271,339,cs),
(180,339,o),
(106,298,o),
(94,244,c)
);
},
{
closed = 1;
nodes = (
(94,485,l),
(94,0,l),
(56,0,l),
(56,485,l)
);
}
);
width = 516;
},
{
anchors = (
{
name = bottom;
pos = (280,0);
},
{
name = top;
pos = (282,520);
}
);
layerId = "DF4F0C8E-2CF9-4068-955F-A12E64B8206D";
shapes = (
{
closed = 1;
nodes = (
(110,0,l),
(110,340,l),
(126,414,o),
(196,464,o),
(286,464,cs),
(383,464,o),
(446,406,o),
(446,316,cs),
(446,0,l),
(482,0,l),
(482,320,ls),
(482,446,o),
(408,528,o),
(296,528,cs),
(208,528,o),
(138,478,o),
(110,400,c),
(98,400,l),
(114,520,l),
(74,520,l),
(74,0,l)
);
}
);
width = 548;
}
);
metricLeft = idotless;
metricRight = "=idotless-8";
unicode = 110;
},
{
glyphname = o;
kernLeft = o;
kernRight = o;
lastChange = "2022-03-28 16:44:11 +0000";
layers = (
{
anchors = (
{
name = top;
pos = (280,520);
}
);
layerId = "73C3FB79-0E24-4863-9919-819B2F26AD09";
shapes = (
{
closed = 1;
nodes = (
(428,-8,o),
(524,97,o),
(524,260,cs),
(524,423,o),
(428,528,o),
(280,528,cs),
(132,528,o),
(36,423,o),
(36,260,cs),
(36,97,o),
(132,-8,o),
(280,-8,cs)
);
},
{
closed = 1;
nodes = (
(147,150,o),
(70,190,o),
(70,259,cs),
(70,328,o),
(147,368,o),
(280,368,cs),
(413,368,o),
(490,328,o),
(490,259,cs),
(490,190,o),
(413,150,o),
(280,150,cs)
);
}
);
width = 560;
},
{
associatedMasterId = "73C3FB79-0E24-4863-9919-819B2F26AD09";
layerId = "5849875D-AC32-47F8-BD9A-7DDD0AD4C4B2";
name = "Oct 20 17, 21:55";
shapes = (
{
closed = 1;
nodes = (
(410,-8,o),
(508,95,o),
(508,240,cs),
(508,385,o),
(410,488,o),
(272,488,cs),
(134,488,o),
(36,385,o),
(36,240,cs),
(36,95,o),
(134,-8,o),
(272,-8,cs)
);
},
{
closed = 1;
nodes = (
(148,130,o),
(68,173,o),
(68,240,cs),
(68,306,o),
(148,348,o),
(272,348,cs),
(396,348,o),
(476,306,o),
(476,240,cs),
(476,173,o),
(396,130,o),
(272,130,cs)
);
}
);
width = 546;
},
{
anchors = (
{
name = top;
pos = (280,520);
}
);
layerId = "DF4F0C8E-2CF9-4068-955F-A12E64B8206D";
shapes = (
{
closed = 1;
nodes = (
(418,-8,o),
(516,103,o),
(516,260,cs),
(516,417,o),
(418,528,o),
(280,528,cs),
(142,528,o),
(44,417,o),
(44,260,cs),
(44,103,o),
(142,-8,o),
(280,-8,cs)
);
},
{
closed = 1;
nodes = (
(157,50,o),
(78,132,o),
(78,260,cs),
(78,387,o),
(157,468,o),
(280,468,cs),
(403,468,o),
(482,387,o),
(482,260,cs),
(482,132,o),
(403,50,o),
(280,50,cs)
);
}
);
width = 560;
}
);
metricRight = "=|o";
unicode = 111;
},
{
glyphname = oslash;
kernLeft = o;
kernRight = o;
lastChange = "2022-01-22 13:30:15 +0000";
layers = (
{
layerId = "73C3FB79-0E24-4863-9919-819B2F26AD09";
shapes = (
{
closed = 1;
nodes = (
(108,-8,l),
(522,528,l),
(476,528,l),
(64,-8,l)
);
},
{
ref = o;
}
);
width = 560;
},
{
layerId = "DF4F0C8E-2CF9-4068-955F-A12E64B8206D";
shapes = (
{
closed = 1;
nodes = (
(110,-8,l),
(522,528,l),
(476,528,l),
(66,-8,l)
);
},
{
ref = o;
}
);
width = 564;
}
);
metricLeft = o;
unicode = 248;
},
{
color = 3;
glyphname = oe;
kernLeft = o;
kernRight = o;
lastChange = "2022-03-27 14:20:01 +0000";
layers = (
{
background = {
shapes = (
{
closed = 1;
nodes = (
(799,-8,o),
(884,72,o),
(888,196,c),
(858,200,l),
(838,165,o),
(773,144,o),
(680,144,cs),
(545,144,o),
(466,187,o),
(466,260,cs),
(466,331,o),
(536,372,o),
(656,372,cs),
(768,372,o),
(840,334,o),
(844,274,c),
(446,274,l),
(446,238,l),
(880,238,l),
(888,414,o),
(806,528,o),
(662,528,cs),
(522,528,o),
(432,423,o),
(432,260,cs),
(432,97,o),
(526,-8,o),
(672,-8,cs)
);
}
);
};
layerId = "73C3FB79-0E24-4863-9919-819B2F26AD09";
shapes = (
{
closed = 1;
nodes = (
(355,-8,o),
(430,44,o),
(462,132,c),
(474,132,l),
(507,44,o),
(585,-8,o),
(684,-8,cs),
(801,-8,o),
(880,64,o),
(888,188,c),
(860,192,l),
(838,160,o),
(778,142,o),
(696,142,cs),
(568,142,o),
(494,186,o),
(494,262,cs),
(494,333,o),
(560,374,o),
(672,374,cs),
(774,374,o),
(838,338,o),
(846,276,c),
(472,276,l),
(472,238,l),
(880,238,l),
(892,414,o),
(808,528,o),
(672,528,cs),
(579,528,o),
(506,476,o),
(474,388,c),
(462,388,l),
(434,476,o),
(363,528,o),
(264,528,cs),
(125,528,o),
(36,423,o),
(36,260,cs),
(36,100,o),
(121,-8,o),
(260,-8,cs)
);
},
{
closed = 1;
nodes = (
(142,146,o),
(70,188,o),
(70,259,cs),
(70,330,o),
(142,372,o),
(265,372,cs),
(388,372,o),
(460,330,o),
(460,259,cs),
(460,188,o),
(388,146,o),
(265,146,cs)
);
}
);
width = 924;
},
{
layerId = "DF4F0C8E-2CF9-4068-955F-A12E64B8206D";
shapes = (
{
closed = 1;
nodes = (
(354,-8,o),
(432,48,o),
(456,140,c),
(468,140,l),
(496,52,o),
(572,-8,o),
(664,-8,cs),
(760,-8,o),
(840,60,o),
(852,164,c),
(828,168,l),
(806,96,o),
(737,50,o),
(658,50,cs),
(550,50,o),
(478,134,o),
(478,264,cs),
(478,388,o),
(545,468,o),
(648,468,cs),
(747,468,o),
(812,391,o),
(814,272,c),
(458,272,l),
(458,240,l),
(844,240,l),
(860,408,o),
(782,528,o),
(654,528,cs),
(566,528,o),
(492,464,o),
(468,376,c),
(456,376,l),
(432,468,o),
(350,528,o),
(258,528,cs),
(133,528,o),
(44,417,o),
(44,260,cs),
(44,103,o),
(133,-8,o),
(258,-8,cs)
);
},
{
closed = 1;
nodes = (
(150,50,o),
(78,132,o),
(78,260,cs),
(78,387,o),
(150,468,o),
(262,468,cs),
(374,468,o),
(446,387,o),
(446,260,cs),
(446,132,o),
(374,50,o),
(262,50,cs)
);
}
);
width = 896;
},
{
associatedMasterId = "73C3FB79-0E24-4863-9919-819B2F26AD09";
background = {
shapes = (
{
closed = 1;
nodes = (
(804,261,l),
(836,262,l),
(836,396,o),
(757,492,o),
(645,492,cs),
(525,492,o),
(440,388,o),
(440,242,cs),
(440,96,o),
(531,-9,o),
(657,-9,cs),
(765,-9,o),
(846,79,o),
(850,203,c),
(832,203,l),
(808,153,o),
(731,117,o),
(649,117,cs),
(547,117,o),
(472,169,o),
(472,241,cs),
(472,315,o),
(545,368,o),
(645,368,cs),
(727,368,o),
(792,324,o),
(804,262,c)
);
},
{
closed = 1;
nodes = (
(472,226,l),
(835,228,l),
(836,231,o),
(836,245,o),
(836,262,c),
(472,260,l)
);
},
{
closed = 1;
nodes = (
(383,-8,o),
(472,96,o),
(472,242,cs),
(472,388,o),
(383,493,o),
(255,493,cs),
(127,493,o),
(38,388,o),
(38,242,cs),
(38,96,o),
(127,-8,o),
(256,-8,cs)
);
},
{
closed = 1;
nodes = (
(147,132,o),
(70,178,o),
(70,242,cs),
(70,308,o),
(147,355,o),
(255,355,cs),
(363,355,o),
(440,308,o),
(440,242,cs),
(440,178,o),
(363,132,o),
(255,132,cs)
);
}
);
};
layerId = "A1CEDF7B-438F-4048-AE05-D1AB6D8E01C0";
name = "10 gen 22, 18:09";
shapes = (
{
closed = 1;
nodes = (
(804,261,l),
(836,262,l),
(836,396,o),
(757,492,o),
(645,492,cs),
(525,492,o),
(440,388,o),
(440,242,cs),
(440,96,o),
(531,-9,o),
(657,-9,cs),
(765,-9,o),
(846,79,o),
(850,203,c),
(832,203,l),
(808,153,o),
(731,117,o),
(649,117,cs),
(547,117,o),
(472,169,o),
(472,241,cs),
(472,315,o),
(545,368,o),
(645,368,cs),
(727,368,o),
(792,324,o),
(804,262,c)
);
},
{
closed = 1;
nodes = (
(472,226,l),
(835,228,l),
(836,231,o),
(836,245,o),
(836,262,c),
(472,260,l)
);
},
{
closed = 1;
nodes = (
(383,-8,o),
(472,96,o),
(472,242,cs),
(472,388,o),
(383,493,o),
(255,493,cs),
(127,493,o),
(38,388,o),
(38,242,cs),
(38,96,o),
(127,-8,o),
(256,-8,cs)
);
},
{
closed = 1;
nodes = (
(147,132,o),
(70,178,o),
(70,242,cs),
(70,308,o),
(147,355,o),
(255,355,cs),
(363,355,o),
(440,308,o),
(440,242,cs),
(440,178,o),
(363,132,o),
(255,132,cs)
);
}
);
width = 890;
}
);
metricLeft = o;
metricRight = o;
unicode = 339;
},
{
glyphname = p;
kernLeft = idotless;
kernRight = o;
lastChange = "2022-03-27 20:38:30 +0000";
layers = (
{
layerId = "DF4F0C8E-2CF9-4068-955F-A12E64B8206D";
shapes = (
{
closed = 1;
nodes = (
(118,-200,l),
(98,84,l),
(110,84,l),
(146,28,o),
(216,-8,o),
(292,-8,cs),
(428,-8,o),
(522,102,o),
(522,264,cs),
(522,419,o),
(432,528,o),
(304,528,cs),
(216,528,o),
(138,476,o),
(114,396,c),
(102,396,l),
(114,520,l),
(74,520,l),
(74,-200,l)
);
},
{
closed = 1;
nodes = (
(218,50,o),
(146,84,o),
(110,136,c),
(110,336,l),
(134,416,o),
(208,468,o),
(300,468,cs),
(414,468,o),
(488,387,o),
(488,260,cs),
(488,132,o),
(412,50,o),
(294,50,cs)
);
}
);
width = 566;
},
{
layerId = "73C3FB79-0E24-4863-9919-819B2F26AD09";
shapes = (
{
closed = 1;
nodes = (
(104,-200,l),
(88,120,l),
(100,120,l),
(126,42,o),
(204,-8,o),
(296,-8,cs),
(432,-8,o),
(520,98,o),
(520,264,cs),
(520,425,o),
(435,528,o),
(302,528,cs),
(197,528,o),
(120,467,o),
(104,372,c),
(92,372,l),
(100,520,l),
(56,520,l),
(56,-200,l)
);
},
{
closed = 1;
nodes = (
(210,150,o),
(141,165,o),
(100,192,c),
(100,284,l),
(116,336,o),
(187,366,o),
(294,366,cs),
(415,366,o),
(486,325,o),
(486,256,cs),
(486,189,o),
(412,150,o),
(286,150,cs)
);
}
);
width = 556;
},
{
associatedMasterId = "73C3FB79-0E24-4863-9919-819B2F26AD09";
layerId = "FBCA4DB5-EC8B-405F-9B3C-59F3B1BA91B9";
name = "19 gen 22, 18:15";
shapes = (
{
closed = 1;
nodes = (
(104,-200,l),
(90,108,l),
(102,108,l),
(135,35,o),
(203,-8,o),
(291,-8,cs),
(430,-8,o),
(516,97,o),
(516,260,cs),
(516,423,o),
(434,528,o),
(301,528,cs),
(200,528,o),
(126,467,o),
(106,372,c),
(94,372,l),
(102,520,l),
(58,520,l),
(56,-200,l)
);
},
{
closed = 1;
nodes = (
(217,148,o),
(147,167,o),
(102,200,c),
(102,280,l),
(134,334,o),
(207,366,o),
(305,366,cs),
(419,366,o),
(482,326,o),
(482,258,cs),
(482,189,o),
(416,148,o),
(297,148,cs)
);
}
);
width = 552;
},
{
associatedMasterId = "73C3FB79-0E24-4863-9919-819B2F26AD09";
layerId = "6941E121-97E2-40E0-9279-473BDAF3E243";
name = "20 dic 21, 09:56";
shapes = (
{
closed = 1;
nodes = (
(96,-200,l),
(80,88,l),
(92,88,l),
(131,30,o),
(208,-8,o),
(288,-8,cs),
(426,-8,o),
(520,104,o),
(520,268,cs),
(520,420,o),
(431,528,o),
(304,528,cs),
(204,528,o),
(120,468,o),
(96,376,c),
(84,376,l),
(96,520,l),
(56,520,l),
(56,-200,l)
);
},
{
closed = 1;
nodes = (
(209,128,o),
(131,153,o),
(92,192,c),
(92,272,l),
(116,344,o),
(196,388,o),
(304,388,cs),
(416,388,o),
(488,338,o),
(488,260,cs),
(488,180,o),
(411,128,o),
(292,128,cs)
);
}
);
width = 556;
},
{
associatedMasterId = "73C3FB79-0E24-4863-9919-819B2F26AD09";
background = {
shapes = (
{
closed = 1;
nodes = (
(412,-8,o),
(500,99,o),
(500,243,cs),
(500,387,o),
(408,493,o),
(284,493,cs),
(206,493,o),
(132,441,o),
(104,373,c),
(82,240,l),
(106,121,l),
(130,47,o),
(208,-8,o),
(288,-8,cs)
);
},
{
closed = 1;
nodes = (
(180,132,o),
(102,177,o),
(102,241,cs),
(102,305,o),
(180,355,o),
(284,355,cs),
(388,355,o),
(468,307,o),
(468,243,cs),
(468,179,o),
(392,132,o),
(288,132,cs)
);
},
{
closed = 1;
nodes = (
(108,121,l),
(82,240,l),
(104,373,l),
(96,373,l),
(104,485,l),
(64,485,l),
(64,-206,l),
(104,-206,l),
(100,121,l)
);
}
);
};
layerId = "6BBB169C-831D-4A12-B7C9-AE64325B4E47";
name = "24 nov 21, 15:01";
shapes = (
{
closed = 1;
nodes = (
(412,-8,o),
(500,99,o),
(500,243,cs),
(500,387,o),
(408,493,o),
(284,493,cs),
(206,493,o),
(132,441,o),
(104,373,c),
(82,240,l),
(106,121,l),
(130,47,o),
(208,-8,o),
(288,-8,cs)
);
},
{
closed = 1;
nodes = (
(180,132,o),
(102,177,o),
(102,241,cs),
(102,305,o),
(180,355,o),
(284,355,cs),
(388,355,o),
(468,307,o),
(468,243,cs),
(468,179,o),
(392,132,o),
(288,132,cs)
);
},
{
closed = 1;
nodes = (
(108,121,l),
(82,240,l),
(104,373,l),
(96,373,l),
(104,485,l),
(64,485,l),
(64,-206,l),
(104,-206,l),
(100,121,l)
);
}
);
width = 538;
}
);
metricLeft = idotless;
metricRight = o;
unicode = 112;
},
{
glyphname = thorn;
kernLeft = H;
kernRight = o;
lastChange = "2022-01-22 13:30:15 +0000";
layers = (
{
layerId = "DF4F0C8E-2CF9-4068-955F-A12E64B8206D";
shapes = (
{
closed = 1;
nodes = (
(116,-200,l),
(100,84,l),
(108,84,l),
(144,28,o),
(216,-8,o),
(292,-8,cs),
(428,-8,o),
(524,102,o),
(524,264,cs),
(524,419,o),
(434,528,o),
(306,528,cs),
(216,528,o),
(136,473,o),
(112,396,c),
(104,396,l),
(116,750,l),
(76,750,l),
(76,-200,l)
);
},
{
closed = 1;
nodes = (
(220,50,o),
(148,84,o),
(112,136,c),
(112,336,l),
(136,416,o),
(210,468,o),
(302,468,cs),
(416,468,o),
(490,387,o),
(490,260,cs),
(490,132,o),
(414,50,o),
(296,50,cs)
);
}
);
width = 568;
},
{
layerId = "73C3FB79-0E24-4863-9919-819B2F26AD09";
shapes = (
{
closed = 1;
nodes = (
(108,-200,l),
(92,120,l),
(104,120,l),
(130,42,o),
(207,-8,o),
(300,-8,cs),
(439,-8,o),
(528,98,o),
(528,264,cs),
(528,425,o),
(442,528,o),
(308,528,cs),
(202,528,o),
(124,467,o),
(108,372,c),
(96,372,l),
(108,750,l),
(60,750,l),
(60,-200,l)
);
},
{
closed = 1;
nodes = (
(215,150,o),
(146,165,o),
(104,192,c),
(104,284,l),
(120,336,o),
(192,366,o),
(300,366,cs),
(422,366,o),
(494,325,o),
(494,256,cs),
(494,189,o),
(420,150,o),
(292,150,cs)
);
}
);
width = 564;
},
{
associatedMasterId = "73C3FB79-0E24-4863-9919-819B2F26AD09";
layerId = "301DE3AC-7EE8-454A-A67A-83879EC23EBB";
name = "19 gen 22, 18:19";
shapes = (
{
closed = 1;
nodes = (
(108,-200,l),
(94,108,l),
(106,108,l),
(139,35,o),
(210,-8,o),
(298,-8,cs),
(437,-8,o),
(526,97,o),
(526,260,cs),
(526,423,o),
(441,528,o),
(308,528,cs),
(207,528,o),
(130,467,o),
(110,372,c),
(98,372,l),
(110,750,l),
(62,750,l),
(60,-200,l)
);
},
{
closed = 1;
nodes = (
(222,148,o),
(151,167,o),
(106,200,c),
(106,292,l),
(136,339,o),
(208,366,o),
(302,366,cs),
(422,366,o),
(492,325,o),
(492,256,cs),
(492,188,o),
(420,148,o),
(298,148,cs)
);
}
);
width = 562;
}
);
metricLeft = l;
metricRight = o;
unicode = 254;
},
{
glyphname = q;
kernLeft = o;
kernRight = idotless;
lastChange = "2022-03-27 14:37:46 +0000";
layers = (
{
layerId = "DF4F0C8E-2CF9-4068-955F-A12E64B8206D";
shapes = (
{
closed = 1;
nodes = (
(492,-200,l),
(492,520,l),
(456,520,l),
(468,432,l),
(456,432,l),
(428,488,o),
(358,528,o),
(278,528,cs),
(140,528,o),
(44,415,o),
(44,256,cs),
(44,101,o),
(136,-8,o),
(268,-8,cs),
(358,-8,o),
(428,40,o),
(452,124,c),
(464,124,l),
(448,-200,l)
);
},
{
closed = 1;
nodes = (
(154,50,o),
(78,132,o),
(78,260,cs),
(78,387,o),
(154,468,o),
(272,468,cs),
(348,468,o),
(420,434,o),
(456,382,c),
(456,180,l),
(434,100,o),
(362,50,o),
(272,50,cs)
);
}
);
width = 566;
},
{
layerId = "73C3FB79-0E24-4863-9919-819B2F26AD09";
shapes = (
{
closed = 1;
nodes = (
(500,-200,l),
(500,520,l),
(456,520,l),
(468,400,l),
(456,400,l),
(430,478,o),
(354,528,o),
(262,528,cs),
(124,528,o),
(36,422,o),
(36,256,cs),
(36,95,o),
(123,-8,o),
(258,-8,cs),
(362,-8,o),
(436,52,o),
(452,148,c),
(464,148,l),
(452,-200,l)
);
},
{
closed = 1;
nodes = (
(141,150,o),
(70,191,o),
(70,260,cs),
(70,327,o),
(144,366,o),
(270,366,cs),
(346,366,o),
(415,351,o),
(456,324,c),
(456,232,l),
(440,180,o),
(369,150,o),
(262,150,cs)
);
}
);
width = 556;
},
{
associatedMasterId = "73C3FB79-0E24-4863-9919-819B2F26AD09";
layerId = "1F31575C-6EF8-4D66-92CF-F9B50C6BF101";
name = "20 gen 22, 14:48";
shapes = (
{
closed = 1;
nodes = (
(496,-200,l),
(496,520,l),
(452,520,l),
(464,412,l),
(452,412,l),
(422,484,o),
(348,528,o),
(260,528,cs),
(124,528,o),
(36,422,o),
(36,256,cs),
(36,95,o),
(122,-8,o),
(256,-8,cs),
(356,-8,o),
(427,49,o),
(448,148,c),
(460,148,l),
(448,-200,l)
);
},
{
closed = 1;
nodes = (
(140,148,o),
(70,188,o),
(70,256,cs),
(70,325,o),
(140,366,o),
(260,366,cs),
(336,366,o),
(407,347,o),
(452,314,c),
(452,222,l),
(425,175,o),
(354,148,o),
(260,148,cs)
);
}
);
width = 552;
},
{
associatedMasterId = "73C3FB79-0E24-4863-9919-819B2F26AD09";
layerId = "2B1F5AAD-5283-43BA-9D5A-D13C00C31946";
name = "20 dic 21, 10:31";
shapes = (
{
closed = 1;
nodes = (
(500,-200,l),
(500,520,l),
(464,520,l),
(476,432,l),
(464,432,l),
(425,490,o),
(349,528,o),
(268,528,cs),
(132,528,o),
(36,414,o),
(36,252,cs),
(36,100,o),
(129,-8,o),
(260,-8,cs),
(354,-8,o),
(437,50,o),
(460,132,c),
(472,132,l),
(460,-200,l)
);
},
{
closed = 1;
nodes = (
(140,128,o),
(68,178,o),
(68,256,cs),
(68,336,o),
(145,388,o),
(264,388,cs),
(347,388,o),
(425,363,o),
(464,324,c),
(464,248,l),
(444,175,o),
(361,128,o),
(252,128,cs)
);
}
);
width = 556;
}
);
metricLeft = o;
metricRight = idotless;
unicode = 113;
},
{
glyphname = r;
kernLeft = idotless;
kernRight = r;
lastChange = "2022-03-27 14:42:21 +0000";
layers = (
{
anchors = (
{
name = bottom;
pos = (82,0);
},
{
name = top;
pos = (180,520);
}
);
layerId = "73C3FB79-0E24-4863-9919-819B2F26AD09";
shapes = (
{
closed = 1;
nodes = (
(100,0,l),
(100,253,ls),
(100,321,o),
(180,348,o),
(316,320,c),
(324,522,l),
(200,546,o),
(112,492,o),
(100,376,c),
(88,376,l),
(106,520,l),
(56,520,l),
(56,0,l)
);
}
);
width = 340;
},
{
anchors = (
{
name = bottom;
pos = (96,0);
},
{
name = top;
pos = (180,520);
}
);
layerId = "DF4F0C8E-2CF9-4068-955F-A12E64B8206D";
shapes = (
{
closed = 1;
nodes = (
(110,0,l),
(110,284,ls),
(110,420,o),
(182,480,o),
(306,460,c),
(306,524,l),
(206,544,o),
(130,495,o),
(110,399,c),
(98,399,l),
(114,520,l),
(74,520,l),
(74,0,l)
);
}
);
width = 328;
},
{
anchors = (
{
name = bottom;
pos = (82,0);
},
{
name = top;
pos = (180,520);
}
);
associatedMasterId = "73C3FB79-0E24-4863-9919-819B2F26AD09";
layerId = "F26A78FA-8B8A-494C-BE20-1BDD67078C70";
name = "19 gen 22, 17:58";
shapes = (
{
closed = 1;
nodes = (
(100,0,l),
(100,212,ls),
(100,312,o),
(176,352,o),
(316,320,c),
(324,520,l),
(200,544,o),
(116,492,o),
(100,376,c),
(88,376,l),
(106,520,l),
(56,520,l),
(56,0,l)
);
}
);
width = 340;
}
);
metricLeft = n;
unicode = 114;
},
{
glyphname = s;
kernLeft = s;
kernRight = s;
lastChange = "2022-03-28 12:27:34 +0000";
layers = (
{
anchors = (
{
name = bottom;
pos = (228,0);
},
{
name = top;
pos = (228,520);
}
);
layerId = "73C3FB79-0E24-4863-9919-819B2F26AD09";
shapes = (
{
closed = 1;
nodes = (
(375,-8,o),
(456,50,o),
(456,140,cs),
(456,212,o),
(403,266,o),
(320,272,cs),
(208,280,ls),
(148,284,o),
(116,300,o),
(116,328,cs),
(116,361,o),
(164,378,o),
(248,378,cs),
(334,378,o),
(396,356,o),
(408,316,c),
(438,322,l),
(438,446,o),
(356,528,o),
(228,528,cs),
(120,528,o),
(44,470,o),
(44,380,cs),
(44,305,o),
(94,253,o),
(172,248,cs),
(300,240,ls),
(358,236,o),
(388,219,o),
(388,192,cs),
(388,158,o),
(336,140,o),
(244,140,cs),
(140,140,o),
(70,164,o),
(58,206,c),
(28,202,l),
(28,70,o),
(116,-8,o),
(256,-8,cs)
);
}
);
width = 484;
},
{
anchors = (
{
name = bottom;
pos = (230,0);
},
{
name = top;
pos = (226,520);
}
);
layerId = "DF4F0C8E-2CF9-4068-955F-A12E64B8206D";
shapes = (
{
closed = 1;
nodes = (
(345,-8,o),
(420,52,o),
(420,136,cs),
(420,206,o),
(365,258,o),
(280,268,cs),
(212,276,ls),
(143,284,o),
(102,320,o),
(102,374,cs),
(102,434,o),
(151,472,o),
(228,472,cs),
(309,472,o),
(364,423,o),
(372,350,c),
(400,352,l),
(396,455,o),
(324,528,o),
(220,528,cs),
(124,528,o),
(54,468,o),
(54,384,cs),
(54,304,o),
(116,254,o),
(200,244,cs),
(268,236,ls),
(335,228,o),
(374,194,o),
(374,144,cs),
(374,84,o),
(320,46,o),
(236,46,cs),
(136,46,o),
(64,96,o),
(52,174,c),
(28,172,l),
(32,67,o),
(119,-8,o),
(238,-8,cs)
);
}
);
width = 456;
},
{
anchors = (
{
name = bottom;
pos = (224,0);
},
{
name = top;
pos = (224,520);
}
);
associatedMasterId = "73C3FB79-0E24-4863-9919-819B2F26AD09";
layerId = "D09A9E35-BF4E-43FE-BDEA-CB27D1A30F66";
name = "21 gen 22, 11:04";
shapes = (
{
closed = 1;
nodes = (
(360,-8,o),
(434,50,o),
(434,140,cs),
(434,216,o),
(384,265,o),
(298,274,cs),
(202,284,ls),
(149,290,o),
(118,312,o),
(118,344,cs),
(118,382,o),
(159,404,o),
(230,404,cs),
(313,404,o),
(372,376,o),
(394,324,c),
(424,328,l),
(424,450,o),
(346,528,o),
(222,528,cs),
(112,528,o),
(42,470,o),
(42,380,cs),
(42,306,o),
(91,257,o),
(174,248,cs),
(286,236,ls),
(337,231,o),
(366,210,o),
(366,180,cs),
(366,142,o),
(320,120,o),
(242,120,cs),
(146,120,o),
(78,152,o),
(58,206,c),
(30,202,l),
(30,74,o),
(115,-8,o),
(246,-8,cs)
);
}
);
width = 468;
}
);
unicode = 115;
},
{
glyphname = germandbls;
kernLeft = Germandbls;
kernRight = B;
lastChange = "2022-03-27 20:36:39 +0000";
layers = (
{
background = {
shapes = (
{
closed = 1;
nodes = (
(120,80,o),
(200,-10,o),
(312,-10,cs),
(436,-10,o),
(526,71,o),
(526,187,cs),
(526,263,o),
(478,328,o),
(382,348,c),
(454,364,o),
(514,428,o),
(514,504,cs),
(514,624,o),
(414,716,o),
(278,716,cs),
(150,716,o),
(56,614,o),
(56,468,c),
(92,444,l),
(92,516,o),
(170,568,o),
(276,568,cs),
(384,568,o),
(456,522,o),
(456,464,cs),
(456,406,o),
(388,366,o),
(298,366,c),
(298,326,l),
(389,326,o),
(462,287,o),
(462,235,cs),
(462,181,o),
(388,142,o),
(288,142,cs),
(216,142,o),
(152,168,o),
(136,204,c),
(120,204,l)
);
},
{
closed = 1;
nodes = (
(338,326,l),
(338,366,l),
(242,366,l),
(242,326,l)
);
},
{
closed = 1;
nodes = (
(92,0,l),
(92,444,l),
(56,468,l),
(56,0,l)
);
}
);
};
layerId = "73C3FB79-0E24-4863-9919-819B2F26AD09";
shapes = (
{
closed = 1;
nodes = (
(100,0,l),
(100,474,ls),
(100,551,o),
(162,596,o),
(268,596,cs),
(364,596,o),
(420,561,o),
(420,500,cs),
(420,438,o),
(361,402,o),
(260,402,cs),
(226,402,l),
(226,358,l),
(268,358,ls),
(387,358,o),
(456,318,o),
(456,250,cs),
(456,170,o),
(363,138,o),
(204,162,c),
(196,-2,l),
(396,-30,o),
(512,50,o),
(512,192,cs),
(512,292,o),
(452,360,o),
(348,376,c),
(348,388,l),
(429,406,o),
(476,470,o),
(476,562,cs),
(476,681,o),
(396,758,o),
(272,758,cs),
(141,758,o),
(56,674,o),
(56,544,cs),
(56,0,l)
);
}
);
width = 558;
},
{
layerId = "DF4F0C8E-2CF9-4068-955F-A12E64B8206D";
shapes = (
{
closed = 1;
nodes = (
(108,0,l),
(108,524,ls),
(108,629,o),
(174,696,o),
(276,696,cs),
(375,696,o),
(438,637,o),
(438,544,cs),
(438,456,o),
(376,399,o),
(280,399,cs),
(234,399,l),
(234,361,l),
(280,361,ls),
(394,361,o),
(468,300,o),
(468,204,cs),
(468,88,o),
(363,31,o),
(200,58,c),
(200,0,l),
(383,-29,o),
(512,49,o),
(512,188,cs),
(512,281,o),
(459,353,o),
(367,377,c),
(367,389,l),
(441,416,o),
(484,480,o),
(484,562,cs),
(484,678,o),
(401,758,o),
(284,758,cs),
(160,758,o),
(72,668,o),
(72,540,cs),
(72,0,l)
);
}
);
width = 560;
},
{
associatedMasterId = "73C3FB79-0E24-4863-9919-819B2F26AD09";
background = {
shapes = (
{
closed = 1;
nodes = (
(128,80,o),
(208,-10,o),
(320,-10,cs),
(444,-10,o),
(534,71,o),
(534,187,cs),
(534,263,o),
(486,328,o),
(390,348,c),
(462,364,o),
(522,428,o),
(522,504,cs),
(522,624,o),
(422,716,o),
(286,716,cs),
(158,716,o),
(64,614,o),
(64,468,c),
(100,444,l),
(100,516,o),
(178,568,o),
(284,568,cs),
(392,568,o),
(464,522,o),
(464,464,cs),
(464,406,o),
(396,366,o),
(306,366,c),
(306,326,l),
(397,326,o),
(470,287,o),
(470,235,cs),
(470,181,o),
(396,142,o),
(296,142,cs),
(224,142,o),
(160,168,o),
(144,204,c),
(128,204,l)
);
},
{
closed = 1;
nodes = (
(346,326,l),
(346,366,l),
(250,366,l),
(250,326,l)
);
},
{
closed = 1;
nodes = (
(100,0,l),
(100,444,l),
(64,468,l),
(64,0,l)
);
}
);
};
layerId = "BC336690-F836-471E-A6EA-6DC7CD40247A";
name = "21 gen 22, 12:02";
shapes = (
{
closed = 1;
nodes = (
(128,80,o),
(208,-10,o),
(320,-10,cs),
(444,-10,o),
(534,71,o),
(534,187,cs),
(534,263,o),
(486,328,o),
(390,348,c),
(462,364,o),
(522,428,o),
(522,504,cs),
(522,624,o),
(422,716,o),
(286,716,cs),
(158,716,o),
(64,614,o),
(64,468,c),
(100,444,l),
(100,516,o),
(178,568,o),
(284,568,cs),
(392,568,o),
(464,522,o),
(464,464,cs),
(464,406,o),
(396,366,o),
(306,366,c),
(306,326,l),
(397,326,o),
(470,287,o),
(470,235,cs),
(470,181,o),
(396,142,o),
(296,142,cs),
(224,142,o),
(160,168,o),
(144,204,c),
(128,204,l)
);
},
{
closed = 1;
nodes = (
(346,326,l),
(346,366,l),
(250,366,l),
(250,326,l)
);
},
{
closed = 1;
nodes = (
(100,0,l),
(100,444,l),
(64,468,l),
(64,0,l)
);
}
);
width = 566;
}
);
metricLeft = "=l-4";
unicode = 223;
},
{
glyphname = t;
kernLeft = Hbar;
kernRight = t;
lastChange = "2022-03-28 12:21:42 +0000";
layers = (
{
anchors = (
{
name = bottom;
pos = (158,0);
},
{
name = topright;
pos = (132,540);
}
);
layerId = "73C3FB79-0E24-4863-9919-819B2F26AD09";
shapes = (
{
closed = 1;
nodes = (
(296,154,l),
(176,130,o),
(108,154,o),
(108,214,cs),
(108,364,l),
(288,364,l),
(288,520,l),
(104,520,l),
(116,664,l),
(72,664,l),
(72,520,l),
(8,520,l),
(8,364,l),
(72,364,l),
(72,156,ls),
(72,36,o),
(160,-26,o),
(304,-2,c)
);
}
);
width = 324;
},
{
anchors = (
{
name = bottom;
pos = (184,0);
},
{
name = topright;
pos = (136,540);
}
);
layerId = "DF4F0C8E-2CF9-4068-955F-A12E64B8206D";
shapes = (
{
closed = 1;
nodes = (
(296,58,l),
(188,34,o),
(124,64,o),
(124,152,cs),
(124,464,l),
(288,464,l),
(288,520,l),
(116,520,l),
(132,664,l),
(88,664,l),
(88,520,l),
(12,520,l),
(12,464,l),
(88,464,l),
(88,128,ls),
(88,20,o),
(168,-28,o),
(296,0,c)
);
}
);
width = 316;
}
);
unicode = 116;
},
{
glyphname = u;
kernLeft = u;
kernRight = idotless;
lastChange = "2022-03-27 21:25:17 +0000";
layers = (
{
anchors = (
{
name = ogonek;
pos = (466,0);
},
{
name = top;
pos = (268,520);
}
);
layerId = "DF4F0C8E-2CF9-4068-955F-A12E64B8206D";
shapes = (
{
closed = 1;
nodes = (
(340,-8,o),
(411,35,o),
(430,96,c),
(442,96,l),
(430,0,l),
(466,0,l),
(466,520,l),
(430,520,l),
(430,164,l),
(412,97,o),
(346,54,o),
(262,54,cs),
(165,54,o),
(102,111,o),
(102,200,cs),
(102,520,l),
(66,520,l),
(66,188,ls),
(66,73,o),
(146,-8,o),
(258,-8,cs)
);
}
);
width = 540;
},
{
anchors = (
{
name = ogonek;
pos = (470,0);
},
{
name = top;
pos = (272,520);
}
);
associatedMasterId = "DF4F0C8E-2CF9-4068-955F-A12E64B8206D";
layerId = "7CBB7D50-2A4E-46F5-B58E-01AEC151F6FB";
name = "10 dic 21, 15:21";
shapes = (
{
closed = 1;
nodes = (
(341,-8,o),
(411,30,o),
(434,84,c),
(446,84,l),
(434,0,l),
(470,0,l),
(470,520,l),
(434,520,l),
(434,136,l),
(406,84,o),
(344,54,o),
(272,54,cs),
(171,54,o),
(106,112,o),
(106,202,cs),
(106,520,l),
(70,520,l),
(70,192,ls),
(70,75,o),
(151,-8,o),
(266,-8,cs)
);
}
);
width = 544;
},
{
anchors = (
{
name = ogonek;
pos = (468,0);
},
{
name = top;
pos = (260,520);
}
);
layerId = "73C3FB79-0E24-4863-9919-819B2F26AD09";
shapes = (
{
closed = 1;
nodes = (
(340,-8,o),
(408,44,o),
(424,120,c),
(436,120,l),
(420,0,l),
(468,0,l),
(468,520,l),
(424,520,l),
(424,240,l),
(410,203,o),
(350,182,o),
(260,182,cs),
(154,182,o),
(92,211,o),
(92,260,cs),
(92,520,l),
(48,520,l),
(48,184,ls),
(48,68,o),
(128,-8,o),
(244,-8,cs)
);
}
);
width = 524;
},
{
anchors = (
{
name = ogonek;
pos = (468,0);
},
{
name = top;
pos = (260,520);
}
);
associatedMasterId = "73C3FB79-0E24-4863-9919-819B2F26AD09";
layerId = "8DA0826F-495F-4AE7-B68A-BB0E580F88C8";
name = "21 gen 22, 09:31";
shapes = (
{
closed = 1;
nodes = (
(343,-8,o),
(412,42,o),
(424,120,c),
(436,120,l),
(420,0,l),
(468,0,l),
(468,520,l),
(424,520,l),
(424,242,l),
(397,204,o),
(336,182,o),
(256,182,cs),
(156,182,o),
(92,223,o),
(92,286,cs),
(92,520,l),
(48,520,l),
(48,196,ls),
(48,72,o),
(126,-8,o),
(248,-8,cs)
);
}
);
width = 524;
},
{
associatedMasterId = "73C3FB79-0E24-4863-9919-819B2F26AD09";
background = {
shapes = (
{
closed = 1;
nodes = (
(50,485,l),
(88,485,l),
(88,238,l),
(50,238,l)
);
},
{
closed = 1;
nodes = (
(429,162,l),
(425,65,o),
(353,-8,o),
(260,-8,cs),
(129,-8,o),
(51,83,o),
(50,238,c),
(88,238,l),
(88,175,o),
(153,138,o),
(264,138,cs),
(347,138,o),
(409,177,o),
(409,230,c)
);
},
{
closed = 1;
nodes = (
(409,0,l),
(409,485,l),
(447,485,l),
(447,0,l)
);
}
);
};
layerId = "C6102801-42ED-4577-856E-BD0D6E345771";
name = "Nov 1 18, 19:37";
shapes = (
{
closed = 1;
nodes = (
(50,485,l),
(88,485,l),
(88,238,l),
(50,238,l)
);
},
{
closed = 1;
nodes = (
(429,162,l),
(425,65,o),
(353,-8,o),
(260,-8,cs),
(129,-8,o),
(51,83,o),
(50,238,c),
(88,238,l),
(88,175,o),
(153,138,o),
(264,138,cs),
(347,138,o),
(409,177,o),
(409,230,c)
);
},
{
closed = 1;
nodes = (
(409,0,l),
(409,485,l),
(447,485,l),
(447,0,l)
);
}
);
width = 503;
}
);
metricLeft = "=|n";
metricRight = idotless;
unicode = 117;
},
{
glyphname = uogonek;
kernLeft = u;
kernRight = idotless;
lastChange = "2022-01-22 13:30:15 +0000";
layers = (
{
layerId = "DF4F0C8E-2CF9-4068-955F-A12E64B8206D";
shapes = (
{
closed = 1;
nodes = (
(482,-160,l),
(412,-178,o),
(362,-158,o),
(362,-114,cs),
(362,-74,o),
(402,-28,o),
(466,0,c),
(430,0,l),
(366,-32,o),
(322,-80,o),
(322,-132,cs),
(322,-196,o),
(386,-228,o),
(482,-204,c)
);
},
{
ref = u;
}
);
width = 544;
},
{
layerId = "73C3FB79-0E24-4863-9919-819B2F26AD09";
shapes = (
{
closed = 1;
nodes = (
(468,-152,l),
(392,-172,o),
(348,-157,o),
(348,-112,cs),
(348,-69,o),
(392,-28,o),
(468,0,c),
(420,0,l),
(352,-26,o),
(304,-76,o),
(304,-132,cs),
(304,-200,o),
(368,-228,o),
(468,-204,c)
);
},
{
ref = u;
}
);
width = 524;
}
);
metricLeft = u;
unicode = 371;
},
{
glyphname = v;
kernLeft = v;
kernRight = v;
lastChange = "2022-03-28 12:09:23 +0000";
layers = (
{
layerId = "73C3FB79-0E24-4863-9919-819B2F26AD09";
shapes = (
{
closed = 1;
nodes = (
(319,0,l),
(506,520,l),
(458,520,l),
(316,124,l),
(304,124,l),
(154,520,l),
(0,520,l),
(207,0,l)
);
}
);
width = 508;
},
{
layerId = "DF4F0C8E-2CF9-4068-955F-A12E64B8206D";
shapes = (
{
closed = 1;
nodes = (
(272,0,l),
(460,520,l),
(420,520,l),
(252,44,l),
(240,44,l),
(64,520,l),
(4,520,l),
(204,0,l)
);
}
);
width = 466;
}
);
metricRight = "=|+2";
unicode = 118;
},
{
glyphname = w;
kernLeft = v;
kernRight = v;
lastChange = "2022-02-16 09:50:11 +0000";
layers = (
{
layerId = "DF4F0C8E-2CF9-4068-955F-A12E64B8206D";
shapes = (
{
closed = 1;
nodes = (
(220,0,l),
(346,468,l),
(358,468,l),
(492,0,l),
(552,0,l),
(700,520,l),
(662,520,l),
(535,60,l),
(523,60,l),
(392,520,l),
(328,520,l),
(203,60,l),
(191,60,l),
(62,520,l),
(4,520,l),
(160,0,l)
);
}
);
width = 706;
},
{
associatedMasterId = "DF4F0C8E-2CF9-4068-955F-A12E64B8206D";
layerId = "8E60E95F-20F6-462C-8A1E-B9D059105F3F";
name = "27 gen 22, 13:51";
shapes = (
{
closed = 1;
nodes = (
(220,0,l),
(346,468,l),
(358,468,l),
(492,0,l),
(556,0,l),
(702,520,l),
(662,520,l),
(538,60,l),
(526,60,l),
(394,520,l),
(326,520,l),
(204,60,l),
(192,60,l),
(62,520,l),
(4,520,l),
(158,0,l)
);
}
);
width = 708;
},
{
associatedMasterId = "DF4F0C8E-2CF9-4068-955F-A12E64B8206D";
layerId = "DE4F0955-82F5-425F-9C77-4AF3FF8564D4";
name = "10 dic 21, 17:02";
shapes = (
{
closed = 1;
nodes = (
(220,0,l),
(348,464,l),
(360,464,l),
(500,0,l),
(568,0,l),
(712,520,l),
(672,520,l),
(550,60,l),
(538,60,l),
(400,520,l),
(328,520,l),
(204,60,l),
(192,60,l),
(64,520,l),
(4,520,l),
(156,0,l)
);
}
);
width = 718;
},
{
layerId = "73C3FB79-0E24-4863-9919-819B2F26AD09";
name = Black;
shapes = (
{
closed = 1;
nodes = (
(242,0,l),
(340,396,l),
(348,396,l),
(458,0,l),
(558,0,l),
(690,520,l),
(644,520,l),
(552,132,l),
(540,132,l),
(432,520,l),
(332,520,l),
(240,132,l),
(228,132,l),
(140,520,l),
(4,520,l),
(144,0,l)
);
}
);
width = 696;
},
{
associatedMasterId = "73C3FB79-0E24-4863-9919-819B2F26AD09";
layerId = "B6362AE9-C8F1-4C0C-AFA0-135394ACE787";
name = "10 feb 22, 16:21";
shapes = (
{
closed = 1;
nodes = (
(264,0,l),
(360,376,l),
(368,376,l),
(472,0,l),
(590,0,l),
(730,520,l),
(684,520,l),
(586,148,l),
(578,148,l),
(476,520,l),
(356,520,l),
(264,148,l),
(256,148,l),
(160,520,l),
(4,520,l),
(148,0,l)
);
}
);
width = 736;
}
);
metricRight = "=|+2";
unicode = 119;
},
{
color = 3;
glyphname = x;
kernLeft = x;
kernRight = x;
lastChange = "2022-03-28 12:09:39 +0000";
layers = (
{
layerId = "DF4F0C8E-2CF9-4068-955F-A12E64B8206D";
shapes = (
{
closed = 1;
nodes = (
(66,0,l),
(218,224,l),
(230,224,l),
(386,0,l),
(452,0,l),
(260,272,l),
(432,520,l),
(384,520,l),
(242,308,l),
(230,308,l),
(86,520,l),
(16,520,l),
(200,260,l),
(20,0,l)
);
}
);
width = 460;
},
{
associatedMasterId = "DF4F0C8E-2CF9-4068-955F-A12E64B8206D";
layerId = "552693A1-226F-4D4E-8278-9DBF4CC5D2FA";
name = "30 nov 21, 10:54";
shapes = (
{
closed = 1;
nodes = (
(66,0,l),
(432,520,l),
(384,520,l),
(20,0,l)
);
},
{
closed = 1;
nodes = (
(452,0,l),
(86,520,l),
(16,520,l),
(384,0,l)
);
}
);
width = 600;
},
{
background = {
shapes = (
{
closed = 1;
nodes = (
(524,0,l),
(190,520,l),
(0,520,l),
(336,0,l)
);
}
);
};
layerId = "73C3FB79-0E24-4863-9919-819B2F26AD09";
shapes = (
{
closed = 1;
nodes = (
(68,0,l),
(194,208,l),
(206,208,l),
(336,0,l),
(524,0,l),
(348,264,l),
(492,520,l),
(440,520,l),
(328,316,l),
(316,316,l),
(190,520,l),
(0,520,l),
(176,260,l),
(16,0,l)
);
}
);
width = 516;
},
{
associatedMasterId = "73C3FB79-0E24-4863-9919-819B2F26AD09";
background = {
shapes = (
{
closed = 1;
nodes = (
(544,0,l),
(200,520,l),
(0,520,l),
(346,0,l)
);
}
);
};
layerId = "000132DD-D41B-4549-948D-022D5F2ED523";
name = "16 feb 22, 12:07";
shapes = (
{
closed = 1;
nodes = (
(68,0,l),
(195,216,l),
(207,216,l),
(346,0,l),
(544,0,l),
(364,264,l),
(510,520,l),
(456,520,l),
(342,316,l),
(330,316,l),
(200,520,l),
(0,520,l),
(174,266,l),
(16,0,l)
);
}
);
width = 536;
},
{
associatedMasterId = "73C3FB79-0E24-4863-9919-819B2F26AD09";
background = {
shapes = (
{
closed = 1;
nodes = (
(528,0,l),
(208,520,l),
(4,520,l),
(326,0,l)
);
}
);
};
layerId = "1AC0D3C9-C795-425E-9B51-2AD06D149726";
name = "14 feb 22, 17:37";
shapes = (
{
closed = 1;
nodes = (
(70,0,l),
(194,204,l),
(206,204,l),
(326,0,l),
(528,0,l),
(352,280,l),
(484,520,l),
(432,520,l),
(330,332,l),
(318,332,l),
(208,520,l),
(4,520,l),
(174,254,l),
(18,0,l)
);
}
);
width = 532;
}
);
metricRight = "=|-8";
unicode = 120;
},
{
glyphname = y;
kernLeft = v;
kernRight = v;
lastChange = "2022-02-16 09:50:36 +0000";
layers = (
{
anchors = (
{
name = top;
pos = (264,520);
}
);
layerId = "73C3FB79-0E24-4863-9919-819B2F26AD09";
shapes = (
{
closed = 1;
nodes = (
(250,-200,l),
(502,520,l),
(454,520,l),
(313,112,l),
(301,112,l),
(152,520,l),
(0,520,l),
(200,0,l),
(274,0,l),
(202,-200,l)
);
}
);
width = 504;
},
{
anchors = (
{
name = top;
pos = (248,520);
}
);
layerId = "DF4F0C8E-2CF9-4068-955F-A12E64B8206D";
shapes = (
{
closed = 1;
nodes = (
(196,-200,l),
(474,520,l),
(432,520,l),
(266,80,l),
(254,80,l),
(64,520,l),
(4,520,l),
(234,0,l),
(234,0,l),
(156,-200,l)
);
}
);
width = 480;
},
{
anchors = (
{
name = top;
pos = (248,520);
}
);
associatedMasterId = "DF4F0C8E-2CF9-4068-955F-A12E64B8206D";
layerId = "5CF407A8-8BE2-4685-B739-0D9DC7EEB797";
name = "10 dic 21, 17:04";
shapes = (
{
closed = 1;
nodes = (
(202,-200,l),
(476,520,l),
(434,520,l),
(266,68,l),
(254,68,l),
(66,520,l),
(4,520,l),
(224,0,l),
(240,0,l),
(160,-200,l)
);
}
);
width = 482;
},
{
anchors = (
{
name = top;
pos = (268,520);
}
);
associatedMasterId = "73C3FB79-0E24-4863-9919-819B2F26AD09";
layerId = "7FA56A4A-61A7-4C31-BA6A-9029AD159926";
name = "21 gen 22, 10:27";
shapes = (
{
closed = 1;
nodes = (
(254,-200,l),
(486,520,l),
(434,520,l),
(323,140,l),
(311,140,l),
(196,520,l),
(0,520,l),
(192,0,l),
(268,0,l),
(202,-200,l)
);
}
);
width = 488;
}
);
metricLeft = v;
metricRight = v;
unicode = 121;
},
{
glyphname = z;
kernLeft = z;
kernRight = z;
lastChange = "2022-03-27 20:40:11 +0000";
layers = (
{
anchors = (
{
name = top;
pos = (236,520);
}
);
layerId = "73C3FB79-0E24-4863-9919-819B2F26AD09";
shapes = (
{
closed = 1;
nodes = (
(440,0,l),
(440,152,l),
(122,152,l),
(122,164,l),
(436,352,l),
(436,520,l),
(40,520,l),
(40,366,l),
(356,366,l),
(356,354,l),
(44,164,l),
(44,0,l)
);
}
);
width = 476;
},
{
anchors = (
{
name = top;
pos = (240,520);
}
);
layerId = "DF4F0C8E-2CF9-4068-955F-A12E64B8206D";
shapes = (
{
closed = 1;
nodes = (
(432,0,l),
(432,56,l),
(102,56,l),
(102,68,l),
(432,462,l),
(432,520,l),
(48,520,l),
(48,466,l),
(380,466,l),
(380,454,l),
(52,60,l),
(52,0,l)
);
}
);
width = 476;
}
);
metricRight = "=|-4";
unicode = 122;
},
{
glyphname = t_t;
kernLeft = Hbar;
kernRight = t;
lastChange = "2022-02-19 14:13:19 +0000";
layers = (
{
layerId = "73C3FB79-0E24-4863-9919-819B2F26AD09";
shapes = (
{
closed = 1;
nodes = (
(612,152,l),
(489,129,o),
(424,162,o),
(424,248,cs),
(424,364,l),
(604,364,l),
(604,520,l),
(416,520,l),
(428,664,l),
(388,664,l),
(388,520,l),
(288,520,l),
(288,364,l),
(388,364,l),
(388,160,ls),
(388,34,o),
(474,-25,o),
(620,0,c)
);
},
{
ref = t;
}
);
width = 640;
},
{
layerId = "DF4F0C8E-2CF9-4068-955F-A12E64B8206D";
shapes = (
{
closed = 1;
nodes = (
(604,58,l),
(496,34,o),
(432,64,o),
(432,152,cs),
(432,464,l),
(596,464,l),
(596,520,l),
(424,520,l),
(440,664,l),
(396,664,l),
(396,520,l),
(288,520,l),
(288,464,l),
(396,464,l),
(396,128,ls),
(396,20,o),
(476,-28,o),
(604,0,c)
);
},
{
ref = t;
}
);
width = 624;
}
);
metricLeft = t;
metricRight = t;
},
{
glyphname = t_t_t;
kernLeft = Hbar;
kernRight = t;
lastChange = "2022-02-19 14:13:19 +0000";
layers = (
{
layerId = "73C3FB79-0E24-4863-9919-819B2F26AD09";
shapes = (
{
closed = 1;
nodes = (
(612,152,l),
(489,129,o),
(424,162,o),
(424,248,cs),
(424,364,l),
(604,364,l),
(604,520,l),
(416,520,l),
(428,664,l),
(388,664,l),
(388,520,l),
(288,520,l),
(288,364,l),
(388,364,l),
(388,160,ls),
(388,34,o),
(474,-25,o),
(620,0,c)
);
},
{
closed = 1;
nodes = (
(924,152,l),
(801,129,o),
(736,162,o),
(736,248,cs),
(736,364,l),
(916,364,l),
(916,520,l),
(728,520,l),
(740,664,l),
(700,664,l),
(700,520,l),
(604,520,l),
(604,364,l),
(700,364,l),
(700,160,ls),
(700,34,o),
(786,-25,o),
(932,0,c)
);
},
{
ref = t;
}
);
width = 952;
},
{
associatedMasterId = "73C3FB79-0E24-4863-9919-819B2F26AD09";
layerId = "99F98097-EB27-40E3-8CA3-81144082DCCB";
name = "Oct 29 18, 22:48";
shapes = (
{
closed = 1;
nodes = (
(126,750,l),
(126,177,l),
(88,173,l),
(88,750,l)
);
},
{
closed = 1;
nodes = (
(886,113,l),
(890,-11,l),
(230,-11,l),
(141,-11,o),
(88,57,o),
(88,173,c),
(126,177,l),
(126,137,o),
(169,113,o),
(226,113,c)
);
},
{
closed = 1;
nodes = (
(970,485,l),
(970,337,l),
(32,337,l),
(32,485,l)
);
},
{
closed = 1;
nodes = (
(456,750,l),
(456,177,l),
(418,173,l),
(418,750,l)
);
},
{
closed = 1;
nodes = (
(378,113,l),
(401,113,o),
(418,139,o),
(418,173,c),
(456,177,l),
(456,137,o),
(499,113,o),
(556,113,c)
);
},
{
closed = 1;
nodes = (
(786,750,l),
(786,177,l),
(748,173,l),
(748,750,l)
);
},
{
closed = 1;
nodes = (
(978,15,l),
(962,-1,o),
(924,-11,o),
(890,-11,cs),
(821,-11,o),
(774,29,o),
(756,101,c),
(708,113,l),
(731,113,o),
(748,139,o),
(748,173,c),
(786,177,l),
(786,137,o),
(829,113,o),
(886,113,cs),
(921,113,o),
(955,122,o),
(976,137,c)
);
}
);
width = 1010;
},
{
layerId = "DF4F0C8E-2CF9-4068-955F-A12E64B8206D";
shapes = (
{
closed = 1;
nodes = (
(604,58,l),
(496,34,o),
(432,64,o),
(432,152,cs),
(432,464,l),
(596,464,l),
(596,520,l),
(424,520,l),
(440,664,l),
(396,664,l),
(396,520,l),
(288,520,l),
(288,464,l),
(396,464,l),
(396,128,ls),
(396,20,o),
(476,-28,o),
(604,0,c)
);
},
{
closed = 1;
nodes = (
(908,58,l),
(800,34,o),
(736,64,o),
(736,152,cs),
(736,464,l),
(900,464,l),
(900,520,l),
(728,520,l),
(744,664,l),
(700,664,l),
(700,520,l),
(596,520,l),
(596,464,l),
(700,464,l),
(700,128,ls),
(700,20,o),
(780,-28,o),
(908,0,c)
);
},
{
ref = t;
}
);
width = 928;
}
);
metricLeft = t;
metricRight = t;
},
{
color = 3;
glyphname = ordfeminine;
kernLeft = degree;
kernRight = degree;
lastChange = "2022-04-13 07:08:35 +0000";
layers = (
{
layerId = "DF4F0C8E-2CF9-4068-955F-A12E64B8206D";
shapes = (
{
closed = 1;
nodes = (
(314,342,l),
(314,572,ls),
(314,652,o),
(262,708,o),
(188,708,cs),
(115,708,o),
(60,657,o),
(56,584,c),
(84,580,l),
(92,626,o),
(132,654,o),
(184,654,cs),
(246,654,o),
(282,617,o),
(282,560,cs),
(282,480,l),
(274,422,o),
(224,382,o),
(156,382,cs),
(105,382,o),
(72,407,o),
(72,444,cs),
(72,480,o),
(101,503,o),
(146,503,cs),
(296,503,l),
(296,533,l),
(141,533,ls),
(77,533,o),
(32,493,o),
(32,436,cs),
(32,377,o),
(82,336,o),
(152,336,cs),
(220,336,o),
(270,373,o),
(282,433,c),
(290,433,l),
(278,342,l)
);
}
);
width = 364;
},
{
background = {
shapes = (
{
closed = 1;
nodes = (
(320,342,l),
(320,572,ls),
(320,652,o),
(268,708,o),
(194,708,cs),
(121,708,o),
(66,657,o),
(62,584,c),
(90,580,l),
(98,626,o),
(138,654,o),
(190,654,cs),
(252,654,o),
(288,617,o),
(288,560,cs),
(288,480,l),
(280,422,o),
(230,382,o),
(162,382,cs),
(111,382,o),
(78,407,o),
(78,444,cs),
(78,480,o),
(107,503,o),
(152,503,cs),
(302,503,l),
(302,533,l),
(147,533,ls),
(83,533,o),
(38,493,o),
(38,436,cs),
(38,377,o),
(88,336,o),
(158,336,cs),
(226,336,o),
(276,373,o),
(288,433,c),
(296,433,l),
(284,342,l)
);
}
);
};
layerId = "73C3FB79-0E24-4863-9919-819B2F26AD09";
shapes = (
{
closed = 1;
nodes = (
(332,342,l),
(332,561,ls),
(332,647,o),
(274,708,o),
(191,708,cs),
(110,708,o),
(50,650,o),
(47,569,c),
(71,564,l),
(78,587,o),
(120,602,o),
(178,602,cs),
(249,602,o),
(294,582,o),
(294,552,cs),
(294,488,l),
(284,458,o),
(238,439,o),
(176,439,cs),
(124,439,o),
(90,453,o),
(90,476,cs),
(90,493,o),
(108,504,o),
(137,504,cs),
(302,504,l),
(302,536,l),
(138,536,ls),
(71,536,o),
(24,496,o),
(24,440,cs),
(24,379,o),
(77,336,o),
(151,336,cs),
(227,336,o),
(286,382,o),
(294,448,c),
(303,448,l),
(286,342,l)
);
}
);
width = 372;
}
);
unicode = 170;
},
{
glyphname = ordmasculine;
kernLeft = degree;
kernRight = degree;
lastChange = "2022-02-19 14:14:20 +0000";
layers = (
{
layerId = "DF4F0C8E-2CF9-4068-955F-A12E64B8206D";
shapes = (
{
closed = 1;
nodes = (
(306,324,o),
(376,401,o),
(376,511,cs),
(376,624,o),
(306,704,o),
(206,704,cs),
(106,704,o),
(36,624,o),
(36,511,cs),
(36,401,o),
(106,324,o),
(206,324,cs)
);
},
{
closed = 1;
nodes = (
(122,378,o),
(68,431,o),
(68,513,cs),
(68,595,o),
(122,648,o),
(206,648,cs),
(290,648,o),
(344,595,o),
(344,513,cs),
(344,431,o),
(290,378,o),
(206,378,cs)
);
}
);
width = 412;
},
{
layerId = "73C3FB79-0E24-4863-9919-819B2F26AD09";
shapes = (
{
closed = 1;
nodes = (
(312,324,o),
(380,397,o),
(380,511,cs),
(380,628,o),
(312,704,o),
(206,704,cs),
(100,704,o),
(32,628,o),
(32,511,cs),
(32,397,o),
(100,324,o),
(206,324,cs)
);
},
{
closed = 1;
nodes = (
(116,436,o),
(64,464,o),
(64,513,cs),
(64,562,o),
(116,590,o),
(206,590,cs),
(296,590,o),
(348,562,o),
(348,513,cs),
(348,464,o),
(296,436,o),
(206,436,cs)
);
}
);
width = 412;
}
);
metricRight = "=|";
unicode = 186;
},
{
glyphname = zero;
kernLeft = zero;
kernRight = zero;
lastChange = "2022-03-27 21:27:25 +0000";
layers = (
{
layerId = "73C3FB79-0E24-4863-9919-819B2F26AD09";
shapes = (
{
closed = 1;
nodes = (
(486,-8,o),
(592,132,o),
(592,350,cs),
(592,568,o),
(486,708,o),
(320,708,cs),
(154,708,o),
(48,568,o),
(48,350,cs),
(48,132,o),
(154,-8,o),
(320,-8,cs)
);
},
{
closed = 1;
nodes = (
(171,166,o),
(84,233,o),
(84,349,cs),
(84,465,o),
(171,532,o),
(320,532,cs),
(469,532,o),
(556,465,o),
(556,349,cs),
(556,233,o),
(469,166,o),
(320,166,cs)
);
}
);
width = 640;
},
{
layerId = "DF4F0C8E-2CF9-4068-955F-A12E64B8206D";
shapes = (
{
closed = 1;
nodes = (
(479,-8,o),
(588,140,o),
(588,350,cs),
(588,560,o),
(479,708,o),
(324,708,cs),
(169,708,o),
(60,560,o),
(60,350,cs),
(60,140,o),
(169,-8,o),
(324,-8,cs)
);
},
{
closed = 1;
nodes = (
(185,56,o),
(96,171,o),
(96,349,cs),
(96,527,o),
(185,642,o),
(324,642,cs),
(463,642,o),
(552,527,o),
(552,349,cs),
(552,171,o),
(463,56,o),
(324,56,cs)
);
}
);
width = 648;
}
);
metricRight = "=|";
unicode = 48;
},
{
glyphname = one;
kernRight = H;
lastChange = "2022-03-27 20:52:30 +0000";
layers = (
{
layerId = "73C3FB79-0E24-4863-9919-819B2F26AD09";
shapes = (
{
closed = 1;
nodes = (
(268,0,l),
(268,700,l),
(224,700,l),
(224,608,o),
(148,552,o),
(12,552,c),
(12,344,l),
(120,344,o),
(188,378,o),
(208,442,c),
(220,442,l),
(220,0,l)
);
}
);
width = 328;
},
{
associatedMasterId = "73C3FB79-0E24-4863-9919-819B2F26AD09";
layerId = "F00E7F42-788F-42EA-929D-2ACBE412AAFE";
name = "Dec 1 17, 20:45";
shapes = (
{
closed = 1;
nodes = (
(270,706,l),
(270,0,l),
(232,0,l),
(232,706,l)
);
},
{
closed = 1;
nodes = (
(165,569,o),
(232,620,o),
(232,706,c),
(236,514,l),
(228,449,o),
(159,410,o),
(52,410,c),
(52,568,l)
);
},
{
closed = 1;
nodes = (
(426,148,l),
(426,0,l),
(56,0,l),
(56,148,l)
);
}
);
width = 442;
},
{
associatedMasterId = "73C3FB79-0E24-4863-9919-819B2F26AD09";
layerId = "376F0936-C400-496A-A560-06B281BE99DE";
name = "Dec 12 17, 23:38";
shapes = (
{
closed = 1;
nodes = (
(234,706,l),
(234,0,l),
(196,0,l),
(196,706,l)
);
},
{
closed = 1;
nodes = (
(390,148,l),
(390,0,l),
(36,0,l),
(36,148,l)
);
},
{
closed = 1;
nodes = (
(32,530,l),
(196,530,l),
(196,706,l),
(32,706,l)
);
}
);
width = 406;
},
{
layerId = "DF4F0C8E-2CF9-4068-955F-A12E64B8206D";
shapes = (
{
closed = 1;
nodes = (
(244,0,l),
(244,700,l),
(202,700,l),
(202,590,o),
(128,520,o),
(12,520,c),
(12,452,l),
(94,454,o),
(165,495,o),
(194,556,c),
(206,556,l),
(206,0,l)
);
}
);
width = 324;
}
);
metricRight = H;
unicode = 49;
},
{
glyphname = two;
lastChange = "2022-03-27 21:27:31 +0000";
layers = (
{
layerId = "73C3FB79-0E24-4863-9919-819B2F26AD09";
shapes = (
{
closed = 1;
nodes = (
(492,0,l),
(492,164,l),
(140,164,l),
(140,176,l),
(368,240,o),
(496,340,o),
(496,492,cs),
(496,620,o),
(408,708,o),
(272,708,cs),
(128,708,o),
(36,602,o),
(36,438,c),
(68,434,l),
(81,498,o),
(149,536,o),
(252,536,cs),
(360,536,o),
(424,496,o),
(424,424,cs),
(424,328,o),
(300,244,o),
(44,180,c),
(44,0,l)
);
}
);
width = 544;
},
{
layerId = "DF4F0C8E-2CF9-4068-955F-A12E64B8206D";
name = Light;
shapes = (
{
closed = 1;
nodes = (
(464,0,l),
(464,64,l),
(128,64,l),
(128,76,l),
(320,180,o),
(460,324,o),
(460,488,cs),
(460,617,o),
(375,708,o),
(256,708,cs),
(127,708,o),
(36,599,o),
(36,446,c),
(68,444,l),
(72,564,o),
(144,642,o),
(252,642,cs),
(352,642,o),
(416,575,o),
(416,472,cs),
(416,312,o),
(260,172,o),
(48,60,c),
(48,0,l)
);
}
);
width = 516;
},
{
associatedMasterId = "DF4F0C8E-2CF9-4068-955F-A12E64B8206D";
layerId = "91268E0D-596B-48C7-B95B-EA2DF316B2DC";
name = "10 gen 22, 11:08";
shapes = (
{
closed = 1;
nodes = (
(462,0,l),
(462,64,l),
(96,64,l),
(96,76,l),
(320,148,o),
(462,292,o),
(462,472,cs),
(462,610,o),
(380,708,o),
(262,708,cs),
(135,708,o),
(44,598,o),
(42,442,c),
(74,440,l),
(78,560,o),
(150,642,o),
(254,642,cs),
(352,642,o),
(416,568,o),
(416,456,cs),
(416,296,o),
(286,168,o),
(46,80,c),
(46,0,l)
);
}
);
width = 520;
},
{
associatedMasterId = "DF4F0C8E-2CF9-4068-955F-A12E64B8206D";
layerId = "E026A2AF-0DC5-481B-8058-D322BCCAE412";
name = "6 dic 21, 16:34";
shapes = (
{
closed = 1;
nodes = (
(448,0,l),
(448,62,l),
(82,62,l),
(82,74,l),
(302,150,o),
(446,304,o),
(446,480,cs),
(446,614,o),
(362,708,o),
(244,708,cs),
(126,708,o),
(36,616,o),
(28,480,c),
(58,476,l),
(70,578,o),
(139,644,o),
(236,644,cs),
(336,644,o),
(400,574,o),
(400,464,cs),
(400,306,o),
(267,169,o),
(32,74,c),
(32,0,l)
);
}
);
width = 492;
}
);
unicode = 50;
},
{
glyphname = three;
kernLeft = five;
kernRight = eight;
lastChange = "2022-03-27 21:27:37 +0000";
layers = (
{
layerId = "73C3FB79-0E24-4863-9919-819B2F26AD09";
shapes = (
{
closed = 1;
nodes = (
(438,-8,o),
(536,64,o),
(536,180,cs),
(536,274,o),
(476,333,o),
(380,343,c),
(380,355,l),
(463,364,o),
(516,427,o),
(516,516,cs),
(516,633,o),
(428,708,o),
(292,708,cs),
(144,708,o),
(58,612,o),
(58,472,c),
(90,468,l),
(98,512,o),
(172,538,o),
(276,538,cs),
(388,538,o),
(454,506,o),
(454,452,cs),
(454,401,o),
(394,372,o),
(292,372,cs),
(196,372,l),
(196,324,l),
(288,324,ls),
(402,324,o),
(468,294,o),
(468,242,cs),
(468,190,o),
(399,160,o),
(280,160,cs),
(164,160,o),
(90,190,o),
(78,242,c),
(46,238,l),
(46,90,o),
(136,-8,o),
(300,-8,cs)
);
}
);
width = 576;
},
{
layerId = "DF4F0C8E-2CF9-4068-955F-A12E64B8206D";
shapes = (
{
closed = 1;
nodes = (
(434,-8,o),
(522,64,o),
(522,174,cs),
(522,264,o),
(464,327,o),
(376,343,c),
(376,355,l),
(458,372,o),
(510,437,o),
(510,520,cs),
(510,630,o),
(422,708,o),
(300,708,cs),
(164,708,o),
(70,612,o),
(70,480,c),
(102,476,l),
(106,576,o),
(184,642,o),
(296,642,cs),
(396,642,o),
(464,590,o),
(464,506,cs),
(464,422,o),
(396,367,o),
(300,367,cs),
(262,367,l),
(262,329,l),
(300,329,ls),
(408,329,o),
(476,276,o),
(476,192,cs),
(476,108,o),
(405,56,o),
(298,56,cs),
(182,56,o),
(100,120,o),
(88,212,c),
(60,208,l),
(64,80,o),
(162,-8,o),
(302,-8,cs)
);
}
);
width = 576;
}
);
metricRight = eight;
unicode = 51;
},
{
glyphname = four;
lastChange = "2022-03-28 12:28:14 +0000";
layers = (
{
layerId = "DF4F0C8E-2CF9-4068-955F-A12E64B8206D";
shapes = (
{
closed = 1;
nodes = (
(398,0,l),
(398,700,l),
(352,700,l),
(18,208,l),
(18,142,l),
(482,142,l),
(482,204,l),
(68,204,l),
(68,216,l),
(350,632,l),
(362,632,l),
(362,0,l)
);
}
);
width = 508;
},
{
layerId = "73C3FB79-0E24-4863-9919-819B2F26AD09";
shapes = (
{
closed = 1;
nodes = (
(416,0,l),
(416,700,l),
(316,700,l),
(16,252,l),
(16,118,l),
(496,118,l),
(496,290,l),
(108,290,l),
(108,302,l),
(248,512,l),
(370,512,l),
(370,0,l)
);
}
);
width = 516;
},
{
associatedMasterId = "73C3FB79-0E24-4863-9919-819B2F26AD09";
background = {
shapes = (
{
closed = 1;
nodes = (
(416,706,l),
(416,0,l),
(378,0,l),
(378,706,l)
);
},
{
closed = 1;
nodes = (
(103,292,l),
(476,292,l),
(476,144,l),
(32,144,l),
(32,236,l)
);
},
{
closed = 1;
nodes = (
(32,236,l),
(374,706,l),
(378,706,l),
(378,530,l),
(292,530,l),
(80,236,l)
);
}
);
};
layerId = "B7A5099E-BEFF-472A-A30D-169EC2BEBC95";
name = "17 gen 22, 19:44";
shapes = (
{
closed = 1;
nodes = (
(416,706,l),
(416,0,l),
(378,0,l),
(378,706,l)
);
},
{
closed = 1;
nodes = (
(103,292,l),
(476,292,l),
(476,144,l),
(32,144,l),
(32,236,l)
);
},
{
closed = 1;
nodes = (
(32,236,l),
(374,706,l),
(378,706,l),
(378,530,l),
(292,530,l),
(80,236,l)
);
}
);
width = 512;
},
{
associatedMasterId = "73C3FB79-0E24-4863-9919-819B2F26AD09";
layerId = "B46E4540-D197-4FBC-9D89-611E09DAC372";
name = "Aug 28 17, 18:53";
shapes = (
{
closed = 1;
nodes = (
(384,706,l),
(384,0,l),
(346,0,l),
(346,706,l)
);
},
{
closed = 1;
nodes = (
(57,348,l),
(480,348,l),
(480,196,l),
(12,196,l),
(12,292,l)
);
},
{
closed = 1;
nodes = (
(12,292,l),
(342,706,l),
(346,706,l),
(346,654,l),
(346,530,l),
(248,530,l),
(64,292,l)
);
}
);
width = 506;
},
{
associatedMasterId = "73C3FB79-0E24-4863-9919-819B2F26AD09";
background = {
shapes = (
{
closed = 1;
nodes = (
(401,0,l),
(501,0,l),
(501,169,l),
(623,169,l),
(623,253,l),
(501,253,l),
(501,714,l),
(413,714,l),
(36,261,l),
(36,169,l),
(401,169,l)
);
},
{
closed = 1;
nodes = (
(401,253,l),
(136,253,l),
(399,574,l),
(401,574,l)
);
}
);
};
layerId = "407125ED-A152-4C85-9E0F-655BD64034F4";
name = "Jan 2 18, 21:56";
shapes = (
{
closed = 1;
nodes = (
(416,706,l),
(416,0,l),
(378,0,l),
(378,706,l)
);
},
{
closed = 1;
nodes = (
(95,320,l),
(476,320,l),
(476,168,l),
(24,168,l),
(24,264,l)
);
},
{
closed = 1;
nodes = (
(24,264,l),
(374,706,l),
(378,706,l),
(378,654,l),
(378,530,l),
(290,530,l),
(76,264,l)
);
}
);
width = 512;
},
{
associatedMasterId = "73C3FB79-0E24-4863-9919-819B2F26AD09";
background = {
shapes = (
{
closed = 1;
nodes = (
(416,706,l),
(416,0,l),
(378,0,l),
(378,706,l)
);
},
{
closed = 1;
nodes = (
(103,292,l),
(476,292,l),
(476,144,l),
(32,144,l),
(32,236,l)
);
},
{
closed = 1;
nodes = (
(32,236,l),
(374,706,l),
(378,706,l),
(378,530,l),
(292,530,l),
(80,236,l)
);
}
);
};
layerId = "C706D69F-462B-4703-AB78-0FDC000C25C5";
name = "Jan 4 19, 16:34";
shapes = (
{
closed = 1;
nodes = (
(416,706,l),
(416,0,l),
(378,0,l),
(378,706,l)
);
},
{
closed = 1;
nodes = (
(103,292,l),
(476,292,l),
(476,144,l),
(32,144,l),
(32,236,l)
);
},
{
closed = 1;
nodes = (
(32,236,l),
(374,706,l),
(378,706,l),
(378,530,l),
(292,530,l),
(80,236,l)
);
}
);
width = 512;
}
);
unicode = 52;
},
{
glyphname = five;
kernLeft = five;
kernRight = five;
lastChange = "2022-03-28 12:28:34 +0000";
layers = (
{
layerId = "DF4F0C8E-2CF9-4068-955F-A12E64B8206D";
shapes = (
{
closed = 1;
nodes = (
(420,-8,o),
(514,86,o),
(514,220,cs),
(514,432,o),
(286,496,o),
(134,380,c),
(124,382,l),
(170,636,l),
(482,636,l),
(482,700,l),
(142,700,l),
(82,360,l),
(134,348,l),
(262,456,o),
(468,408,o),
(468,228,cs),
(468,123,o),
(394,56,o),
(280,56,cs),
(169,56,o),
(90,120,o),
(78,220,c),
(50,216,l),
(54,85,o),
(152,-8,o),
(286,-8,cs)
);
}
);
width = 556;
},
{
layerId = "73C3FB79-0E24-4863-9919-819B2F26AD09";
shapes = (
{
closed = 1;
nodes = (
(432,-8,o),
(526,77,o),
(526,208,cs),
(526,416,o),
(300,473,o),
(136,372,c),
(126,374,l),
(140,532,l),
(490,532,l),
(490,700,l),
(108,700,l),
(78,346,l),
(136,336,l),
(256,420,o),
(458,386,o),
(458,270,cs),
(458,203,o),
(389,160,o),
(272,160,cs),
(164,160,o),
(88,196,o),
(72,248,c),
(40,242,l),
(40,90,o),
(136,-8,o),
(286,-8,cs)
);
}
);
width = 556;
},
{
associatedMasterId = "73C3FB79-0E24-4863-9919-819B2F26AD09";
layerId = "58340D19-872A-4ADC-9A58-26B55DE11085";
name = "19 gen 22, 10:17";
shapes = (
{
closed = 1;
nodes = (
(28,106,o),
(124,-10,o),
(270,-10,cs),
(410,-10,o),
(516,82,o),
(516,218,cs),
(516,342,o),
(409,432,o),
(269,432,cs),
(197,432,o),
(144,407,o),
(112,383,c),
(104,387,l),
(137,356,l),
(171,375,o),
(213,392,o),
(265,392,cs),
(377,392,o),
(454,338,o),
(454,266,cs),
(454,194,o),
(372,140,o),
(262,140,cs),
(160,140,o),
(72,190,o),
(44,262,c),
(28,262,l)
);
},
{
closed = 1;
nodes = (
(89,706,l),
(89,556,l),
(492,556,l),
(492,706,l)
);
},
{
closed = 1;
nodes = (
(68,345,l),
(101,331,l),
(111,339,o),
(121,348,o),
(137,356,c),
(104,387,l),
(123,706,l),
(89,706,l)
);
}
);
width = 548;
},
{
associatedMasterId = "73C3FB79-0E24-4863-9919-819B2F26AD09";
background = {
shapes = (
{
closed = 1;
nodes = (
(30,94,o),
(134,-10,o),
(270,-10,cs),
(407,-10,o),
(510,95,o),
(510,235,cs),
(510,368,o),
(407,468,o),
(270,468,cs),
(135,468,o),
(48,399,o),
(36,283,c),
(56,279,l),
(86,327,o),
(164,356,o),
(268,356,cs),
(389,356,o),
(480,308,o),
(480,243,cs),
(480,178,o),
(389,130,o),
(268,130,cs),
(158,130,o),
(64,174,o),
(48,232,c),
(28,232,l)
);
},
{
closed = 1;
nodes = (
(36,283,l),
(68,303,l),
(88,706,l),
(52,706,l)
);
},
{
closed = 1;
nodes = (
(52,550,l),
(484,550,l),
(484,706,l),
(52,706,l)
);
}
);
};
layerId = "A1E2B5BC-76C2-4EA4-94BF-A729015DAAD8";
name = "Jan 20 19, 23:24";
shapes = (
{
closed = 1;
nodes = (
(28,106,o),
(132,-10,o),
(278,-10,cs),
(418,-10,o),
(516,84,o),
(516,220,cs),
(516,344,o),
(417,430,o),
(277,430,cs),
(212,430,o),
(156,413,o),
(116,387,c),
(108,387,l),
(137,360,l),
(171,379,o),
(217,390,o),
(269,390,cs),
(381,390,o),
(462,337,o),
(462,265,cs),
(462,193,o),
(380,140,o),
(270,140,cs),
(168,140,o),
(72,190,o),
(44,262,c),
(28,262,l)
);
},
{
closed = 1;
nodes = (
(93,706,l),
(93,556,l),
(496,556,l),
(496,706,l)
);
},
{
closed = 1;
nodes = (
(75,345,l),
(101,335,l),
(111,343,o),
(121,352,o),
(137,360,c),
(108,387,l),
(127,706,l),
(93,706,l)
);
}
);
width = 552;
}
);
unicode = 53;
},
{
glyphname = six;
kernLeft = zero;
kernRight = five;
lastChange = "2022-03-27 21:26:24 +0000";
layers = (
{
layerId = "73C3FB79-0E24-4863-9919-819B2F26AD09";
shapes = (
{
closed = 1;
nodes = (
(462,-8,o),
(548,78,o),
(548,212,cs),
(548,348,o),
(456,430,o),
(308,430,cs),
(200,430,o),
(108,388,o),
(72,312,c),
(80,268,l),
(110,344,o),
(191,392,o),
(304,392,cs),
(418,392,o),
(484,349,o),
(484,276,cs),
(484,203,o),
(419,160,o),
(308,160,cs),
(169,160,o),
(88,229,o),
(88,348,cs),
(88,469,o),
(171,540,o),
(312,540,cs),
(398,540,o),
(464,513,o),
(480,470,c),
(512,476,l),
(512,616,o),
(428,708,o),
(300,708,cs),
(146,708,o),
(48,568,o),
(48,352,cs),
(48,132,o),
(150,-8,o),
(322,-8,cs)
);
}
);
width = 584;
},
{
associatedMasterId = "73C3FB79-0E24-4863-9919-819B2F26AD09";
layerId = "5EA1B7EA-2ABE-48B0-992B-20AA885E72D2";
name = "Sep 8 17, 23:06";
shapes = (
{
closed = 1;
nodes = (
(455,-10,o),
(563,95,o),
(563,236,cs),
(563,352,o),
(454,422,o),
(306,422,cs),
(158,422,o),
(65,342,o),
(65,236,c),
(140,94,l),
(310,-10,l)
);
},
{
closed = 1;
nodes = (
(193,126,o),
(105,182,o),
(105,252,cs),
(105,322,o),
(193,374,o),
(310,374,cs),
(427,374,o),
(515,322,o),
(515,252,cs),
(515,182,o),
(427,126,o),
(310,126,cs)
);
},
{
closed = 1;
nodes = (
(310,66,l),
(180,66,o),
(82,178,o),
(82,328,cs),
(82,467,o),
(182,572,o),
(316,572,cs),
(402,572,o),
(479,540,o),
(535,468,c),
(555,468,l),
(551,604,o),
(450,716,o),
(320,716,cs),
(161,716,o),
(42,546,o),
(42,320,cs),
(42,131,o),
(157,-10,o),
(310,-10,c)
);
}
);
width = 592;
},
{
associatedMasterId = "73C3FB79-0E24-4863-9919-819B2F26AD09";
layerId = "91419880-1BBA-4A2D-94FC-53FB3C73945A";
name = "Dec 26 17, 11:10";
shapes = (
{
closed = 1;
nodes = (
(435,-10,o),
(538,98,o),
(538,242,cs),
(538,375,o),
(435,474,o),
(298,474,cs),
(156,474,o),
(49,375,o),
(49,244,c),
(116,94,l),
(298,-10,l)
);
},
{
closed = 1;
nodes = (
(175,130,o),
(84,180,o),
(84,246,cs),
(84,312,o),
(175,362,o),
(296,362,cs),
(417,362,o),
(508,312,o),
(508,246,cs),
(508,180,o),
(417,130,o),
(296,130,cs)
);
},
{
closed = 1;
nodes = (
(296,66,l),
(162,66,o),
(62,179,o),
(62,330,cs),
(62,469,o),
(162,574,o),
(296,574,cs),
(394,574,o),
(481,530,o),
(500,472,c),
(520,472,l),
(518,611,o),
(423,716,o),
(300,716,cs),
(147,716,o),
(32,552,o),
(32,334,cs),
(32,137,o),
(146,-10,o),
(298,-10,c)
);
}
);
width = 557;
},
{
associatedMasterId = "73C3FB79-0E24-4863-9919-819B2F26AD09";
background = {
shapes = (
{
closed = 1;
nodes = (
(429,-10,o),
(530,95,o),
(530,235,cs),
(530,368,o),
(429,468,o),
(294,468,cs),
(152,468,o),
(45,368,o),
(45,235,c),
(108,94,l),
(294,-10,l)
);
},
{
closed = 1;
nodes = (
(167,130,o),
(76,178,o),
(76,243,cs),
(76,308,o),
(167,356,o),
(288,356,cs),
(409,356,o),
(500,308,o),
(500,243,cs),
(500,178,o),
(409,130,o),
(288,130,cs)
);
},
{
closed = 1;
nodes = (
(294,66,l),
(160,66,o),
(60,179,o),
(60,330,cs),
(60,482,o),
(152,574,o),
(288,574,cs),
(393,574,o),
(485,524,o),
(502,458,c),
(518,458,l),
(516,605,o),
(419,716,o),
(292,716,cs),
(136,716,o),
(32,558,o),
(32,334,cs),
(32,137,o),
(144,-10,o),
(294,-10,c)
);
}
);
};
layerId = "7E987277-5A6B-482E-9F83-10E1F02A6CE7";
name = "Jan 6 19, 17:44";
shapes = (
{
closed = 1;
nodes = (
(429,-10,o),
(530,95,o),
(530,235,cs),
(530,368,o),
(429,468,o),
(294,468,cs),
(152,468,o),
(45,368,o),
(45,235,c),
(108,94,l),
(294,-10,l)
);
},
{
closed = 1;
nodes = (
(167,130,o),
(76,178,o),
(76,243,cs),
(76,308,o),
(167,356,o),
(288,356,cs),
(409,356,o),
(500,308,o),
(500,243,cs),
(500,178,o),
(409,130,o),
(288,130,cs)
);
},
{
closed = 1;
nodes = (
(294,66,l),
(160,66,o),
(60,179,o),
(60,330,cs),
(60,482,o),
(152,574,o),
(288,574,cs),
(393,574,o),
(485,524,o),
(502,458,c),
(518,458,l),
(516,605,o),
(419,716,o),
(292,716,cs),
(136,716,o),
(32,558,o),
(32,334,cs),
(32,137,o),
(144,-10,o),
(294,-10,c)
);
}
);
width = 558;
},
{
layerId = "DF4F0C8E-2CF9-4068-955F-A12E64B8206D";
shapes = (
{
closed = 1;
nodes = (
(454,-8,o),
(544,81,o),
(544,206,cs),
(544,338,o),
(447,432,o),
(310,432,cs),
(200,432,o),
(103,374,o),
(76,292,c),
(88,268,l),
(115,346,o),
(198,396,o),
(300,396,cs),
(423,396,o),
(502,327,o),
(502,220,cs),
(502,119,o),
(434,54,o),
(328,54,cs),
(186,54,o),
(94,169,o),
(94,348,cs),
(94,532,o),
(180,644,o),
(312,644,cs),
(408,644,o),
(476,584,o),
(488,484,c),
(520,488,l),
(516,620,o),
(438,708,o),
(318,708,cs),
(166,708,o),
(60,560,o),
(60,344,cs),
(60,130,o),
(164,-8,o),
(326,-8,cs)
);
}
);
width = 590;
},
{
associatedMasterId = "73C3FB79-0E24-4863-9919-819B2F26AD09";
background = {
shapes = (
{
closed = 1;
nodes = (
(441,-10,o),
(544,84,o),
(544,220,cs),
(544,344,o),
(437,430,o),
(297,430,cs),
(153,430,o),
(48,353,o),
(48,241,c),
(116,94,l),
(301,-10,l)
);
},
{
closed = 1;
nodes = (
(178,140,o),
(96,193,o),
(96,265,cs),
(96,338,o),
(180,390,o),
(293,390,cs),
(405,390,o),
(490,337,o),
(490,265,cs),
(490,193,o),
(403,140,o),
(293,140,cs)
);
},
{
closed = 1;
nodes = (
(301,66,l),
(170,66,o),
(68,180,o),
(68,336,cs),
(68,472,o),
(164,572,o),
(296,572,cs),
(382,572,o),
(460,528,o),
(490,464,c),
(506,464,l),
(506,610,o),
(416,716,o),
(292,716,cs),
(144,716,o),
(36,552,o),
(36,328,cs),
(36,130,o),
(149,-10,o),
(301,-10,c)
);
}
);
};
layerId = "716C0178-5FC4-4099-950E-3DEC48F9298F";
name = "19 gen 22, 11:21";
shapes = (
{
closed = 1;
nodes = (
(441,-10,o),
(544,84,o),
(544,220,cs),
(544,344,o),
(437,430,o),
(297,430,cs),
(153,430,o),
(48,353,o),
(48,241,c),
(116,94,l),
(301,-10,l)
);
},
{
closed = 1;
nodes = (
(178,140,o),
(96,193,o),
(96,265,cs),
(96,338,o),
(180,390,o),
(293,390,cs),
(405,390,o),
(490,337,o),
(490,265,cs),
(490,193,o),
(403,140,o),
(293,140,cs)
);
},
{
closed = 1;
nodes = (
(301,66,l),
(170,66,o),
(68,180,o),
(68,336,cs),
(68,472,o),
(164,572,o),
(296,572,cs),
(382,572,o),
(460,528,o),
(490,464,c),
(506,464,l),
(506,610,o),
(416,716,o),
(292,716,cs),
(144,716,o),
(36,552,o),
(36,328,cs),
(36,130,o),
(149,-10,o),
(301,-10,c)
);
}
);
width = 568;
}
);
metricLeft = zero;
unicode = 54;
},
{
glyphname = seven;
lastChange = "2022-03-28 12:10:34 +0000";
layers = (
{
layerId = "73C3FB79-0E24-4863-9919-819B2F26AD09";
shapes = (
{
closed = 1;
nodes = (
(180,0,l),
(464,540,l),
(468,700,l),
(16,700,l),
(16,508,l),
(408,508,l),
(404,516,l),
(124,0,l)
);
}
);
width = 488;
},
{
layerId = "DF4F0C8E-2CF9-4068-955F-A12E64B8206D";
shapes = (
{
closed = 1;
nodes = (
(182,0,l),
(450,644,l),
(450,700,l),
(18,700,l),
(18,636,l),
(414,636,l),
(410,644,l),
(138,0,l)
);
}
);
width = 472;
}
);
unicode = 55;
},
{
glyphname = eight;
kernLeft = eight;
kernRight = eight;
lastChange = "2022-03-27 21:27:57 +0000";
layers = (
{
layerId = "73C3FB79-0E24-4863-9919-819B2F26AD09";
shapes = (
{
closed = 1;
nodes = (
(461,-8,o),
(564,64,o),
(564,176,cs),
(564,264,o),
(500,330,o),
(400,342,c),
(400,354,l),
(488,369,o),
(544,434,o),
(544,520,cs),
(544,634,o),
(449,708,o),
(302,708,cs),
(155,708,o),
(60,634,o),
(60,520,cs),
(60,434,o),
(116,369,o),
(204,354,c),
(204,342,l),
(104,330,o),
(40,264,o),
(40,176,cs),
(40,64,o),
(143,-8,o),
(302,-8,cs)
);
},
{
closed = 1;
nodes = (
(185,150,o),
(114,182,o),
(114,238,cs),
(114,294,o),
(185,326,o),
(302,326,cs),
(419,326,o),
(490,294,o),
(490,238,cs),
(490,182,o),
(419,150,o),
(302,150,cs)
);
},
{
closed = 1;
nodes = (
(192,370,o),
(128,403,o),
(128,459,cs),
(128,515,o),
(192,548,o),
(302,548,cs),
(412,548,o),
(476,515,o),
(476,459,cs),
(476,403,o),
(412,370,o),
(302,370,cs)
);
}
);
width = 604;
},
{
layerId = "DF4F0C8E-2CF9-4068-955F-A12E64B8206D";
shapes = (
{
closed = 1;
nodes = (
(438,-8,o),
(538,68,o),
(538,176,cs),
(538,260,o),
(479,325,o),
(386,342,c),
(386,354,l),
(471,371,o),
(526,436,o),
(526,520,cs),
(526,630,o),
(431,708,o),
(296,708,cs),
(161,708,o),
(66,630,o),
(66,520,cs),
(66,436,o),
(121,371,o),
(206,354,c),
(206,342,l),
(113,325,o),
(54,260,o),
(54,176,cs),
(54,68,o),
(154,-8,o),
(296,-8,cs)
);
},
{
closed = 1;
nodes = (
(174,54,o),
(96,108,o),
(96,192,cs),
(96,276,o),
(174,330,o),
(296,330,cs),
(418,330,o),
(496,276,o),
(496,192,cs),
(496,108,o),
(418,54,o),
(296,54,cs)
);
},
{
closed = 1;
nodes = (
(183,366,o),
(110,420,o),
(110,505,cs),
(110,590,o),
(183,644,o),
(296,644,cs),
(409,644,o),
(482,590,o),
(482,505,cs),
(482,420,o),
(409,366,o),
(296,366,cs)
);
}
);
width = 592;
}
);
metricRight = "=|";
unicode = 56;
},
{
color = 3;
glyphname = nine;
kernLeft = five;
kernRight = zero;
lastChange = "2022-03-28 12:28:52 +0000";
layers = (
{
layerId = "DF4F0C8E-2CF9-4068-955F-A12E64B8206D";
shapes = (
{
closed = 1;
nodes = (
(435,-8,o),
(530,136,o),
(530,360,cs),
(530,572,o),
(432,708,o),
(280,708,cs),
(151,708,o),
(60,617,o),
(60,488,cs),
(60,354,o),
(159,260,o),
(298,260,cs),
(405,260,o),
(497,311,o),
(520,388,c),
(512,412,l),
(485,339,o),
(404,296,o),
(306,296,cs),
(184,296,o),
(106,366,o),
(106,476,cs),
(106,578,o),
(176,644,o),
(286,644,cs),
(420,644,o),
(498,545,o),
(498,376,cs),
(498,173,o),
(419,54,o),
(278,54,cs),
(178,54,o),
(104,120,o),
(88,220,c),
(60,218,l),
(68,86,o),
(157,-8,o),
(280,-8,cs)
);
}
);
width = 590;
},
{
layerId = "73C3FB79-0E24-4863-9919-819B2F26AD09";
shapes = (
{
closed = 1;
nodes = (
(428,-8,o),
(524,128,o),
(524,360,cs),
(524,584,o),
(440,708,o),
(272,708,cs),
(133,708,o),
(44,620,o),
(44,484,cs),
(44,348,o),
(140,260,o),
(290,260,cs),
(402,260,o),
(486,308,o),
(506,388,c),
(496,432,l),
(480,344,o),
(404,298,o),
(292,298,cs),
(181,298,o),
(116,344,o),
(116,422,cs),
(116,499,o),
(178,544,o),
(284,544,cs),
(413,544,o),
(488,476,o),
(488,360,cs),
(488,229,o),
(402,152,o),
(256,152,cs),
(162,152,o),
(90,184,o),
(78,236,c),
(46,230,l),
(46,85,o),
(136,-8,o),
(268,-8,cs)
);
}
);
width = 572;
},
{
associatedMasterId = "73C3FB79-0E24-4863-9919-819B2F26AD09";
background = {
shapes = (
{
closed = 1;
nodes = (
(430,-8,o),
(529,131,o),
(529,348,cs),
(529,568,o),
(425,708,o),
(257,708,cs),
(121,708,o),
(29,618,o),
(29,490,cs),
(29,358,o),
(125,272,o),
(273,272,cs),
(377,272,o),
(476,316,o),
(509,384,c),
(497,424,l),
(468,351,o),
(387,308,o),
(271,308,cs),
(159,308,o),
(89,350,o),
(89,424,cs),
(89,498,o),
(157,540,o),
(269,540,cs),
(413,540,o),
(497,466,o),
(497,340,cs),
(497,219,o),
(413,148,o),
(281,148,cs),
(185,148,o),
(117,186,o),
(97,250,c),
(65,244,l),
(65,91,o),
(148,-8,o),
(277,-8,cs)
);
}
);
};
layerId = "67310E45-DDBD-4F05-9684-EF521CE4B202";
name = "25 gen 22, 15:04";
shapes = (
{
closed = 1;
nodes = (
(430,-8,o),
(532,124,o),
(532,356,cs),
(532,572,o),
(434,708,o),
(274,708,cs),
(140,708,o),
(54,623,o),
(54,492,cs),
(54,356,o),
(149,268,o),
(296,268,cs),
(406,268,o),
(491,318,o),
(514,396,c),
(502,436,l),
(483,353,o),
(409,304,o),
(302,304,cs),
(186,304,o),
(118,351,o),
(118,432,cs),
(118,508,o),
(180,552,o),
(286,552,cs),
(417,552,o),
(494,480,o),
(494,356,cs),
(494,225,o),
(414,160,o),
(266,160,cs),
(155,160,o),
(88,200,o),
(72,260,c),
(42,256,l),
(42,95,o),
(131,-8,o),
(270,-8,cs)
);
}
);
width = 584;
}
);
metricRight = zero;
unicode = 57;
},
{
glyphname = zerosuperior;
kernLeft = degree;
kernRight = degree;
lastChange = "2022-02-19 14:14:17 +0000";
layers = (
{
layerId = "DF4F0C8E-2CF9-4068-955F-A12E64B8206D";
shapes = (
{
closed = 1;
nodes = (
(280,324,o),
(344,401,o),
(344,511,cs),
(344,624,o),
(280,704,o),
(190,704,cs),
(100,704,o),
(36,624,o),
(36,511,cs),
(36,401,o),
(100,324,o),
(190,324,cs)
);
},
{
closed = 1;
nodes = (
(115,376,o),
(66,430,o),
(66,513,cs),
(66,596,o),
(115,650,o),
(190,650,cs),
(265,650,o),
(314,596,o),
(314,513,cs),
(314,430,o),
(265,376,o),
(190,376,cs)
);
}
);
width = 380;
},
{
layerId = "73C3FB79-0E24-4863-9919-819B2F26AD09";
shapes = (
{
closed = 1;
nodes = (
(291,324,o),
(354,397,o),
(354,511,cs),
(354,628,o),
(291,704,o),
(193,704,cs),
(95,704,o),
(32,628,o),
(32,511,cs),
(32,397,o),
(95,324,o),
(193,324,cs)
);
},
{
closed = 1;
nodes = (
(110,434,o),
(62,463,o),
(62,513,cs),
(62,563,o),
(110,592,o),
(193,592,cs),
(276,592,o),
(324,563,o),
(324,513,cs),
(324,463,o),
(276,434,o),
(193,434,cs)
);
}
);
width = 386;
}
);
metricRight = "=|";
unicode = 8304;
},
{
glyphname = onesuperior;
kernLeft = degree;
kernRight = degree;
lastChange = "2022-02-19 14:14:17 +0000";
layers = (
{
layerId = "DF4F0C8E-2CF9-4068-955F-A12E64B8206D";
shapes = (
{
closed = 1;
nodes = (
(168,332,l),
(168,700,l),
(130,700,l),
(130,641,o),
(88,607,o),
(16,607,c),
(16,551,l),
(69,551,o),
(109,572,o),
(124,607,c),
(132,607,l),
(132,332,l)
);
}
);
width = 216;
},
{
layerId = "73C3FB79-0E24-4863-9919-819B2F26AD09";
shapes = (
{
closed = 1;
nodes = (
(172,332,l),
(172,700,l),
(132,700,l),
(132,644,o),
(88,613,o),
(12,613,c),
(12,497,l),
(76,497,o),
(112,524,o),
(120,564,c),
(128,564,l),
(128,332,l)
);
}
);
width = 216;
}
);
unicode = 185;
},
{
glyphname = twosuperior;
kernLeft = degree;
kernRight = degree;
lastChange = "2022-02-19 14:14:17 +0000";
layers = (
{
layerId = "DF4F0C8E-2CF9-4068-955F-A12E64B8206D";
shapes = (
{
closed = 1;
nodes = (
(260,332,l),
(260,384,l),
(104,384,l),
(104,392,l),
(208,444,o),
(260,508,o),
(260,584,cs),
(260,654,o),
(214,704,o),
(150,704,cs),
(79,704,o),
(32,646,o),
(32,564,c),
(54,562,l),
(57,618,o),
(93,654,o),
(146,654,cs),
(197,654,o),
(230,622,o),
(230,572,cs),
(230,498,o),
(156,426,o),
(36,382,c),
(36,332,l)
);
}
);
width = 296;
},
{
layerId = "73C3FB79-0E24-4863-9919-819B2F26AD09";
shapes = (
{
closed = 1;
nodes = (
(268,332,l),
(268,432,l),
(92,432,l),
(92,440,l),
(216,468,o),
(266,512,o),
(266,588,cs),
(266,659,o),
(222,704,o),
(154,704,cs),
(76,704,o),
(28,648,o),
(28,548,c),
(52,544,l),
(58,584,o),
(92,608,o),
(148,608,cs),
(200,608,o),
(228,584,o),
(228,550,cs),
(228,498,o),
(156,468,o),
(32,440,c),
(32,332,l)
);
}
);
width = 300;
}
);
unicode = 178;
},
{
glyphname = threesuperior;
kernLeft = degree;
kernRight = degree;
lastChange = "2022-02-19 14:14:17 +0000";
layers = (
{
layerId = "DF4F0C8E-2CF9-4068-955F-A12E64B8206D";
shapes = (
{
closed = 1;
nodes = (
(224,324,o),
(272,365,o),
(272,424,cs),
(272,472,o),
(240,502,o),
(188,510,c),
(188,518,l),
(236,530,o),
(264,558,o),
(264,604,cs),
(264,663,o),
(218,704,o),
(154,704,cs),
(81,704,o),
(30,649,o),
(30,572,c),
(52,570,l),
(56,622,o),
(91,656,o),
(148,656,cs),
(197,656,o),
(232,631,o),
(232,592,cs),
(232,552,o),
(201,526,o),
(152,526,cs),
(132,526,l),
(132,500,l),
(152,500,ls),
(207,500,o),
(242,475,o),
(242,436,cs),
(242,396,o),
(209,370,o),
(154,370,cs),
(95,370,o),
(53,399,o),
(48,442,c),
(28,440,l),
(28,372,o),
(81,324,o),
(155,324,cs)
);
}
);
width = 300;
},
{
layerId = "73C3FB79-0E24-4863-9919-819B2F26AD09";
shapes = (
{
closed = 1;
nodes = (
(239,324,o),
(288,363,o),
(288,424,cs),
(288,472,o),
(256,502,o),
(208,510,c),
(208,518,l),
(252,526,o),
(276,556,o),
(276,600,cs),
(276,663,o),
(229,704,o),
(157,704,cs),
(77,704,o),
(28,654,o),
(28,570,c),
(52,566,l),
(57,591,o),
(94,606,o),
(152,606,cs),
(208,606,o),
(240,592,o),
(240,568,cs),
(240,544,o),
(209,530,o),
(156,530,cs),
(136,530,l),
(136,496,l),
(156,496,ls),
(214,496,o),
(248,482,o),
(248,458,cs),
(248,434,o),
(214,420,o),
(156,420,cs),
(93,420,o),
(54,438,o),
(50,469,c),
(24,465,l),
(24,377,o),
(76,324,o),
(164,324,cs)
);
}
);
width = 312;
}
);
metricRight = "=|";
unicode = 179;
},
{
glyphname = foursuperior;
kernLeft = degree;
kernRight = degree;
lastChange = "2022-02-19 14:14:17 +0000";
layers = (
{
layerId = "DF4F0C8E-2CF9-4068-955F-A12E64B8206D";
shapes = (
{
closed = 1;
nodes = (
(224,332,l),
(224,700,l),
(190,700,l),
(20,452,l),
(20,400,l),
(268,400,l),
(268,450,l),
(44,450,l),
(48,442,l),
(188,648,l),
(196,648,l),
(196,332,l)
);
}
);
width = 288;
},
{
layerId = "73C3FB79-0E24-4863-9919-819B2F26AD09";
shapes = (
{
closed = 1;
nodes = (
(224,332,l),
(224,700,l),
(172,700,l),
(16,476,l),
(16,388,l),
(264,388,l),
(264,488,l),
(44,488,l),
(48,472,l),
(136,596,l),
(192,596,l),
(192,332,l)
);
}
);
width = 284;
}
);
unicode = 8308;
},
{
glyphname = fraction;
lastChange = "2022-01-17 18:12:26 +0000";
layers = (
{
layerId = "DF4F0C8E-2CF9-4068-955F-A12E64B8206D";
shapes = (
{
closed = 1;
nodes = (
(54,0,l),
(542,700,l),
(498,700,l),
(10,0,l)
);
}
);
width = 552;
},
{
layerId = "73C3FB79-0E24-4863-9919-819B2F26AD09";
shapes = (
{
closed = 1;
nodes = (
(60,0,l),
(554,700,l),
(504,700,l),
(10,0,l)
);
}
);
width = 564;
}
);
metricRight = "=|";
unicode = 8260;
},
{
glyphname = period;
kernLeft = period;
kernRight = period;
lastChange = "2022-03-28 12:32:00 +0000";
layers = (
{
layerId = "73C3FB79-0E24-4863-9919-819B2F26AD09";
shapes = (
{
closed = 1;
nodes = (
(153,-4,o),
(180,23,o),
(180,62,cs),
(180,101,o),
(153,128,o),
(114,128,cs),
(75,128,o),
(48,101,o),
(48,62,cs),
(48,23,o),
(75,-4,o),
(114,-4,cs)
);
}
);
width = 228;
},
{
layerId = "DF4F0C8E-2CF9-4068-955F-A12E64B8206D";
shapes = (
{
closed = 1;
nodes = (
(138,-4,o),
(160,18,o),
(160,48,cs),
(160,78,o),
(138,100,o),
(108,100,cs),
(78,100,o),
(56,78,o),
(56,48,cs),
(56,18,o),
(78,-4,o),
(108,-4,cs)
);
}
);
width = 216;
}
);
metricRight = "=|";
unicode = 46;
},
{
glyphname = comma;
kernLeft = period;
kernRight = period;
lastChange = "2022-03-24 21:07:53 +0000";
layers = (
{
layerId = "73C3FB79-0E24-4863-9919-819B2F26AD09";
shapes = (
{
closed = 1;
nodes = (
(140,88,l),
(88,98,l),
(40,-180,l),
(76,-188,l)
);
}
);
width = 192;
},
{
layerId = "DF4F0C8E-2CF9-4068-955F-A12E64B8206D";
shapes = (
{
closed = 1;
nodes = (
(136,88,l),
(92,96,l),
(44,-180,l),
(72,-186,l)
);
}
);
width = 200;
}
);
unicode = 44;
},
{
glyphname = exclam;
lastChange = "2022-01-17 16:59:08 +0000";
layers = (
{
layerId = "73C3FB79-0E24-4863-9919-819B2F26AD09";
shapes = (
{
closed = 1;
nodes = (
(133,188,l),
(140,750,l),
(88,750,l),
(95,188,l)
);
},
{
ref = period;
}
);
width = 228;
},
{
layerId = "DF4F0C8E-2CF9-4068-955F-A12E64B8206D";
shapes = (
{
closed = 1;
nodes = (
(132,188,l),
(142,750,l),
(98,750,l),
(108,188,l)
);
},
{
pos = (12,0);
ref = period;
}
);
width = 240;
}
);
metricRight = "=|";
unicode = 33;
},
{
glyphname = exclamdown;
lastChange = "2022-03-27 21:05:51 +0000";
layers = (
{
background = {
shapes = (
{
closed = 1;
nodes = (
(56,274,l),
(84,274,l),
(91,-206,l),
(49,-206,l)
);
},
{
closed = 1;
nodes = (
(45,452,o),
(24,431,o),
(24,403,cs),
(24,375,o),
(45,354,o),
(72,354,cs),
(99,354,o),
(120,375,o),
(120,403,cs),
(120,431,o),
(99,452,o),
(72,452,cs)
);
}
);
};
layerId = "73C3FB79-0E24-4863-9919-819B2F26AD09";
shapes = (
{
closed = 1;
nodes = (
(136,-200,l),
(124,336,l),
(96,336,l),
(84,-200,l)
);
},
{
pos = (-4,396);
ref = period;
}
);
width = 220;
},
{
layerId = "DF4F0C8E-2CF9-4068-955F-A12E64B8206D";
shapes = (
{
closed = 1;
nodes = (
(138,-200,l),
(128,336,l),
(104,336,l),
(94,-200,l)
);
},
{
pos = (8,424);
ref = period;
}
);
width = 232;
}
);
metricLeft = "=exclam-4";
metricRight = "=|";
unicode = 161;
},
{
color = 3;
glyphname = question;
lastChange = "2022-03-28 12:11:17 +0000";
layers = (
{
layerId = "73C3FB79-0E24-4863-9919-819B2F26AD09";
shapes = (
{
closed = 1;
nodes = (
(256,180,l),
(256,304,o),
(476,304,o),
(476,508,cs),
(476,630,o),
(393,708,o),
(264,708,cs),
(116,708,o),
(28,604,o),
(28,436,c),
(60,432,l),
(76,505,o),
(145,548,o),
(248,548,cs),
(347,548,o),
(404,508,o),
(404,440,cs),
(404,316,o),
(220,324,o),
(220,180,c)
);
},
{
pos = (128,0);
ref = period;
}
);
width = 520;
},
{
associatedMasterId = "73C3FB79-0E24-4863-9919-819B2F26AD09";
background = {
shapes = (
{
closed = 1;
nodes = (
(249,351,o),
(218,305,o),
(218,244,c),
(218,208,l),
(256,208,l),
(256,240,l),
(256,293,o),
(273,319,o),
(310,334,cs),
(317,337,o),
(350,349,o),
(398,367,cs),
(448,386,o),
(478,434,o),
(478,496,cs),
(478,622,o),
(384,716,o),
(256,716,cs),
(132,716,o),
(38,608,o),
(36,464,c),
(52,464,l),
(72,523,o),
(159,568,o),
(254,568,cs),
(353,568,o),
(430,523,o),
(430,464,cs),
(430,434,o),
(414,410,o),
(388,399,cs),
(374,393,o),
(343,381,o),
(302,368,cs)
);
},
{
closed = 1;
nodes = (
(274,-10,o),
(299,15,o),
(299,49,cs),
(299,83,o),
(274,108,o),
(241,108,cs),
(208,108,o),
(183,83,o),
(183,49,cs),
(183,15,o),
(208,-10,o),
(241,-10,cs)
);
}
);
};
layerId = "836B0ABC-0664-4FD7-ABD5-A9AC31679C85";
name = "Jan 17 19, 02:07";
shapes = (
{
closed = 1;
nodes = (
(249,351,o),
(218,305,o),
(218,244,c),
(218,208,l),
(256,208,l),
(256,240,l),
(256,293,o),
(273,319,o),
(310,334,cs),
(317,337,o),
(350,349,o),
(398,367,cs),
(448,386,o),
(478,434,o),
(478,496,cs),
(478,622,o),
(384,716,o),
(256,716,cs),
(132,716,o),
(38,608,o),
(36,464,c),
(52,464,l),
(72,523,o),
(159,568,o),
(254,568,cs),
(353,568,o),
(430,523,o),
(430,464,cs),
(430,434,o),
(414,410,o),
(388,399,cs),
(374,393,o),
(343,381,o),
(302,368,cs)
);
},
{
closed = 1;
nodes = (
(274,-10,o),
(299,15,o),
(299,49,cs),
(299,83,o),
(274,108,o),
(241,108,cs),
(208,108,o),
(183,83,o),
(183,49,cs),
(183,15,o),
(208,-10,o),
(241,-10,cs)
);
}
);
width = 520;
},
{
background = {
shapes = (
{
pos = (-12,0);
ref = two;
}
);
};
layerId = "DF4F0C8E-2CF9-4068-955F-A12E64B8206D";
shapes = (
{
closed = 1;
nodes = (
(236,188,l),
(236,324,o),
(444,310,o),
(444,506,cs),
(444,626,o),
(366,708,o),
(250,708,cs),
(122,708,o),
(34,602,o),
(32,454,c),
(64,452,l),
(70,569,o),
(140,644,o),
(244,644,cs),
(339,644,o),
(400,583,o),
(400,488,cs),
(400,320,o),
(212,348,o),
(212,188,c)
);
},
{
pos = (120,0);
ref = period;
}
);
width = 488;
}
);
unicode = 63;
},
{
color = 3;
glyphname = questiondown;
lastChange = "2022-03-28 12:32:06 +0000";
layers = (
{
layerId = "73C3FB79-0E24-4863-9919-819B2F26AD09";
shapes = (
{
closed = 1;
nodes = (
(369,-212,o),
(460,-108,o),
(460,60,c),
(428,64,l),
(412,-8,o),
(343,-50,o),
(240,-50,cs),
(143,-50,o),
(86,-12,o),
(86,52,cs),
(86,168,o),
(268,164,o),
(268,316,c),
(232,316,l),
(232,180,o),
(12,196,o),
(12,-8,cs),
(12,-132,o),
(93,-212,o),
(224,-212,cs)
);
},
{
pos = (133,396);
ref = period;
}
);
width = 486;
},
{
layerId = "DF4F0C8E-2CF9-4068-955F-A12E64B8206D";
shapes = (
{
closed = 1;
nodes = (
(330,-212,o),
(416,-110,o),
(416,34,c),
(388,36,l),
(388,-76,o),
(321,-148,o),
(216,-148,cs),
(120,-148,o),
(58,-90,o),
(58,0,cs),
(58,156,o),
(248,156,o),
(248,336,c),
(224,336,l),
(224,184,o),
(16,172,o),
(16,-12,cs),
(16,-129,o),
(96,-212,o),
(208,-212,cs)
);
},
{
pos = (124,424);
ref = period;
}
);
width = 436;
}
);
unicode = 191;
},
{
glyphname = periodcentered;
kernLeft = bullet;
kernRight = bullet;
lastChange = "2022-03-24 18:50:30 +0000";
layers = (
{
background = {
shapes = (
{
closed = 1;
nodes = (
(111,207,o),
(132,228,o),
(132,256,cs),
(132,284,o),
(111,305,o),
(84,305,cs),
(57,305,o),
(36,284,o),
(36,256,cs),
(36,228,o),
(57,207,o),
(84,207,cs)
);
}
);
};
layerId = "73C3FB79-0E24-4863-9919-819B2F26AD09";
shapes = (
{
pos = (40,208);
ref = period;
}
);
width = 308;
},
{
layerId = "DF4F0C8E-2CF9-4068-955F-A12E64B8206D";
shapes = (
{
pos = (42,208);
ref = period;
}
);
width = 300;
}
);
metricRight = "=|";
unicode = 183;
},
{
glyphname = bullet;
kernLeft = bullet;
kernRight = bullet;
lastChange = "2022-03-28 12:32:13 +0000";
layers = (
{
background = {
shapes = (
{
closed = 1;
nodes = (
(198,177,o),
(234,214,o),
(234,264,cs),
(234,314,o),
(198,351,o),
(149,351,cs),
(100,351,o),
(64,314,o),
(64,264,cs),
(64,214,o),
(100,177,o),
(149,177,cs)
);
}
);
};
layerId = "73C3FB79-0E24-4863-9919-819B2F26AD09";
shapes = (
{
closed = 1;
nodes = (
(280,152,o),
(324,196,o),
(324,256,cs),
(324,316,o),
(280,360,o),
(220,360,cs),
(160,360,o),
(116,316,o),
(116,256,cs),
(116,196,o),
(160,152,o),
(220,152,cs)
);
}
);
width = 440;
},
{
layerId = "DF4F0C8E-2CF9-4068-955F-A12E64B8206D";
shapes = (
{
closed = 1;
nodes = (
(280,152,o),
(324,196,o),
(324,256,cs),
(324,316,o),
(280,360,o),
(220,360,cs),
(160,360,o),
(116,316,o),
(116,256,cs),
(116,196,o),
(160,152,o),
(220,152,cs)
);
}
);
width = 440;
}
);
metricRight = "=|";
unicode = 8226;
},
{
glyphname = asterisk;
kernLeft = degree;
kernRight = degree;
lastChange = "2022-01-17 16:59:08 +0000";
layers = (
{
layerId = "73C3FB79-0E24-4863-9919-819B2F26AD09";
shapes = (
{
closed = 1;
nodes = (
(240,332,l),
(226,475,l),
(237,482,l),
(354,398,l),
(384,450,l),
(253,510,l),
(253,522,l),
(384,582,l),
(354,634,l),
(237,550,l),
(226,557,l),
(240,700,l),
(180,700,l),
(194,557,l),
(183,550,l),
(66,634,l),
(36,582,l),
(167,522,l),
(167,510,l),
(36,450,l),
(66,398,l),
(183,482,l),
(194,475,l),
(180,332,l)
);
}
);
width = 420;
},
{
associatedMasterId = "73C3FB79-0E24-4863-9919-819B2F26AD09";
background = {
shapes = (
{
closed = 1;
nodes = (
(268,474,l),
(276,730,l),
(236,730,l),
(244,474,l)
);
},
{
closed = 1;
nodes = (
(236,258,l),
(276,258,l),
(268,514,l),
(244,514,l)
);
},
{
closed = 1;
nodes = (
(245,474,l),
(470,595,l),
(450,629,l),
(233,494,l)
);
},
{
closed = 1;
nodes = (
(42,393,l),
(62,359,l),
(279,494,l),
(267,514,l)
);
},
{
closed = 1;
nodes = (
(233,494,l),
(450,359,l),
(470,393,l),
(245,514,l)
);
},
{
closed = 1;
nodes = (
(62,629,l),
(42,595,l),
(268,474,l),
(279,494,l)
);
}
);
};
layerId = "3DF4C77A-0F72-4A69-81AE-1F21752FA734";
name = "Nov 1 18, 19:49";
shapes = (
{
closed = 1;
nodes = (
(268,474,l),
(276,730,l),
(236,730,l),
(244,474,l)
);
},
{
closed = 1;
nodes = (
(236,258,l),
(276,258,l),
(268,514,l),
(244,514,l)
);
},
{
closed = 1;
nodes = (
(245,474,l),
(470,595,l),
(450,629,l),
(233,494,l)
);
},
{
closed = 1;
nodes = (
(42,393,l),
(62,359,l),
(279,494,l),
(267,514,l)
);
},
{
closed = 1;
nodes = (
(233,494,l),
(450,359,l),
(470,393,l),
(245,514,l)
);
},
{
closed = 1;
nodes = (
(62,629,l),
(42,595,l),
(268,474,l),
(279,494,l)
);
}
);
width = 512;
},
{
layerId = "DF4F0C8E-2CF9-4068-955F-A12E64B8206D";
shapes = (
{
closed = 1;
nodes = (
(240,332,l),
(228,480,l),
(238,487,l),
(358,400,l),
(384,447,l),
(250,510,l),
(250,522,l),
(384,585,l),
(358,632,l),
(238,545,l),
(228,552,l),
(240,700,l),
(188,700,l),
(200,552,l),
(190,545,l),
(70,632,l),
(44,585,l),
(178,522,l),
(178,510,l),
(44,447,l),
(70,400,l),
(190,487,l),
(200,480,l),
(188,332,l)
);
}
);
width = 428;
},
{
associatedMasterId = "DF4F0C8E-2CF9-4068-955F-A12E64B8206D";
layerId = "20488901-08EE-4191-8CAC-04086EE52C76";
name = "13 dic 21, 16:45";
shapes = (
{
closed = 1;
nodes = (
(234,332,l),
(218,486,l),
(229,492,l),
(354,401,l),
(380,447,l),
(239,510,l),
(239,522,l),
(380,585,l),
(354,631,l),
(229,540,l),
(218,546,l),
(234,700,l),
(182,700,l),
(198,546,l),
(187,540,l),
(62,631,l),
(36,585,l),
(177,522,l),
(177,510,l),
(36,447,l),
(62,401,l),
(187,492,l),
(198,486,l),
(182,332,l)
);
}
);
width = 416;
}
);
metricRight = "=|";
unicode = 42;
},
{
glyphname = numbersign;
lastChange = "2022-03-28 12:32:28 +0000";
layers = (
{
layerId = "73C3FB79-0E24-4863-9919-819B2F26AD09";
shapes = (
{
closed = 1;
nodes = (
(134,0,l),
(286,700,l),
(244,700,l),
(94,0,l)
);
},
{
closed = 1;
nodes = (
(412,0,l),
(552,700,l),
(510,700,l),
(372,0,l)
);
},
{
closed = 1;
nodes = (
(576,401,l),
(600,553,l),
(124,553,l),
(98,401,l)
);
},
{
closed = 1;
nodes = (
(530,144,l),
(554,292,l),
(72,292,l),
(48,144,l)
);
}
);
width = 652;
},
{
layerId = "DF4F0C8E-2CF9-4068-955F-A12E64B8206D";
shapes = (
{
closed = 1;
nodes = (
(120,0,l),
(284,700,l),
(248,700,l),
(86,0,l)
);
},
{
closed = 1;
nodes = (
(392,0,l),
(548,700,l),
(512,700,l),
(358,0,l)
);
},
{
closed = 1;
nodes = (
(568,449,l),
(580,505,l),
(122,505,l),
(108,449,l)
);
},
{
closed = 1;
nodes = (
(524,191,l),
(536,245,l),
(64,245,l),
(52,191,l)
);
}
);
width = 636;
}
);
metricRight = "=|+4";
unicode = 35;
},
{
glyphname = slash;
lastChange = "2022-03-28 12:30:37 +0000";
layers = (
{
layerId = "73C3FB79-0E24-4863-9919-819B2F26AD09";
shapes = (
{
closed = 1;
nodes = (
(52,-120,l),
(320,780,l),
(276,780,l),
(8,-120,l)
);
}
);
width = 328;
},
{
associatedMasterId = "73C3FB79-0E24-4863-9919-819B2F26AD09";
layerId = "1CE870E6-3D29-462A-82C4-5F231B226F7B";
name = "Nov 25 17, 11:54";
shapes = (
{
closed = 1;
nodes = (
(42,0,l),
(80,0,l),
(344,706,l),
(306,706,l)
);
}
);
width = 348;
},
{
layerId = "DF4F0C8E-2CF9-4068-955F-A12E64B8206D";
shapes = (
{
closed = 1;
nodes = (
(48,-120,l),
(318,780,l),
(280,780,l),
(10,-120,l)
);
}
);
width = 328;
}
);
metricRight = "=|";
unicode = 47;
},
{
glyphname = backslash;
lastChange = "2022-03-28 12:11:30 +0000";
layers = (
{
layerId = "73C3FB79-0E24-4863-9919-819B2F26AD09";
shapes = (
{
closed = 1;
nodes = (
(336,-120,l),
(52,780,l),
(8,780,l),
(292,-120,l)
);
}
);
width = 344;
},
{
layerId = "DF4F0C8E-2CF9-4068-955F-A12E64B8206D";
shapes = (
{
closed = 1;
nodes = (
(334,-120,l),
(48,780,l),
(10,780,l),
(296,-120,l)
);
}
);
width = 344;
}
);
metricRight = "=|";
unicode = 92;
},
{
glyphname = hyphen;
kernLeft = hyphen;
kernRight = hyphen;
lastChange = "2022-03-28 12:31:13 +0000";
layers = (
{
layerId = "73C3FB79-0E24-4863-9919-819B2F26AD09";
shapes = (
{
closed = 1;
nodes = (
(460,225,l),
(460,287,l),
(52,287,l),
(52,225,l)
);
}
);
width = 512;
},
{
layerId = "DF4F0C8E-2CF9-4068-955F-A12E64B8206D";
shapes = (
{
closed = 1;
nodes = (
(460,228,l),
(460,284,l),
(60,284,l),
(60,228,l)
);
}
);
width = 520;
}
);
metricRight = "=|";
unicode = 45;
},
